<svg xmlns="http://www.w3.org/2000/svg" width="18.166" height="18.166" viewBox="0 0 18.166 18.166">
  <path id="Icon_metro-copyright" data-name="Icon metro-copyright" d="M18.371,15.595v1.289a1.5,1.5,0,0,1-.432,1.053,2.868,2.868,0,0,1-1.112.716,8.129,8.129,0,0,1-1.4.384,7.763,7.763,0,0,1-1.39.13,5.467,5.467,0,0,1-4.051-1.644,5.586,5.586,0,0,1-1.626-4.092,5.5,5.5,0,0,1,5.618-5.618,8.346,8.346,0,0,1,.893.053,7.631,7.631,0,0,1,1.1.213,5.641,5.641,0,0,1,1.094.4,2.355,2.355,0,0,1,.816.668,1.52,1.52,0,0,1,.331.958V11.4a.167.167,0,0,1-.189.189h-1.4a.167.167,0,0,1-.189-.189v-.828q0-.509-.775-.8a4.6,4.6,0,0,0-1.626-.29,3.593,3.593,0,0,0-2.7,1.082,3.871,3.871,0,0,0-1.047,2.809,4.166,4.166,0,0,0,1.082,2.951,3.6,3.6,0,0,0,2.762,1.165,5.011,5.011,0,0,0,1.632-.284q.828-.284.828-.781V15.6a.184.184,0,0,1,.053-.136.17.17,0,0,1,.124-.053h1.407a.19.19,0,0,1,.13.053.175.175,0,0,1,.059.136ZM13.853,5.921a7.357,7.357,0,0,0-2.939.6,7.464,7.464,0,0,0-4.027,4.027,7.461,7.461,0,0,0,0,5.878,7.464,7.464,0,0,0,4.027,4.027,7.462,7.462,0,0,0,5.878,0,7.464,7.464,0,0,0,4.027-4.027,7.462,7.462,0,0,0,0-5.878,7.464,7.464,0,0,0-4.027-4.027,7.357,7.357,0,0,0-2.939-.6Zm9.083,7.569a8.885,8.885,0,0,1-1.218,4.559,9.042,9.042,0,0,1-3.306,3.306,9.141,9.141,0,0,1-9.118,0,9.042,9.042,0,0,1-3.306-3.306A8.885,8.885,0,0,1,4.77,13.49,8.885,8.885,0,0,1,5.988,8.931,9.042,9.042,0,0,1,9.294,5.625a9.141,9.141,0,0,1,9.118,0,9.042,9.042,0,0,1,3.306,3.306A8.885,8.885,0,0,1,22.936,13.49Z" transform="translate(-4.77 -4.407)" fill="#e9dbbb"/>
</svg>
