<svg xmlns="http://www.w3.org/2000/svg" width="113" height="113" viewBox="0 0 113 113">
  <g id="Gruppe_395" data-name="Gruppe 395" transform="translate(-505 -2130)">
    <g id="Rechteck_9" data-name="Rechteck 9" transform="translate(505 2130)" fill="none" stroke="#8c8179" stroke-width="3">
      <rect width="113" height="113" rx="5" stroke="none"/>
      <rect x="1.5" y="1.5" width="110" height="110" rx="3.5" fill="none"/>
    </g>
    <path id="Pfad_32" data-name="Pfad 32" d="M85.123,191.172H81.33V181.057a1.264,1.264,0,0,0-1.264-1.264H68.687a1.264,1.264,0,0,0-1.264,1.264v5.057H63.63a1.264,1.264,0,0,0-1.264,1.264v3.793H59.408a4.385,4.385,0,0,0,.428-1.9V184.85a1.264,1.264,0,0,0-1.264-1.264H50.986a1.264,1.264,0,0,0-1.264,1.264v4.425a4.385,4.385,0,0,0,.428,1.9H33.286v-8.85a1.264,1.264,0,0,0-1.264-1.264H28.229v-1.264a3.793,3.793,0,1,0-7.586,0v1.264H16.85a1.264,1.264,0,0,0-1.264,1.264v8.85H9.264A1.264,1.264,0,0,0,8,192.436v3.793a1.264,1.264,0,0,0,1.264,1.264h6.094l-4.812,28.87a1.265,1.265,0,0,0,1.247,1.473h3.793a1.264,1.264,0,0,0,1.237-1.007l4.8-23.048a1.266,1.266,0,0,0,.281.033H72.48a1.266,1.266,0,0,0,.281-.033l4.8,23.048a1.264,1.264,0,0,0,1.237,1.007h3.793a1.265,1.265,0,0,0,1.264-1.267,1.251,1.251,0,0,0-.017-.206l-4.812-28.87h6.094a1.264,1.264,0,0,0,1.264-1.264v-3.793A1.264,1.264,0,0,0,85.123,191.172Zm-15.172-8.85H78.8v8.85h-8.85Zm-5.057,6.322h2.529v2.529H64.894Zm-12.643-2.529h5.057v3.161a1.9,1.9,0,0,1-1.9,1.9H54.147a1.9,1.9,0,0,1-1.9-1.9Zm-29.079-6.322a1.264,1.264,0,0,1,2.529,0v1.264H23.172Zm-5.057,3.793h2.529v1.264a1.264,1.264,0,0,0,2.529,0v-1.264H25.7v1.264a1.264,1.264,0,0,0,2.529,0v-1.264h2.529v7.586H18.114Zm-3.556,41.722H13.285l4.637-27.815h2.431Zm7.587-24.022.79-3.793H71.451l.79,3.793ZM81.1,225.308H79.828l-5.794-27.815h2.431Zm2.756-30.343H10.529V193.7h73.33Z" transform="translate(515.414 1996.588)" fill="#8c8179"/>
    <path id="Pfad_33" data-name="Pfad 33" d="M107.008,19.379h-3.793v-8.85a1.264,1.264,0,0,0-1.264-1.264H91.837a1.264,1.264,0,0,0-1.264,1.264v8.85H71.179a4.385,4.385,0,0,0,.428-1.9V13.057a1.264,1.264,0,0,0-1.264-1.264H62.758a1.264,1.264,0,0,0-1.264,1.264v4.425a4.385,4.385,0,0,0,.428,1.9H60.229V9.264A1.264,1.264,0,0,0,58.965,8H43.793a1.264,1.264,0,0,0-1.264,1.264V19.379H41.264A1.264,1.264,0,0,0,40,20.643v3.793A1.264,1.264,0,0,0,41.264,25.7h65.744a1.264,1.264,0,0,0,1.264-1.264V20.643A1.264,1.264,0,0,0,107.008,19.379ZM93.1,11.793h7.586v1.264H93.1Zm0,3.793h7.586v3.793H93.1ZM64.022,14.322h5.057v3.161a1.9,1.9,0,0,1-1.9,1.9H65.918a1.9,1.9,0,0,1-1.9-1.9Zm-8.85-3.793H57.7v8.85H55.172Zm-5.057,0h2.529v8.85H50.114Zm-5.057,0h2.529v8.85H45.057Zm60.687,12.643H42.529V21.907h63.215Z" transform="translate(488.472 2138.037)" fill="#8c8179"/>
  </g>
</svg>
