<svg xmlns="http://www.w3.org/2000/svg" width="113" height="113" viewBox="0 0 113 113">
  <g id="Gruppe_43" data-name="Gruppe 43" transform="translate(-0.382 -0.421)">
    <g id="Rechteck_9" data-name="Rechteck 9" transform="translate(0.382 0.421)" fill="none" stroke="#8c8179" stroke-width="3">
      <rect width="113" height="113" rx="5" stroke="none"/>
      <rect x="1.5" y="1.5" width="110" height="110" rx="3.5" fill="none"/>
    </g>
    <g id="Gruppe_42" data-name="Gruppe 42" transform="translate(24.403 16.432)">
      <path id="Icon_awesome-users" data-name="Icon awesome-users" d="M8.4,19.052a5.6,5.6,0,1,0-5.6-5.6A5.606,5.606,0,0,0,8.4,19.052Zm39.2,0a5.6,5.6,0,1,0-5.6-5.6A5.606,5.606,0,0,0,47.606,19.052Zm2.8,2.8h-5.6a5.584,5.584,0,0,0-3.947,1.628,12.8,12.8,0,0,1,6.572,9.574h5.776a2.8,2.8,0,0,0,2.8-2.8v-2.8A5.606,5.606,0,0,0,50.406,21.852Zm-22.4,0a9.8,9.8,0,1,0-9.8-9.8A9.8,9.8,0,0,0,28,21.852Zm6.721,2.8H34a13.532,13.532,0,0,1-11.989,0h-.726A10.084,10.084,0,0,0,11.2,34.734v2.52a4.2,4.2,0,0,0,4.2,4.2H40.6a4.2,4.2,0,0,0,4.2-4.2v-2.52A10.084,10.084,0,0,0,34.724,24.653ZM15.148,23.48A5.584,5.584,0,0,0,11.2,21.852H5.6a5.606,5.606,0,0,0-5.6,5.6v2.8a2.8,2.8,0,0,0,2.8,2.8H8.567A12.833,12.833,0,0,1,15.148,23.48Z" transform="translate(5.213 40.451)" fill="#8c8179"/>
      <g id="Gruppe_36" data-name="Gruppe 36" transform="translate(0 0)">
        <path id="Pfad_62" data-name="Pfad 62" d="M230.818,60a4.818,4.818,0,1,0,4.818,4.818A4.824,4.824,0,0,0,230.818,60Zm0,6.424a1.606,1.606,0,1,1,1.606-1.606A1.608,1.608,0,0,1,230.818,66.424Z" transform="translate(-197.09 -50.363)" fill="#8c8179" stroke="#8c8179" stroke-width="1"/>
        <path id="Pfad_63" data-name="Pfad 63" d="M146,64.818A4.818,4.818,0,1,0,150.818,60,4.824,4.824,0,0,0,146,64.818Zm6.424,0a1.606,1.606,0,1,1-1.606-1.606A1.608,1.608,0,0,1,152.424,64.818Z" transform="translate(-129.939 -50.363)" fill="#8c8179" stroke="#8c8179" stroke-width="1"/>
        <path id="Pfad_64" data-name="Pfad 64" d="M315.637,64.818a4.818,4.818,0,1,0-4.818,4.818A4.824,4.824,0,0,0,315.637,64.818Zm-6.424,0a1.606,1.606,0,1,1,1.606,1.606A1.608,1.608,0,0,1,309.212,64.818Z" transform="translate(-264.241 -50.363)" fill="#8c8179" stroke="#8c8179" stroke-width="1"/>
        <ellipse id="Ellipse_2" data-name="Ellipse 2" cx="2" cy="1.5" rx="2" ry="1.5" transform="translate(30.979 -0.011)" fill="#8c8179" stroke="#8c8179" stroke-width="1"/>
        <path id="Pfad_65" data-name="Pfad 65" d="M81.468,26.664l-1.739,4-1.739-4a1.606,1.606,0,0,0-1.473-.966H60.455a11.243,11.243,0,0,1,0-22.486H72.5A1.606,1.606,0,0,0,72.5,0H60.455a14.455,14.455,0,0,0,0,28.91H75.463l2.792,6.422a1.606,1.606,0,0,0,2.946,0l2.792-6.422H99A14.455,14.455,0,1,0,99,0H86.956a1.606,1.606,0,1,0,0,3.212H99A11.243,11.243,0,0,1,99,25.7H82.941a1.606,1.606,0,0,0-1.473.966Z" transform="translate(-46 0)" fill="#8c8179" stroke="#8c8179" stroke-width="1"/>
      </g>
    </g>
  </g>
</svg>
