<svg xmlns="http://www.w3.org/2000/svg" width="112" height="113" viewBox="0 0 112 113">
  <g id="Gruppe_397" data-name="Gruppe 397" transform="translate(-666 -2130)">
    <g id="Rechteck_9" data-name="Rechteck 9" transform="translate(666 2130)" fill="none" stroke="#8c8179" stroke-width="3">
      <rect width="112" height="113" rx="5" stroke="none"/>
      <rect x="1.5" y="1.5" width="109" height="110" rx="3.5" fill="none"/>
    </g>
    <path id="Pfad_59" data-name="Pfad 59" d="M263.573,37.551l-4.719-1.573-.491-1.228a2.83,2.83,0,0,0-2.64-1.787h-.77l-.614-2.456a4.259,4.259,0,0,0-4.136-3.228h-.623v-3.1a4.264,4.264,0,1,0-2.842,0v3.1h-.623a4.259,4.259,0,0,0-4.136,3.23l-.614,2.455h-.77a2.829,2.829,0,0,0-2.639,1.787l-.491,1.227-4.72,1.573A12.772,12.772,0,0,0,224,49.684v1.754a4.268,4.268,0,0,0,4.263,4.263h4.263v2.243a12.751,12.751,0,0,0,2.149,7.1l.327.49a9.91,9.91,0,0,1,.837,9.507l-5.592,12.782,2.6,1.138,5.592-12.782a12.739,12.739,0,0,0-1.076-12.223l-.327-.49a9.916,9.916,0,0,1-1.671-5.518V54.616A29.733,29.733,0,0,1,237.5,43.533l3.092-7.727h15.129l3.091,7.727a29.719,29.719,0,0,1,2.135,11.083v3.328a9.913,9.913,0,0,1-1.67,5.517l-.329.493a12.738,12.738,0,0,0-1.076,12.221L264.141,90.5a12.726,12.726,0,0,1,1.072,5.127v5.554h2.842V95.623a15.527,15.527,0,0,0-1.311-6.265l-6.266-14.322a9.909,9.909,0,0,1,.836-9.505l.329-.493a12.749,12.749,0,0,0,2.148-7.094V55.7h4.263a4.268,4.268,0,0,0,4.263-4.263V49.684A12.772,12.772,0,0,0,263.573,37.551Zm-15.414-18.8a1.421,1.421,0,1,1-1.421,1.421A1.421,1.421,0,0,1,248.159,18.752Zm-13.3,23.726a32.522,32.522,0,0,0-2.254,10.381h-4.346a1.423,1.423,0,0,1-1.421-1.421V49.684a9.936,9.936,0,0,1,6.8-9.437l2.437-.813Zm9.872-11.28a1.419,1.419,0,0,1,1.379-1.077H250.2a1.419,1.419,0,0,1,1.379,1.076l.441,1.767h-7.729Zm24.74,20.24a1.423,1.423,0,0,1-1.421,1.421h-4.346a32.5,32.5,0,0,0-2.255-10.381l-1.218-3.044,2.437.813a9.936,9.936,0,0,1,6.8,9.437Z" transform="translate(489.923 2125.632)" fill="#8c8179"/>
    <path id="Pfad_60" data-name="Pfad 60" d="M52.949,280.686H35.9V267.9h5.828a7.126,7.126,0,0,0,5.541,5.541v4.407h2.842v-4.407a7.118,7.118,0,0,0,5.685-6.962v-12.79a4.268,4.268,0,0,0-4.263-4.263H45.844a4.268,4.268,0,0,0-4.263,4.263H33.054V248H30.211v5.685H24.527V248H21.685v5.685H20.263A4.268,4.268,0,0,0,16,257.948v5.685a4.268,4.268,0,0,0,4.263,4.263v12.79A4.268,4.268,0,0,0,16,284.949v2.842a4.268,4.268,0,0,0,4.263,4.263H52.949a4.268,4.268,0,0,0,4.263-4.263v-2.842A4.268,4.268,0,0,0,52.949,280.686Zm-7.106-28.423h5.685a1.423,1.423,0,0,1,1.421,1.421v12.79a4.263,4.263,0,1,1-8.527,0v-12.79A1.423,1.423,0,0,1,45.844,252.263Zm-27,11.369v-5.685a1.422,1.422,0,0,1,1.421-1.421H41.58v8.527H20.263A1.423,1.423,0,0,1,18.842,263.632Zm4.263,4.263h9.948v12.79H23.106Zm31.265,19.9a1.423,1.423,0,0,1-1.421,1.421H20.263a1.423,1.423,0,0,1-1.421-1.421v-2.842a1.423,1.423,0,0,1,1.421-1.421H52.949a1.423,1.423,0,0,1,1.421,1.421Z" transform="translate(660.974 1934.754)" fill="#8c8179"/>
  </g>
</svg>
