<svg xmlns="http://www.w3.org/2000/svg" width="114" height="113" viewBox="0 0 114 113">
  <g id="Gruppe_394" data-name="Gruppe 394" transform="translate(-908 -1914)">
    <g id="Rechteck_9" data-name="Rechteck 9" transform="translate(908 1914)" fill="none" stroke="#8c8179" stroke-width="3">
      <rect width="114" height="113" rx="5" stroke="none"/>
      <rect x="1.5" y="1.5" width="111" height="110" rx="3.5" fill="none"/>
    </g>
    <path id="Pfad_34" data-name="Pfad 34" d="M186.349,16H142.455A6.462,6.462,0,0,0,136,22.455V68.93h2.582V22.455a3.878,3.878,0,0,1,3.873-3.873h43.894a3.878,3.878,0,0,1,3.873,3.873V87a3.878,3.878,0,0,1-3.873,3.873H142.455A3.878,3.878,0,0,1,138.582,87V76.676H136V87a6.462,6.462,0,0,0,6.455,6.455h43.894A6.462,6.462,0,0,0,192.8,87V22.455A6.462,6.462,0,0,0,186.349,16Z" transform="translate(808.848 1914.99)" fill="#8c8179"/>
    <path id="Pfad_35" data-name="Pfad 35" d="M168,108.676a1.291,1.291,0,0,0,1.291,1.291h43.894a1.291,1.291,0,0,0,1.291-1.291V49.291A1.291,1.291,0,0,0,213.185,48H169.291A1.291,1.291,0,0,0,168,49.291V95.767h2.582V50.582h41.312v56.8H170.582v-3.873H168Z" transform="translate(782.012 1888.154)" fill="#8c8179"/>
    <path id="Pfad_36" data-name="Pfad 36" d="M272,448h12.91v2.582H272Z" transform="translate(694.795 1552.704)" fill="#8c8179"/>
    <path id="Pfad_37" data-name="Pfad 37" d="M37.028,65.012a1.344,1.344,0,0,0-2.31,0l-2.582,5.164a1.278,1.278,0,0,0-.137.577v5.164h2.582V71.058l1.291-2.582,1.291,2.582v51.335H34.582V78.5H32v51.64a3.873,3.873,0,1,0,7.746,0V70.753a1.294,1.294,0,0,0-.136-.577ZM35.873,131.43a1.292,1.292,0,0,1-1.291-1.291v-5.164h2.582v5.164A1.292,1.292,0,0,1,35.873,131.43Z" transform="translate(896.065 1874.438)" fill="#8c8179"/>
    <path id="Pfad_38" data-name="Pfad 38" d="M50.582,16H49.291A1.291,1.291,0,0,0,48,17.291v1.291h2.582Z" transform="translate(882.647 1914.99)" fill="#8c8179"/>
    <path id="Pfad_39" data-name="Pfad 39" d="M104,196.448h2.582v2.524H104Z" transform="translate(835.684 1763.662)" fill="#8c8179"/>
    <path id="Pfad_40" data-name="Pfad 40" d="M104,102.624h2.582v2.524H104Z" transform="translate(835.684 1842.345)" fill="#8c8179"/>
    <path id="Pfad_41" data-name="Pfad 41" d="M104,133.9h2.582v2.524H104Z" transform="translate(835.684 1816.12)" fill="#8c8179"/>
    <path id="Pfad_42" data-name="Pfad 42" d="M104,71.352h2.582v2.523H104Z" transform="translate(835.684 1868.571)" fill="#8c8179"/>
    <path id="Pfad_43" data-name="Pfad 43" d="M104,165.168h2.582v2.524H104Z" transform="translate(835.684 1789.894)" fill="#8c8179"/>
    <path id="Pfad_44" data-name="Pfad 44" d="M106.582,322.586v-1.042H104v1.042a7.732,7.732,0,0,0,.2,1.761l2.515-.585A5.182,5.182,0,0,1,106.582,322.586Z" transform="translate(835.684 1658.753)" fill="#8c8179"/>
    <path id="Pfad_45" data-name="Pfad 45" d="M78.1,19.393a5.081,5.081,0,0,1,1.853.755l1.425-2.153a7.675,7.675,0,0,0-2.79-1.139Z" transform="translate(857.408 1914.272)" fill="#8c8179"/>
    <path id="Pfad_46" data-name="Pfad 46" d="M100.589,36.976l-2.133,1.455a5.146,5.146,0,0,1,.786,1.844l2.528-.529A7.7,7.7,0,0,0,100.589,36.976Z" transform="translate(840.334 1897.399)" fill="#8c8179"/>
    <path id="Pfad_47" data-name="Pfad 47" d="M115.036,346.592l-2.1,1.5a7.723,7.723,0,0,0,2.188,2.06l1.372-2.186A5.19,5.19,0,0,1,115.036,346.592Z" transform="translate(828.19 1637.747)" fill="#8c8179"/>
    <path id="Pfad_48" data-name="Pfad 48" d="M104,259h2.582v2.523H104Z" transform="translate(835.684 1711.204)" fill="#8c8179"/>
    <path id="Pfad_49" data-name="Pfad 49" d="M104,227.72h2.582v2.524H104Z" transform="translate(835.684 1737.436)" fill="#8c8179"/>
    <path id="Pfad_50" data-name="Pfad 50" d="M104,290.272h2.582v2.523H104Z" transform="translate(835.684 1684.979)" fill="#8c8179"/>
    <path id="Pfad_51" data-name="Pfad 51" d="M176.512,360h2.524v2.582h-2.524Z" transform="translate(774.874 1626.503)" fill="#8c8179"/>
    <path id="Pfad_52" data-name="Pfad 52" d="M146.676,362.2v-2.582h-1.432a5.227,5.227,0,0,1-.873-.074l-.427,2.547a7.867,7.867,0,0,0,1.3.108Z" transform="translate(802.186 1626.885)" fill="#8c8179"/>
    <path id="Pfad_53" data-name="Pfad 53" d="M208,360h2.582v2.582H208Z" transform="translate(748.467 1626.503)" fill="#8c8179"/>
    <path id="Pfad_54" data-name="Pfad 54" d="M235.365,96h-9.037a3.878,3.878,0,0,0-3.873,3.873V104.5l-6.075,6.075a1.284,1.284,0,0,0-.38.914V134.73a1.291,1.291,0,0,0,1.291,1.291h23.238a1.26,1.26,0,0,0,.762-.276l.013.018,5.164-3.873a1.288,1.288,0,0,0,.516-1.033V115.365H244.4v14.846l-2.582,1.936V111.492a1.282,1.282,0,0,0-.1-.478h0l-.009-.023-1.312-3.279,4,2v3.075h2.582V108.91a1.292,1.292,0,0,0-.714-1.155l-7.032-3.515V99.873A3.878,3.878,0,0,0,235.365,96Zm-10.706,9.95a1.286,1.286,0,0,0,.378-.913V99.873a1.292,1.292,0,0,1,1.291-1.291h9.037a1.292,1.292,0,0,1,1.291,1.291v5.164a1.3,1.3,0,0,0,.092.479l1.874,4.685H220.407Zm14.579,15.87H218.582v-9.037h20.656Zm-20.656,11.619V124.4h20.656v9.037Z" transform="translate(741.758 1847.9)" fill="#8c8179"/>
    <path id="Pfad_55" data-name="Pfad 55" d="M288,128h6.455v2.582H288Z" transform="translate(681.377 1821.064)" fill="#8c8179"/>
    <path id="Pfad_56" data-name="Pfad 56" d="M390.455,81.291A1.291,1.291,0,0,0,389.164,80H384v2.582h3.873v3.873h2.582Z" transform="translate(600.869 1861.318)" fill="#8c8179"/>
    <path id="Pfad_57" data-name="Pfad 57" d="M200,81.291v5.164h2.582V82.582h3.873V80h-5.164A1.291,1.291,0,0,0,200,81.291Z" transform="translate(755.176 1861.318)" fill="#8c8179"/>
    <path id="Pfad_58" data-name="Pfad 58" d="M387.873,339.873H384v2.582h5.164a1.291,1.291,0,0,0,1.291-1.291V336h-2.582Z" transform="translate(600.869 1646.63)" fill="#8c8179"/>
  </g>
</svg>
