<svg xmlns="http://www.w3.org/2000/svg" width="113" height="113" viewBox="0 0 113 113">
  <g id="Gruppe_393" data-name="Gruppe 393" transform="translate(-744 -1914)">
    <g id="Rechteck_9" data-name="Rechteck 9" transform="translate(744 1914)" fill="none" stroke="#8c8179" stroke-width="3">
      <rect width="113" height="113" rx="5" stroke="none"/>
      <rect x="1.5" y="1.5" width="110" height="110" rx="3.5" fill="none"/>
    </g>
    <g id="Gruppe_37" data-name="Gruppe 37" transform="translate(762.794 1930.503)">
      <path id="Pfad_66" data-name="Pfad 66" d="M73.789,10.925H41.924L39.365,8.366a2.965,2.965,0,0,0-4.188,0l-.236.237a17,17,0,0,0-3.163-1.311V6.958A2.961,2.961,0,0,0,28.82,4H24.783a2.961,2.961,0,0,0-2.958,2.958v.337a17,17,0,0,0-3.163,1.311l-.238-.239a2.965,2.965,0,0,0-4.186,0l-2.558,2.559H3.966A3.971,3.971,0,0,0,0,14.891V59.644A3.971,3.971,0,0,0,3.966,63.61H26.072l-3.061,6.206h-2.49a5.368,5.368,0,0,0-5.362,5.362v3.844a1.519,1.519,0,0,0,1.519,1.519H71.863c3.249,0,5.892-2.918,5.892-6.5V14.891a3.971,3.971,0,0,0-3.966-3.966ZM12.962,20.659a14.1,14.1,0,0,1,1.844-4.447,1.519,1.519,0,0,0-.207-1.884l-1.012-1.016,2.743-2.743,1.007,1.012a1.519,1.519,0,0,0,1.888.212,14,14,0,0,1,4.448-1.843,1.519,1.519,0,0,0,1.188-1.482V7.037h3.879V8.466a1.519,1.519,0,0,0,1.188,1.482,14,14,0,0,1,4.448,1.843,1.519,1.519,0,0,0,1.888-.212l1.008-1.012,2.743,2.743L39,14.327a1.519,1.519,0,0,0-.207,1.884,14.1,14.1,0,0,1,1.844,4.447,1.519,1.519,0,0,0,1.481,1.184h1.429v3.879H42.122a1.519,1.519,0,0,0-1.481,1.184A14.108,14.108,0,0,1,38.8,31.358,1.519,1.519,0,0,0,39,33.241l1.01,1.014L37.273,37l-1.01-1.01a1.519,1.519,0,0,0-1.886-.209,14,14,0,0,1-4.448,1.843A1.519,1.519,0,0,0,28.741,39.1v1.429H24.862V39.1a1.519,1.519,0,0,0-1.188-1.482,14,14,0,0,1-4.448-1.843,1.519,1.519,0,0,0-1.886.209L16.331,37,13.59,34.255l1.01-1.014a1.519,1.519,0,0,0,.207-1.884,14.115,14.115,0,0,1-1.844-4.452,1.519,1.519,0,0,0-1.481-1.184H10.052V21.843h1.429a1.519,1.519,0,0,0,1.481-1.184ZM3.037,59.644v-3.32H48.48v4.249H3.966a.93.93,0,0,1-.929-.929ZM29.459,63.61H48.481v6.206H26.4ZM18.2,75.178a2.328,2.328,0,0,1,2.325-2.325H48.48v1.183a6.965,6.965,0,0,0,.91,3.467H18.2V75.178Zm56.522-1.142c0,1.879-1.307,3.467-2.855,3.467H54.373c-1.548,0-2.855-1.588-2.855-3.467v-36.3c0-1.879,1.307-3.467,2.855-3.467h1.562v3.415A3.019,3.019,0,0,0,58.953,40.7h8.329A3.019,3.019,0,0,0,70.3,37.685V34.27h1.562c1.548,0,2.855,1.588,2.855,3.467ZM58.972,37.662V34.27h8.291v3.392ZM74.718,32.05a5.43,5.43,0,0,0-2.855-.817H54.373c-3.249,0-5.892,2.918-5.892,6.5V53.287H3.037v-38.4a.941.941,0,0,1,.929-.929H10.6a2.926,2.926,0,0,0,.788,1.44l.24.241a17.1,17.1,0,0,0-1.312,3.163H9.977a2.966,2.966,0,0,0-2.962,2.962V25.8a2.963,2.963,0,0,0,2.962,2.958h.334a17.1,17.1,0,0,0,1.312,3.167l-.238.239a2.96,2.96,0,0,0,0,4.181L14.238,39.2a2.963,2.963,0,0,0,4.186,0l.236-.236a17.013,17.013,0,0,0,3.165,1.312v.337a2.961,2.961,0,0,0,2.958,2.958H28.82a2.961,2.961,0,0,0,2.958-2.958v-.337a17,17,0,0,0,3.165-1.312l.236.236a2.964,2.964,0,0,0,4.186,0l2.852-2.852a2.96,2.96,0,0,0,0-4.18l-.24-.241a17.12,17.12,0,0,0,1.312-3.167h.334A2.963,2.963,0,0,0,46.589,25.8V21.768a2.966,2.966,0,0,0-2.962-2.962h-.334a17.09,17.09,0,0,0-1.312-3.163l.238-.239a2.93,2.93,0,0,0,.789-1.443H73.789a.941.941,0,0,1,.929.929V32.05Z" transform="translate(0 -4)" fill="#8c8179"/>
      <path id="Pfad_67" data-name="Pfad 67" d="M117.379,85.767a10.58,10.58,0,1,0-10.58-10.58A10.595,10.595,0,0,0,117.379,85.767Zm0-18.124a7.543,7.543,0,1,1-7.543,7.543A7.554,7.554,0,0,1,117.379,67.643Z" transform="translate(-90.58 -55.402)" fill="#8c8179"/>
    </g>
  </g>
</svg>
