<svg xmlns="http://www.w3.org/2000/svg" width="114" height="113" viewBox="0 0 114 113">
  <g id="Gruppe_398" data-name="Gruppe 398" transform="translate(-822 -2130)">
    <g id="Rechteck_9" data-name="Rechteck 9" transform="translate(822 2130)" fill="none" stroke="#8c8179" stroke-width="3">
      <rect width="114" height="113" rx="5" stroke="none"/>
      <rect x="1.5" y="1.5" width="111" height="110" rx="3.5" fill="none"/>
    </g>
    <path id="Pfad_70" data-name="Pfad 70" d="M215.376,25.688a9.688,9.688,0,1,0-9.688,9.688A9.7,9.7,0,0,0,215.376,25.688Zm-9.688,6.459a6.459,6.459,0,1,1,6.459-6.459A6.466,6.466,0,0,1,205.688,32.146Z" transform="translate(673.9 2130.003)" fill="#8c8179"/>
    <path id="Pfad_71" data-name="Pfad 71" d="M195.063,156.99v-6.458a14.532,14.532,0,1,0-29.063,0v6.458a1.615,1.615,0,0,0,1.615,1.615h25.834A1.615,1.615,0,0,0,195.063,156.99Zm-3.229-1.615h-22.6v-4.844a11.3,11.3,0,1,1,22.6,0Z" transform="translate(699.056 2029.379)" fill="#8c8179"/>
    <path id="Pfad_72" data-name="Pfad 72" d="M11.6,163.166l7.773,3.886v8.69a1.615,1.615,0,0,0,1.615,1.615H38.105a1.615,1.615,0,0,0,1.615-1.615V155.2A10.037,10.037,0,0,0,31.1,145.121c-.128-.024-6.24-.48-9.2-3.432l-4.421-4.421a6.415,6.415,0,0,0-4.566-1.892V122.459a6.459,6.459,0,1,0-12.917,0v21.933a20.992,20.992,0,0,0,11.6,18.774ZM3.229,122.459a3.229,3.229,0,0,1,6.459,0v13.783A6.457,6.457,0,0,0,8.351,146.4l8.269,8.27a1.615,1.615,0,0,0,2.284-2.283l-8.269-8.27a3.229,3.229,0,0,1,1.206-5.328h0a3.225,3.225,0,0,1,3.358.763l4.421,4.421c3.011,3.009,7.4,3.856,11.114,4.357l.018,0a6.778,6.778,0,0,1,5.737,6.868v18.927H22.6v-8.073a1.615,1.615,0,0,0-.893-1.444l-8.666-4.332a17.665,17.665,0,0,1-9.817-15.886Z" transform="translate(838.253 2046.15)" fill="#8c8179"/>
    <circle id="Ellipse_3" data-name="Ellipse 3" cx="2.5" cy="2.5" r="2.5" transform="translate(910 2203)" fill="#8c8179"/>
    <path id="Pfad_73" data-name="Pfad 73" d="M299.261,116a6.466,6.466,0,0,0-6.459,6.459v12.917a6.415,6.415,0,0,0-4.566,1.892l-4.42,4.42c-2.577,2.575-6.757,3-9.2,3.433A10.037,10.037,0,0,0,266,155.2v20.541a1.615,1.615,0,0,0,1.615,1.615H284.73a1.615,1.615,0,0,0,1.615-1.615v-8.69l5.285-2.642a1.615,1.615,0,0,0-1.444-2.889l-6.177,3.088a1.615,1.615,0,0,0-.893,1.444v8.073H269.229V155.2a6.778,6.778,0,0,1,5.737-6.868l.018,0c3.772-.509,8.106-1.351,11.115-4.358l4.421-4.421a3.226,3.226,0,0,1,3.358-.763h0a3.229,3.229,0,0,1,1.206,5.328l-8.269,8.27a1.615,1.615,0,0,0,2.284,2.283l8.268-8.27a6.457,6.457,0,0,0-1.337-10.159V122.459a3.229,3.229,0,1,1,6.459,0v21.933a17.808,17.808,0,0,1-2.156,8.481,1.615,1.615,0,0,0,2.837,1.542,21.047,21.047,0,0,0,2.548-10.024V122.459A6.466,6.466,0,0,0,299.261,116Z" transform="translate(615.203 2046.15)" fill="#8c8179"/>
  </g>
</svg>
