<svg xmlns="http://www.w3.org/2000/svg" width="27.722" height="27.716" viewBox="0 0 27.722 27.716">
  <path id="Icon_awesome-instagram" data-name="Icon awesome-instagram" d="M13.859,8.99A7.106,7.106,0,1,0,20.965,16.1,7.095,7.095,0,0,0,13.859,8.99Zm0,11.726a4.62,4.62,0,1,1,4.62-4.62,4.628,4.628,0,0,1-4.62,4.62ZM22.913,8.7a1.657,1.657,0,1,1-1.657-1.657A1.654,1.654,0,0,1,22.913,8.7Zm4.706,1.682a8.2,8.2,0,0,0-2.239-5.807,8.256,8.256,0,0,0-5.807-2.239c-2.288-.13-9.147-.13-11.435,0A8.244,8.244,0,0,0,2.331,4.568,8.229,8.229,0,0,0,.092,10.375c-.13,2.288-.13,9.147,0,11.435a8.2,8.2,0,0,0,2.239,5.807,8.267,8.267,0,0,0,5.807,2.239c2.288.13,9.147.13,11.435,0a8.2,8.2,0,0,0,5.807-2.239,8.256,8.256,0,0,0,2.239-5.807c.13-2.288.13-9.141,0-11.429ZM24.663,24.265A4.677,4.677,0,0,1,22.029,26.9c-1.824.724-6.154.557-8.17.557s-6.351.161-8.17-.557a4.677,4.677,0,0,1-2.635-2.635C2.331,22.441,2.5,18.112,2.5,16.1s-.161-6.351.557-8.17A4.677,4.677,0,0,1,5.689,5.291c1.824-.724,6.154-.557,8.17-.557s6.351-.161,8.17.557a4.677,4.677,0,0,1,2.635,2.635c.724,1.824.557,6.154.557,8.17S25.387,22.447,24.663,24.265Z" transform="translate(0.005 -2.238)" fill="#e9dbbb"/>
</svg>
