<svg xmlns="http://www.w3.org/2000/svg" width="27.707" height="27.706" viewBox="0 0 27.707 27.706">
  <path id="Icon_awesome-linkedin-in" data-name="Icon awesome-linkedin-in" d="M6.2,27.707H.458V9.209H6.2ZM3.327,6.686A3.342,3.342,0,1,1,6.653,3.327,3.355,3.355,0,0,1,3.327,6.686ZM27.7,27.707H21.969v-9c0-2.146-.043-4.9-2.986-4.9-2.986,0-3.444,2.332-3.444,4.744v9.159H9.8V9.209h5.509v2.523h.08a6.036,6.036,0,0,1,5.435-2.987c5.813,0,6.882,3.828,6.882,8.8V27.707Z" transform="translate(0 0)" fill="#e9dbbb"/>
</svg>
