<svg xmlns="http://www.w3.org/2000/svg" width="32.922" height="31.093" viewBox="0 0 32.922 31.093">
  <g id="Gruppe_399" data-name="Gruppe 399" transform="translate(-18.737 -19.907)">
    <g id="Gruppe_1" data-name="Gruppe 1" transform="translate(19.414 22.151)">
      <path id="Pfad_1" data-name="Pfad 1" d="M-48.807-144.091-57.686-170.3h4.2l6.779,20.013Z" transform="translate(57.686 170.305)" fill="#e5d7b6"/>
    </g>
    <g id="Gruppe_2" data-name="Gruppe 2" transform="translate(32.97 22.151)">
      <path id="Pfad_2" data-name="Pfad 2" d="M-11.55-34.1l-2.1-6.2h4.2Z" transform="translate(13.651 40.301)" fill="#e5d7b6"/>
    </g>
    <g id="Gruppe_3" data-name="Gruppe 3" transform="translate(32.221 19.939)">
      <path id="Pfad_3" data-name="Pfad 3" d="M0-.355.161.123.352.058.191-.419ZM.37.743l.161.477.191-.064L.561.678ZM2.961,8.426l.161.477.191-.064-.161-.477Zm.37,1.1L3.492,10l.191-.064-.161-.477Zm.37,1.1.161.477.191-.065-.161-.477Zm.37,1.1.161.477.191-.064-.161-.477Zm.37,1.1.161.477.191-.064-.161-.477Zm.37,1.1.161.477.191-.064L5,13.849Zm.37,1.1.161.477.191-.064-.161-.477Zm.37,1.1.161.477.191-.064-.161-.477Zm.37,1.1.161.477.191-.064-.161-.477Zm.37,1.1.161.477.191-.065-.161-.477Zm.37,1.1.161.477.191-.064-.161-.477Zm.37,1.1.161.477.191-.064-.161-.477Zm.37,1.1.161.477.191-.064-.161-.477Zm.37,1.1.161.477.191-.064-.161-.477Zm.37,1.1.161.477.191-.064-.161-.477Zm.37,1.1.161.477.191-.064L8.7,24.825Zm.37,1.1.161.477.191-.064-.161-.477Zm.37,1.1.161.477L9.6,27.5l-.161-.477Zm.37,1.1.161.477.191-.064-.161-.477Zm.37,1.1.161.477.191-.064-.161-.477Z" transform="translate(0 0.419)" fill="#e5d7b6"/>
    </g>
    <g id="Gruppe_4" data-name="Gruppe 4" transform="translate(19.107 21.021)">
      <path id="Pfad_4" data-name="Pfad 4" d="M-.885-2.978l-.161-.477.191-.064.161.477Z" transform="translate(1.046 3.52)" fill="#e5d7b6"/>
    </g>
    <g id="Gruppe_5" data-name="Gruppe 5" transform="translate(18.737 19.924)">
      <path id="Pfad_5" data-name="Pfad 5" d="M0-.355.161.123.352.058.191-.419Z" transform="translate(0 0.419)" fill="#e5d7b6"/>
    </g>
    <g id="Gruppe_6" data-name="Gruppe 6" transform="translate(30.491 40.761)">
      <path id="Pfad_6" data-name="Pfad 6" d="M-1.048-2.978l-.191-.064.161-.477.191.064Z" transform="translate(1.239 3.52)" fill="#e5d7b6"/>
    </g>
    <g id="Gruppe_7" data-name="Gruppe 7" transform="translate(30.861 39.663)">
      <path id="Pfad_7" data-name="Pfad 7" d="M-1.048-2.978l-.191-.064.161-.477.191.064Z" transform="translate(1.239 3.52)" fill="#e5d7b6"/>
    </g>
    <g id="Gruppe_8" data-name="Gruppe 8" transform="translate(31.231 38.566)">
      <path id="Pfad_8" data-name="Pfad 8" d="M-1.048-2.978l-.191-.064.161-.477.191.064Z" transform="translate(1.239 3.52)" fill="#e5d7b6"/>
    </g>
    <g id="Gruppe_9" data-name="Gruppe 9" transform="translate(31.602 37.468)">
      <path id="Pfad_9" data-name="Pfad 9" d="M-1.048-2.978l-.191-.064.161-.477.191.065Z" transform="translate(1.239 3.52)" fill="#e5d7b6"/>
    </g>
    <g id="Gruppe_10" data-name="Gruppe 10" transform="translate(31.972 36.371)">
      <path id="Pfad_10" data-name="Pfad 10" d="M-1.048-2.976l-.191-.064.161-.477.191.064Z" transform="translate(1.239 3.518)" fill="#e5d7b6"/>
    </g>
    <g id="Gruppe_11" data-name="Gruppe 11" transform="translate(32.342 35.273)">
      <path id="Pfad_11" data-name="Pfad 11" d="M-1.048-2.976l-.191-.064.161-.477.191.064Z" transform="translate(1.239 3.518)" fill="#e5d7b6"/>
    </g>
    <g id="Gruppe_12" data-name="Gruppe 12" transform="translate(32.712 34.175)">
      <path id="Pfad_12" data-name="Pfad 12" d="M-1.048-2.976l-.191-.064.161-.477.191.064Z" transform="translate(1.239 3.518)" fill="#e5d7b6"/>
    </g>
    <g id="Gruppe_13" data-name="Gruppe 13" transform="translate(33.082 33.078)">
      <path id="Pfad_13" data-name="Pfad 13" d="M-1.048-2.978l-.191-.064.161-.477.191.064Z" transform="translate(1.239 3.52)" fill="#e5d7b6"/>
    </g>
    <g id="Gruppe_14" data-name="Gruppe 14" transform="translate(33.452 31.98)">
      <path id="Pfad_14" data-name="Pfad 14" d="M-1.048-2.978l-.191-.064.161-.477.191.064Z" transform="translate(1.239 3.52)" fill="#e5d7b6"/>
    </g>
    <g id="Gruppe_15" data-name="Gruppe 15" transform="translate(33.822 30.883)">
      <path id="Pfad_15" data-name="Pfad 15" d="M-1.048-2.978l-.191-.064.161-.477.191.064Z" transform="translate(1.239 3.52)" fill="#e5d7b6"/>
    </g>
    <g id="Gruppe_16" data-name="Gruppe 16" transform="translate(34.192 29.785)">
      <path id="Pfad_16" data-name="Pfad 16" d="M-1.048-2.978l-.191-.064.161-.477.191.064Z" transform="translate(1.239 3.52)" fill="#e5d7b6"/>
    </g>
    <g id="Gruppe_17" data-name="Gruppe 17" transform="translate(34.562 28.687)">
      <path id="Pfad_17" data-name="Pfad 17" d="M-1.048-2.978l-.191-.064.161-.477.191.065Z" transform="translate(1.239 3.52)" fill="#e5d7b6"/>
    </g>
    <g id="Gruppe_18" data-name="Gruppe 18" transform="translate(37.153 21.004)">
      <path id="Pfad_18" data-name="Pfad 18" d="M-1.048-2.978l-.191-.064.161-.477.191.064Z" transform="translate(1.239 3.52)" fill="#e5d7b6"/>
    </g>
    <g id="Gruppe_19" data-name="Gruppe 19" transform="translate(37.523 19.907)">
      <path id="Pfad_19" data-name="Pfad 19" d="M-.886,0l-.161.477.191.064L-.7.064Z" transform="translate(1.047)" fill="#e5d7b6"/>
    </g>
    <g id="Gruppe_20" data-name="Gruppe 20" transform="translate(45.509 22.15)">
      <path id="Pfad_20" data-name="Pfad 20" d="M-10.71,0l-1.949,6.2h4.23L-6.509,0Z" transform="translate(12.659)" fill="#e5d7b6"/>
    </g>
    <g id="Gruppe_21" data-name="Gruppe 21" transform="translate(28.669 49.6)">
      <path id="Pfad_21" data-name="Pfad 21" d="M-.885-2.976l-.161-.477.191-.064.161.477Z" transform="translate(1.046 3.518)" fill="#e5d7b6"/>
    </g>
    <g id="Gruppe_22" data-name="Gruppe 22" transform="translate(28.299 48.502)">
      <path id="Pfad_22" data-name="Pfad 22" d="M-.885-2.978l-.161-.477.191-.064.161.477Z" transform="translate(1.046 3.52)" fill="#e5d7b6"/>
    </g>
    <g id="Gruppe_23" data-name="Gruppe 23" transform="translate(29.04 50.697)">
      <path id="Pfad_23" data-name="Pfad 23" d="M0-.355l.08.238L.271-.181.191-.419Z" transform="translate(0 0.419)" fill="#e5d7b6"/>
    </g>
    <g id="Gruppe_24" data-name="Gruppe 24" transform="translate(27.559 49.599)">
      <path id="Pfad_24" data-name="Pfad 24" d="M-1.048-2.978l-.191-.064.161-.477.191.064Z" transform="translate(1.239 3.52)" fill="#e5d7b6"/>
    </g>
    <g id="Gruppe_25" data-name="Gruppe 25" transform="translate(27.93 48.502)">
      <path id="Pfad_25" data-name="Pfad 25" d="M-1.048-2.976l-.191-.064.161-.477.191.064Z" transform="translate(1.239 3.518)" fill="#e5d7b6"/>
    </g>
    <g id="Gruppe_26" data-name="Gruppe 26" transform="translate(27.27 50.697)">
      <path id="Pfad_26" data-name="Pfad 26" d="M0-1.311l.191.064.081-.238L.081-1.549Z" transform="translate(0 1.549)" fill="#e5d7b6"/>
    </g>
    <g id="Gruppe_27" data-name="Gruppe 27" transform="translate(42.587 50.697)">
      <path id="Pfad_27" data-name="Pfad 27" d="M0-.355l.08.238L.271-.181.191-.419Z" transform="translate(0 0.419)" fill="#e5d7b6"/>
    </g>
  </g>
</svg>
