<svg xmlns="http://www.w3.org/2000/svg" width="164.713" height="155.563" viewBox="0 0 164.713 155.563">
  <g id="Gruppe_45" data-name="Gruppe 45" transform="translate(-654.246 -239)">
    <g id="Logo" transform="translate(654.246 239)">
      <g id="Gruppe_1" data-name="Gruppe 1" transform="translate(3.386 11.225)">
        <path id="Pfad_1" data-name="Pfad 1" d="M-13.261-39.151-57.686-170.3h21.017L-2.752-70.176Z" transform="translate(57.686 170.305)" fill="#e5d7b6"/>
      </g>
      <g id="Gruppe_2" data-name="Gruppe 2" transform="translate(71.21 11.225)">
        <path id="Pfad_2" data-name="Pfad 2" d="M-3.138-9.265-13.651-40.3H7.366Z" transform="translate(13.651 40.301)" fill="#e5d7b6"/>
      </g>
      <g id="Gruppe_3" data-name="Gruppe 3" transform="translate(67.46 0.159)">
        <path id="Pfad_3" data-name="Pfad 3" d="M0-.1.806,2.292l.953-.323L.953-.419ZM1.851,5.4l.806,2.387L3.61,7.46,2.8,5.072ZM14.813,43.834l.806,2.388.953-.323-.806-2.388Zm1.852,5.491.8,2.388.953-.322L17.619,49Zm1.851,5.492.8,2.388.954-.323-.8-2.387Zm1.851,5.491.8,2.388.954-.323-.8-2.388ZM22.219,65.8l.806,2.387.953-.322-.8-2.388Zm1.852,5.491.806,2.388.953-.323-.806-2.388Zm1.851,5.492.806,2.387.954-.323-.806-2.387Zm1.853,5.491.8,2.387.954-.322-.8-2.387Zm1.851,5.492.8,2.387.954-.323-.8-2.387Zm1.851,5.491.8,2.388.955-.323-.8-2.387Zm1.851,5.491.806,2.387.953-.322-.8-2.388Zm1.851,5.492.806,2.387.954-.322-.806-2.388Zm1.852,5.491.806,2.388.953-.323-.806-2.388Zm1.852,5.491.8,2.388.954-.323-.8-2.387Zm1.851,5.492.8,2.387.955-.322-.8-2.389Zm1.851,5.492.8,2.387.954-.323-.8-2.387Zm1.851,5.49.806,2.387.953-.323-.8-2.387Zm1.852,5.492.806,2.387.953-.323-.806-2.387Zm1.851,5.492.806,2.387.953-.323-.806-2.388ZM50,148.168l.8,2.389.954-.323-.8-2.388Z" transform="translate(0 0.419)" fill="#e5d7b6"/>
      </g>
      <g id="Gruppe_4" data-name="Gruppe 4" transform="translate(1.852 5.576)">
        <path id="Pfad_4" data-name="Pfad 4" d="M-.24-.809-1.046-3.2l.954-.323L.714-1.132Z" transform="translate(1.046 3.52)" fill="#e5d7b6"/>
      </g>
      <g id="Gruppe_5" data-name="Gruppe 5" transform="translate(0 0.085)">
        <path id="Pfad_5" data-name="Pfad 5" d="M0-.1.806,2.291l.954-.322L.954-.419Z" transform="translate(0 0.419)" fill="#e5d7b6"/>
      </g>
      <g id="Gruppe_6" data-name="Gruppe 6" transform="translate(58.807 104.334)">
        <path id="Pfad_6" data-name="Pfad 6" d="M-.285-.809l-.954-.323.8-2.388L.519-3.2Z" transform="translate(1.239 3.52)" fill="#e5d7b6"/>
      </g>
      <g id="Gruppe_7" data-name="Gruppe 7" transform="translate(60.658 98.843)">
        <path id="Pfad_7" data-name="Pfad 7" d="M-.285-.809l-.954-.323L-.433-3.52.521-3.2Z" transform="translate(1.239 3.52)" fill="#e5d7b6"/>
      </g>
      <g id="Gruppe_8" data-name="Gruppe 8" transform="translate(62.51 93.352)">
        <path id="Pfad_8" data-name="Pfad 8" d="M-.285-.809l-.954-.323L-.433-3.52.521-3.2Z" transform="translate(1.239 3.52)" fill="#e5d7b6"/>
      </g>
      <g id="Gruppe_9" data-name="Gruppe 9" transform="translate(64.361 87.86)">
        <path id="Pfad_9" data-name="Pfad 9" d="M-.285-.809l-.954-.323L-.433-3.52.521-3.2Z" transform="translate(1.239 3.52)" fill="#e5d7b6"/>
      </g>
      <g id="Gruppe_10" data-name="Gruppe 10" transform="translate(66.213 82.37)">
        <path id="Pfad_10" data-name="Pfad 10" d="M-.285-.809l-.954-.323.806-2.387L.521-3.2Z" transform="translate(1.239 3.518)" fill="#e5d7b6"/>
      </g>
      <g id="Gruppe_11" data-name="Gruppe 11" transform="translate(68.065 76.879)">
        <path id="Pfad_11" data-name="Pfad 11" d="M-.285-.809l-.954-.323.8-2.387L.52-3.2Z" transform="translate(1.239 3.518)" fill="#e5d7b6"/>
      </g>
      <g id="Gruppe_12" data-name="Gruppe 12" transform="translate(69.917 71.387)">
        <path id="Pfad_12" data-name="Pfad 12" d="M-.285-.809l-.954-.323.8-2.387L.52-3.2Z" transform="translate(1.239 3.518)" fill="#e5d7b6"/>
      </g>
      <g id="Gruppe_13" data-name="Gruppe 13" transform="translate(71.768 65.895)">
        <path id="Pfad_13" data-name="Pfad 13" d="M-.285-.809l-.954-.323.8-2.388L.52-3.2Z" transform="translate(1.239 3.52)" fill="#e5d7b6"/>
      </g>
      <g id="Gruppe_14" data-name="Gruppe 14" transform="translate(73.62 60.404)">
        <path id="Pfad_14" data-name="Pfad 14" d="M-.285-.809l-.954-.323.8-2.388L.52-3.2Z" transform="translate(1.239 3.52)" fill="#e5d7b6"/>
      </g>
      <g id="Gruppe_15" data-name="Gruppe 15" transform="translate(75.471 54.912)">
        <path id="Pfad_15" data-name="Pfad 15" d="M-.285-.809l-.954-.323L-.433-3.52.521-3.2Z" transform="translate(1.239 3.52)" fill="#e5d7b6"/>
      </g>
      <g id="Gruppe_16" data-name="Gruppe 16" transform="translate(77.323 49.421)">
        <path id="Pfad_16" data-name="Pfad 16" d="M-.285-.809l-.954-.323L-.433-3.52.521-3.2Z" transform="translate(1.239 3.52)" fill="#e5d7b6"/>
      </g>
      <g id="Gruppe_17" data-name="Gruppe 17" transform="translate(79.174 43.93)">
        <path id="Pfad_17" data-name="Pfad 17" d="M-.285-.809l-.954-.323L-.433-3.52.521-3.2Z" transform="translate(1.239 3.52)" fill="#e5d7b6"/>
      </g>
      <g id="Gruppe_18" data-name="Gruppe 18" transform="translate(92.136 5.491)">
        <path id="Pfad_18" data-name="Pfad 18" d="M-.285-.809l-.954-.323L-.433-3.52.521-3.2Z" transform="translate(1.239 3.52)" fill="#e5d7b6"/>
      </g>
      <g id="Gruppe_19" data-name="Gruppe 19" transform="translate(93.987)">
        <path id="Pfad_19" data-name="Pfad 19" d="M-.241,0l-.806,2.388.955.322L.713.323Z" transform="translate(1.047)" fill="#e5d7b6"/>
      </g>
      <g id="Gruppe_20" data-name="Gruppe 20" transform="translate(133.943 11.225)">
        <path id="Pfad_20" data-name="Pfad 20" d="M-2.91,0l-9.749,31.036H8.5L18.111,0Z" transform="translate(12.659)" fill="#e5d7b6"/>
      </g>
      <g id="Gruppe_21" data-name="Gruppe 21" transform="translate(49.691 148.557)">
        <path id="Pfad_21" data-name="Pfad 21" d="M-.24-.809-1.046-3.2l.954-.322L.714-1.131Z" transform="translate(1.046 3.518)" fill="#e5d7b6"/>
      </g>
      <g id="Gruppe_22" data-name="Gruppe 22" transform="translate(47.839 143.064)">
        <path id="Pfad_22" data-name="Pfad 22" d="M-.24-.809-1.046-3.2l.954-.323L.714-1.132Z" transform="translate(1.046 3.52)" fill="#e5d7b6"/>
      </g>
      <g id="Gruppe_23" data-name="Gruppe 23" transform="translate(51.544 154.048)">
        <path id="Pfad_23" data-name="Pfad 23" d="M0-.1.4,1.1,1.355.774.953-.419Z" transform="translate(0 0.419)" fill="#e5d7b6"/>
      </g>
      <g id="Gruppe_24" data-name="Gruppe 24" transform="translate(44.137 148.555)">
        <path id="Pfad_24" data-name="Pfad 24" d="M-.285-.809l-.954-.323L-.433-3.52.521-3.2Z" transform="translate(1.239 3.52)" fill="#e5d7b6"/>
      </g>
      <g id="Gruppe_25" data-name="Gruppe 25" transform="translate(45.99 143.064)">
        <path id="Pfad_25" data-name="Pfad 25" d="M-.285-.809l-.954-.323.806-2.387L.521-3.2Z" transform="translate(1.239 3.518)" fill="#e5d7b6"/>
      </g>
      <g id="Gruppe_26" data-name="Gruppe 26" transform="translate(42.689 154.047)">
        <path id="Pfad_26" data-name="Pfad 26" d="M0-.356l.954.323.4-1.193L.4-1.549Z" transform="translate(0 1.549)" fill="#e5d7b6"/>
      </g>
      <g id="Gruppe_27" data-name="Gruppe 27" transform="translate(119.321 154.048)">
        <path id="Pfad_27" data-name="Pfad 27" d="M0-.1.4,1.1,1.355.774.953-.419Z" transform="translate(0 0.419)" fill="#e5d7b6"/>
      </g>
    </g>
  </g>
</svg>
