<svg id="Gruppe_52" data-name="Gruppe 52" xmlns="http://www.w3.org/2000/svg" width="119.012" height="112.401" viewBox="0 0 119.012 112.401">
  <g id="Logo">
    <g id="Gruppe_1" data-name="Gruppe 1" transform="translate(2.446 8.111)">
      <path id="Pfad_1" data-name="Pfad 1" d="M-25.587-75.54l-32.1-94.765H-42.5l24.506,72.348Z" transform="translate(57.686 170.305)" fill="#e5d7b6"/>
    </g>
    <g id="Gruppe_2" data-name="Gruppe 2" transform="translate(51.452 8.11)">
      <path id="Pfad_2" data-name="Pfad 2" d="M-6.055-17.876l-7.6-22.425H1.535Z" transform="translate(13.651 40.301)" fill="#e5d7b6"/>
    </g>
    <g id="Gruppe_3" data-name="Gruppe 3" transform="translate(48.743 0.115)">
      <path id="Pfad_3" data-name="Pfad 3" d="M0-.186.582,1.54l.689-.233L.689-.419ZM1.338,3.782,1.92,5.507l.689-.233L2.027,3.548ZM10.7,31.556l.582,1.726.689-.233-.582-1.726Zm1.338,3.967.581,1.726.689-.233-.581-1.726Zm1.338,3.968.581,1.726.689-.234-.581-1.725Zm1.338,3.967.581,1.726.689-.233-.581-1.726Zm1.338,3.968.583,1.725.689-.233-.581-1.726Zm1.338,3.967.582,1.726.689-.233-.582-1.726Zm1.338,3.969.582,1.724L20,56.854l-.583-1.724Zm1.339,3.967.581,1.724.689-.233L20.758,59.1ZM21.407,63.3l.581,1.724.689-.233L22.1,63.065Zm1.338,3.967.581,1.726.69-.234-.581-1.725Zm1.338,3.967.582,1.725.689-.233L24.772,71ZM25.42,75.2,26,76.926l.689-.233-.583-1.726Zm1.338,3.967.582,1.726.689-.233-.582-1.726ZM28.1,83.136l.581,1.726.689-.233L28.786,82.9ZM29.434,87.1l.581,1.725.69-.233-.581-1.726Zm1.338,3.969.581,1.724.689-.233-.581-1.725Zm1.338,3.967.583,1.725.689-.233L32.8,94.806Zm1.338,3.968.582,1.725.689-.233-.582-1.725Zm1.338,3.968.582,1.725.689-.233-.582-1.726Zm1.339,3.967.581,1.726.689-.233-.581-1.726Z" transform="translate(0 0.419)" fill="#e5d7b6"/>
    </g>
    <g id="Gruppe_4" data-name="Gruppe 4" transform="translate(1.338 4.029)">
      <path id="Pfad_4" data-name="Pfad 4" d="M-.464-1.561l-.582-1.726.689-.233L.225-1.794Z" transform="translate(1.046 3.52)" fill="#e5d7b6"/>
    </g>
    <g id="Gruppe_5" data-name="Gruppe 5" transform="translate(0 0.061)">
      <path id="Pfad_5" data-name="Pfad 5" d="M0-.186.582,1.539l.689-.233L.689-.419Z" transform="translate(0 0.419)" fill="#e5d7b6"/>
    </g>
    <g id="Gruppe_6" data-name="Gruppe 6" transform="translate(42.491 75.386)">
      <path id="Pfad_6" data-name="Pfad 6" d="M-.55-1.561l-.689-.233L-.658-3.52l.689.233Z" transform="translate(1.239 3.52)" fill="#e5d7b6"/>
    </g>
    <g id="Gruppe_7" data-name="Gruppe 7" transform="translate(43.828 71.418)">
      <path id="Pfad_7" data-name="Pfad 7" d="M-.55-1.561l-.689-.233L-.657-3.52l.689.233Z" transform="translate(1.239 3.52)" fill="#e5d7b6"/>
    </g>
    <g id="Gruppe_8" data-name="Gruppe 8" transform="translate(45.166 67.451)">
      <path id="Pfad_8" data-name="Pfad 8" d="M-.55-1.561l-.689-.233L-.657-3.52l.689.233Z" transform="translate(1.239 3.52)" fill="#e5d7b6"/>
    </g>
    <g id="Gruppe_9" data-name="Gruppe 9" transform="translate(46.504 63.483)">
      <path id="Pfad_9" data-name="Pfad 9" d="M-.55-1.561l-.689-.233L-.657-3.52l.689.234Z" transform="translate(1.239 3.52)" fill="#e5d7b6"/>
    </g>
    <g id="Gruppe_10" data-name="Gruppe 10" transform="translate(47.842 59.516)">
      <path id="Pfad_10" data-name="Pfad 10" d="M-.55-1.56l-.689-.233.582-1.724.689.233Z" transform="translate(1.239 3.518)" fill="#e5d7b6"/>
    </g>
    <g id="Gruppe_11" data-name="Gruppe 11" transform="translate(49.18 55.548)">
      <path id="Pfad_11" data-name="Pfad 11" d="M-.55-1.56l-.689-.233.581-1.724.689.233Z" transform="translate(1.239 3.518)" fill="#e5d7b6"/>
    </g>
    <g id="Gruppe_12" data-name="Gruppe 12" transform="translate(50.518 51.581)">
      <path id="Pfad_12" data-name="Pfad 12" d="M-.55-1.56l-.689-.233.581-1.724.689.233Z" transform="translate(1.239 3.518)" fill="#e5d7b6"/>
    </g>
    <g id="Gruppe_13" data-name="Gruppe 13" transform="translate(51.856 47.612)">
      <path id="Pfad_13" data-name="Pfad 13" d="M-.55-1.561l-.689-.233L-.658-3.52l.689.233Z" transform="translate(1.239 3.52)" fill="#e5d7b6"/>
    </g>
    <g id="Gruppe_14" data-name="Gruppe 14" transform="translate(53.194 43.644)">
      <path id="Pfad_14" data-name="Pfad 14" d="M-.55-1.561l-.689-.233L-.658-3.52l.689.233Z" transform="translate(1.239 3.52)" fill="#e5d7b6"/>
    </g>
    <g id="Gruppe_15" data-name="Gruppe 15" transform="translate(54.531 39.677)">
      <path id="Pfad_15" data-name="Pfad 15" d="M-.55-1.561l-.689-.233L-.657-3.52l.689.233Z" transform="translate(1.239 3.52)" fill="#e5d7b6"/>
    </g>
    <g id="Gruppe_16" data-name="Gruppe 16" transform="translate(55.869 35.709)">
      <path id="Pfad_16" data-name="Pfad 16" d="M-.55-1.561l-.689-.233L-.657-3.52l.689.233Z" transform="translate(1.239 3.52)" fill="#e5d7b6"/>
    </g>
    <g id="Gruppe_17" data-name="Gruppe 17" transform="translate(57.207 31.741)">
      <path id="Pfad_17" data-name="Pfad 17" d="M-.55-1.561l-.689-.233L-.657-3.52l.689.234Z" transform="translate(1.239 3.52)" fill="#e5d7b6"/>
    </g>
    <g id="Gruppe_18" data-name="Gruppe 18" transform="translate(66.572 3.967)">
      <path id="Pfad_18" data-name="Pfad 18" d="M-.55-1.561l-.689-.233L-.657-3.52l.689.233Z" transform="translate(1.239 3.52)" fill="#e5d7b6"/>
    </g>
    <g id="Gruppe_19" data-name="Gruppe 19" transform="translate(67.91)">
      <path id="Pfad_19" data-name="Pfad 19" d="M-.464,0l-.583,1.726.69.233L.224.233Z" transform="translate(1.047)" fill="#e5d7b6"/>
    </g>
    <g id="Gruppe_20" data-name="Gruppe 20" transform="translate(96.78 8.11)">
      <path id="Pfad_20" data-name="Pfad 20" d="M-5.615,0l-7.044,22.425H2.631L9.574,0Z" transform="translate(12.659)" fill="#e5d7b6"/>
    </g>
    <g id="Gruppe_21" data-name="Gruppe 21" transform="translate(35.904 107.339)">
      <path id="Pfad_21" data-name="Pfad 21" d="M-.464-1.56l-.582-1.725.689-.233L.225-1.794Z" transform="translate(1.046 3.518)" fill="#e5d7b6"/>
    </g>
    <g id="Gruppe_22" data-name="Gruppe 22" transform="translate(34.566 103.37)">
      <path id="Pfad_22" data-name="Pfad 22" d="M-.464-1.561l-.582-1.726.689-.233L.225-1.794Z" transform="translate(1.046 3.52)" fill="#e5d7b6"/>
    </g>
    <g id="Gruppe_23" data-name="Gruppe 23" transform="translate(37.243 111.306)">
      <path id="Pfad_23" data-name="Pfad 23" d="M0-.186.29.676.979.443.689-.419Z" transform="translate(0 0.419)" fill="#e5d7b6"/>
    </g>
    <g id="Gruppe_24" data-name="Gruppe 24" transform="translate(31.891 107.338)">
      <path id="Pfad_24" data-name="Pfad 24" d="M-.55-1.561l-.689-.233L-.657-3.52l.689.233Z" transform="translate(1.239 3.52)" fill="#e5d7b6"/>
    </g>
    <g id="Gruppe_25" data-name="Gruppe 25" transform="translate(33.23 103.37)">
      <path id="Pfad_25" data-name="Pfad 25" d="M-.55-1.56l-.689-.233.582-1.724.689.233Z" transform="translate(1.239 3.518)" fill="#e5d7b6"/>
    </g>
    <g id="Gruppe_26" data-name="Gruppe 26" transform="translate(30.845 111.306)">
      <path id="Pfad_26" data-name="Pfad 26" d="M0-.687l.689.233.292-.862L.292-1.549Z" transform="translate(0 1.549)" fill="#e5d7b6"/>
    </g>
    <g id="Gruppe_27" data-name="Gruppe 27" transform="translate(86.215 111.306)">
      <path id="Pfad_27" data-name="Pfad 27" d="M0-.186.29.676.979.443.689-.419Z" transform="translate(0 0.419)" fill="#e5d7b6"/>
    </g>
  </g>
</svg>
