<svg xmlns="http://www.w3.org/2000/svg" width="644.592" height="608.785" viewBox="0 0 644.592 608.785">
  <g id="Gruppe_49" data-name="Gruppe 49" transform="translate(-654.246 -239)" opacity="0.092">
    <g id="Logo" transform="translate(654.246 239)">
      <g id="Gruppe_1" data-name="Gruppe 1" transform="translate(13.25 43.93)">
        <path id="Pfad_1" data-name="Pfad 1" d="M116.167,342.958-57.686-170.3H24.563l132.73,391.849Z" transform="translate(57.686 170.305)" fill="#cec6bd"/>
      </g>
      <g id="Gruppe_2" data-name="Gruppe 2" transform="translate(278.675 43.927)">
        <path id="Pfad_2" data-name="Pfad 2" d="M27.49,81.158-13.651-40.3H68.6Z" transform="translate(13.651 40.301)" fill="#cec6bd"/>
      </g>
      <g id="Gruppe_3" data-name="Gruppe 3" transform="translate(264.001 0.622)">
        <path id="Pfad_3" data-name="Pfad 3" d="M0,.844,3.152,10.19,6.883,8.927,3.731-.419ZM7.245,22.335,10.4,31.678l3.731-1.263-3.152-9.346ZM57.97,172.762l3.152,9.346,3.731-1.263L61.7,171.5Zm7.248,21.488,3.149,9.346,3.731-1.26-3.146-9.346Zm7.245,21.491,3.149,9.346,3.734-1.266L76.2,214.479Zm7.245,21.488,3.149,9.346,3.734-1.263-3.146-9.346Zm7.245,21.491,3.155,9.343,3.731-1.26-3.149-9.346ZM94.2,280.21l3.152,9.346,3.731-1.263-3.152-9.346Zm7.245,21.494,3.152,9.34,3.734-1.263-3.155-9.34Zm7.251,21.488,3.146,9.34,3.734-1.26-3.149-9.343Zm7.245,21.491,3.146,9.34,3.734-1.263-3.149-9.34Zm7.245,21.488,3.146,9.346,3.737-1.266-3.149-9.343Zm7.245,21.488L133.586,397l3.731-1.26-3.149-9.346Zm7.245,21.491,3.152,9.343,3.734-1.26-3.155-9.346Zm7.248,21.488,3.152,9.346,3.731-1.263-3.152-9.346Zm7.248,21.488,3.149,9.346,3.734-1.263-3.149-9.343Zm7.245,21.491,3.146,9.343,3.737-1.26-3.149-9.349Zm7.245,21.494,3.149,9.34,3.734-1.263-3.149-9.343ZM173.91,516.6l3.155,9.343,3.731-1.263-3.149-9.34Zm7.248,21.491,3.152,9.343,3.731-1.263-3.152-9.343Zm7.245,21.491,3.152,9.343,3.731-1.263-3.152-9.346Zm7.251,21.485,3.146,9.349,3.734-1.263-3.149-9.346Z" transform="translate(0 0.419)" fill="#cec6bd"/>
      </g>
      <g id="Gruppe_4" data-name="Gruppe 4" transform="translate(7.246 21.82)">
        <path id="Pfad_4" data-name="Pfad 4" d="M2.106,7.089-1.046-2.257,2.688-3.52,5.84,5.826Z" transform="translate(1.046 3.52)" fill="#cec6bd"/>
      </g>
      <g id="Gruppe_5" data-name="Gruppe 5" transform="translate(0 0.332)">
        <path id="Pfad_5" data-name="Pfad 5" d="M0,.844l3.152,9.343,3.734-1.26L3.734-.419Z" transform="translate(0 0.419)" fill="#cec6bd"/>
      </g>
      <g id="Gruppe_6" data-name="Gruppe 6" transform="translate(230.137 408.305)">
        <path id="Pfad_6" data-name="Pfad 6" d="M2.5,7.089-1.239,5.826,1.91-3.52,5.641-2.257Z" transform="translate(1.239 3.52)" fill="#cec6bd"/>
      </g>
      <g id="Gruppe_7" data-name="Gruppe 7" transform="translate(237.382 386.815)">
        <path id="Pfad_7" data-name="Pfad 7" d="M2.5,7.089-1.239,5.826,1.913-3.52,5.647-2.257Z" transform="translate(1.239 3.52)" fill="#cec6bd"/>
      </g>
      <g id="Gruppe_8" data-name="Gruppe 8" transform="translate(244.628 365.326)">
        <path id="Pfad_8" data-name="Pfad 8" d="M2.5,7.089-1.239,5.826,1.913-3.52,5.647-2.257Z" transform="translate(1.239 3.52)" fill="#cec6bd"/>
      </g>
      <g id="Gruppe_9" data-name="Gruppe 9" transform="translate(251.873 343.836)">
        <path id="Pfad_9" data-name="Pfad 9" d="M2.5,7.089-1.239,5.826,1.913-3.52,5.647-2.254Z" transform="translate(1.239 3.52)" fill="#cec6bd"/>
      </g>
      <g id="Gruppe_10" data-name="Gruppe 10" transform="translate(259.119 322.348)">
        <path id="Pfad_10" data-name="Pfad 10" d="M2.5,7.084-1.239,5.822l3.152-9.34L5.647-2.255Z" transform="translate(1.239 3.518)" fill="#cec6bd"/>
      </g>
      <g id="Gruppe_11" data-name="Gruppe 11" transform="translate(266.369 300.86)">
        <path id="Pfad_11" data-name="Pfad 11" d="M2.5,7.084-1.239,5.822,1.91-3.518l3.734,1.26Z" transform="translate(1.239 3.518)" fill="#cec6bd"/>
      </g>
      <g id="Gruppe_12" data-name="Gruppe 12" transform="translate(273.615 279.37)">
        <path id="Pfad_12" data-name="Pfad 12" d="M2.5,7.084-1.239,5.822,1.91-3.518,5.644-2.255Z" transform="translate(1.239 3.518)" fill="#cec6bd"/>
      </g>
      <g id="Gruppe_13" data-name="Gruppe 13" transform="translate(280.86 257.874)">
        <path id="Pfad_13" data-name="Pfad 13" d="M2.5,7.089-1.239,5.826,1.91-3.52,5.644-2.257Z" transform="translate(1.239 3.52)" fill="#cec6bd"/>
      </g>
      <g id="Gruppe_14" data-name="Gruppe 14" transform="translate(288.106 236.385)">
        <path id="Pfad_14" data-name="Pfad 14" d="M2.5,7.089-1.239,5.826,1.91-3.52,5.644-2.257Z" transform="translate(1.239 3.52)" fill="#cec6bd"/>
      </g>
      <g id="Gruppe_15" data-name="Gruppe 15" transform="translate(295.352 214.896)">
        <path id="Pfad_15" data-name="Pfad 15" d="M2.5,7.089-1.239,5.826,1.913-3.52,5.647-2.257Z" transform="translate(1.239 3.52)" fill="#cec6bd"/>
      </g>
      <g id="Gruppe_16" data-name="Gruppe 16" transform="translate(302.598 193.406)">
        <path id="Pfad_16" data-name="Pfad 16" d="M2.5,7.089-1.239,5.826,1.913-3.52,5.647-2.257Z" transform="translate(1.239 3.52)" fill="#cec6bd"/>
      </g>
      <g id="Gruppe_17" data-name="Gruppe 17" transform="translate(309.844 171.917)">
        <path id="Pfad_17" data-name="Pfad 17" d="M2.5,7.089-1.239,5.826,1.913-3.52,5.647-2.254Z" transform="translate(1.239 3.52)" fill="#cec6bd"/>
      </g>
      <g id="Gruppe_18" data-name="Gruppe 18" transform="translate(360.568 21.487)">
        <path id="Pfad_18" data-name="Pfad 18" d="M2.5,7.089-1.239,5.826,1.913-3.52,5.647-2.257Z" transform="translate(1.239 3.52)" fill="#cec6bd"/>
      </g>
      <g id="Gruppe_19" data-name="Gruppe 19" transform="translate(367.812)">
        <path id="Pfad_19" data-name="Pfad 19" d="M2.108,0-1.047,9.346l3.737,1.26L5.839,1.263Z" transform="translate(1.047)" fill="#cec6bd"/>
      </g>
      <g id="Gruppe_20" data-name="Gruppe 20" transform="translate(524.176 43.927)">
        <path id="Pfad_20" data-name="Pfad 20" d="M25.493,0-12.659,121.459H70.157L107.757,0Z" transform="translate(12.659)" fill="#cec6bd"/>
      </g>
      <g id="Gruppe_21" data-name="Gruppe 21" transform="translate(194.464 581.366)">
        <path id="Pfad_21" data-name="Pfad 21" d="M2.106,7.084-1.046-2.258l3.734-1.26L5.84,5.822Z" transform="translate(1.046 3.518)" fill="#cec6bd"/>
      </g>
      <g id="Gruppe_22" data-name="Gruppe 22" transform="translate(187.214 559.87)">
        <path id="Pfad_22" data-name="Pfad 22" d="M2.106,7.089-1.046-2.257,2.688-3.52,5.84,5.826Z" transform="translate(1.046 3.52)" fill="#cec6bd"/>
      </g>
      <g id="Gruppe_23" data-name="Gruppe 23" transform="translate(201.714 602.855)">
        <path id="Pfad_23" data-name="Pfad 23" d="M0,.844,1.57,5.509,5.3,4.249,3.731-.419Z" transform="translate(0 0.419)" fill="#cec6bd"/>
      </g>
      <g id="Gruppe_24" data-name="Gruppe 24" transform="translate(172.729 581.36)">
        <path id="Pfad_24" data-name="Pfad 24" d="M2.5,7.089-1.239,5.826,1.913-3.52,5.647-2.257Z" transform="translate(1.239 3.52)" fill="#cec6bd"/>
      </g>
      <g id="Gruppe_25" data-name="Gruppe 25" transform="translate(179.979 559.873)">
        <path id="Pfad_25" data-name="Pfad 25" d="M2.5,7.084-1.239,5.822l3.152-9.34,3.734,1.26Z" transform="translate(1.239 3.518)" fill="#cec6bd"/>
      </g>
      <g id="Gruppe_26" data-name="Gruppe 26" transform="translate(167.06 602.854)">
        <path id="Pfad_26" data-name="Pfad 26" d="M0,3.119,3.734,4.382,5.313-.286,1.582-1.549Z" transform="translate(0 1.549)" fill="#cec6bd"/>
      </g>
      <g id="Gruppe_27" data-name="Gruppe 27" transform="translate(466.954 602.855)">
        <path id="Pfad_27" data-name="Pfad 27" d="M0,.844,1.57,5.509,5.3,4.249,3.731-.419Z" transform="translate(0 0.419)" fill="#cec6bd"/>
      </g>
    </g>
  </g>
</svg>
