<svg xmlns="http://www.w3.org/2000/svg" width="17.811" height="17.811" viewBox="0 0 17.811 17.811">
  <path id="Icon_awesome-phone-alt" data-name="Icon awesome-phone-alt" d="M17.3,12.586l-3.9-1.67a.835.835,0,0,0-.974.24l-1.725,2.108A12.894,12.894,0,0,1,4.543,7.1L6.651,5.375a.833.833,0,0,0,.24-.974L5.222.5A.84.84,0,0,0,4.265.021L.647.856A.835.835,0,0,0,0,1.67,16.139,16.139,0,0,0,16.141,17.811a.835.835,0,0,0,.814-.647l.835-3.618A.845.845,0,0,0,17.3,12.586Z" transform="translate(0 0)" fill="#404040"/>
</svg>
