<svg xmlns="http://www.w3.org/2000/svg" width="124.909" height="120.833" viewBox="0 0 124.909 120.833">
  <g id="Gruppe_67" data-name="Gruppe 67" transform="translate(-241.325 -104.897)">
    <path id="Pfad_125" data-name="Pfad 125" d="M394.087,126.542l5.649-4.127L394.087,104.9l-5.651,17.52Z" transform="translate(-98.232 0)" fill="#fff"/>
    <path id="Pfad_126" data-name="Pfad 126" d="M425.511,162.352l-2.233,6.833,5.414,3.916,14.915-10.789Z" transform="translate(-121.498 -38.338)" fill="#fff"/>
    <path id="Pfad_127" data-name="Pfad 127" d="M346.745,169.184l-2.236-6.833-18.092-.04L341.332,173.1Z" transform="translate(-56.819 -38.338)" fill="#fff"/>
    <path id="Pfad_128" data-name="Pfad 128" d="M356.6,220.995l14.614-10.668-2.05-6.36-6.995.015L356.6,220.995" transform="translate(-76.974 -66.153)" fill="#fff"/>
    <path id="Pfad_129" data-name="Pfad 129" d="M424.911,220.995l-5.571-17.013-6.994-.015-2.051,6.36,14.615,10.668" transform="translate(-112.829 -66.153)" fill="#fff"/>
    <g id="Gruppe_64" data-name="Gruppe 64" transform="translate(241.325 160.343)">
      <path id="Pfad_130" data-name="Pfad 130" d="M241.922,274.636h7.219a14.629,14.629,0,0,1,7.613,1.789,10.825,10.825,0,0,1,4.348,4.627,13.9,13.9,0,0,1,1.362,6.087,11.441,11.441,0,0,1-1.641,6.136,11.023,11.023,0,0,1-4.413,4.085,13.1,13.1,0,0,1-6.087,1.427h-8.4Zm7.58,19.557a8.584,8.584,0,0,0,5.873-1.9,6.906,6.906,0,0,0,2.166-5.48,7.859,7.859,0,0,0-1.2-4.593,6.448,6.448,0,0,0-2.789-2.362,7.894,7.894,0,0,0-3-.657H246.68v15Z" transform="translate(-241.724 -273.684)" fill="#fff"/>
      <path id="Pfad_131" data-name="Pfad 131" d="M323.55,292.149h-8.007l-1.969,4.725h-4.693l10.894-25.1h.262l10.894,25.1H325.42Zm-1.575-4-2.33-5.874-2.428,5.874Z" transform="translate(-286.436 -271.772)" fill="#fff"/>
      <path id="Pfad_132" data-name="Pfad 132" d="M394.731,274.636,383.706,299.9,372.68,274.636h5.71l5.513,13.618,5.185-13.618Z" transform="translate(-329.036 -273.684)" fill="#fff"/>
      <path id="Pfad_133" data-name="Pfad 133" d="M447.816,280.081a12.52,12.52,0,0,1,4.5-4.545,12.047,12.047,0,0,1,12.3,0,12.792,12.792,0,0,1,4.528,4.545,12.043,12.043,0,0,1,0,12.3,12.6,12.6,0,0,1-4.528,4.479,12.283,12.283,0,0,1-12.321,0,12.37,12.37,0,0,1-4.479-4.479,12.246,12.246,0,0,1,0-12.3Zm4.266,10.008a7.536,7.536,0,0,0,2.723,2.806,7.289,7.289,0,0,0,3.823,1.034,6.917,6.917,0,0,0,3.708-1.034,7.313,7.313,0,0,0,2.625-2.789,8.393,8.393,0,0,0-.033-7.826,7.49,7.49,0,0,0-2.674-2.806,7.343,7.343,0,0,0-7.514,0,7.492,7.492,0,0,0-2.675,2.806,7.978,7.978,0,0,0-.984,3.938A7.733,7.733,0,0,0,452.081,290.089Z" transform="translate(-378.101 -273.157)" fill="#fff"/>
      <path id="Pfad_134" data-name="Pfad 134" d="M541.954,278.474a4.145,4.145,0,0,0-2.445.623,2.151,2.151,0,0,0-.869,1.87,2.459,2.459,0,0,0,1.263,2.018,15.736,15.736,0,0,0,3.363,1.657,13.992,13.992,0,0,1,2.92,1.427,6.4,6.4,0,0,1,2.018,2.215,7.152,7.152,0,0,1,.8,3.577,6.546,6.546,0,0,1-.968,3.462,6.752,6.752,0,0,1-2.839,2.526,9.884,9.884,0,0,1-4.462.935,14.878,14.878,0,0,1-4.3-.64,13.424,13.424,0,0,1-3.97-1.952l2.1-3.708a11.4,11.4,0,0,0,2.854,1.509,8.482,8.482,0,0,0,2.888.591,5.192,5.192,0,0,0,2.625-.64,2.218,2.218,0,0,0,1.116-2.084q0-1.87-3.512-3.249a31.411,31.411,0,0,1-3.445-1.575,7.085,7.085,0,0,1-2.379-2.166,5.969,5.969,0,0,1-1-3.543,6.524,6.524,0,0,1,2.051-5.02,8.331,8.331,0,0,1,5.463-2.068,14.284,14.284,0,0,1,4.5.607,15.42,15.42,0,0,1,3.511,1.723l-1.8,3.642A11.761,11.761,0,0,0,541.954,278.474Z" transform="translate(-435.736 -273.421)" fill="#fff"/>
      <path id="Pfad_135" data-name="Pfad 135" d="M244.417,370.469l.476-.605,5.189-5.859h4.065l-6.572,7.134,6.594,8.778h-3.978l-4.907-6.789-.779.778v6.011h-3.178V364.005H244.5v5.664Z" transform="translate(-241.325 -333.36)" fill="#fff"/>
      <path id="Pfad_136" data-name="Pfad 136" d="M291.049,364.005V376.89h7.48v3.027H287.914V364.005Z" transform="translate(-272.434 -333.36)" fill="#fff"/>
      <path id="Pfad_137" data-name="Pfad 137" d="M327.266,367.592a8.241,8.241,0,0,1,2.962-2.994,7.934,7.934,0,0,1,8.107,0,8.432,8.432,0,0,1,2.984,2.994,7.939,7.939,0,0,1,0,8.108,8.313,8.313,0,0,1-2.984,2.951,8.093,8.093,0,0,1-8.118,0,8.149,8.149,0,0,1-2.951-2.951,8.07,8.07,0,0,1,0-8.108Zm2.81,6.594a4.966,4.966,0,0,0,1.795,1.849,4.8,4.8,0,0,0,2.519.681,4.563,4.563,0,0,0,2.443-.681,4.822,4.822,0,0,0,1.729-1.838,5.529,5.529,0,0,0-.021-5.156,4.944,4.944,0,0,0-1.762-1.849,4.84,4.84,0,0,0-4.951,0,4.931,4.931,0,0,0-1.762,1.849,5.253,5.253,0,0,0-.649,2.595A5.1,5.1,0,0,0,330.076,374.186Z" transform="translate(-297.982 -333.012)" fill="#fff"/>
      <path id="Pfad_138" data-name="Pfad 138" d="M387.471,366.533a2.733,2.733,0,0,0-1.611.411,1.417,1.417,0,0,0-.573,1.232,1.622,1.622,0,0,0,.832,1.33,10.4,10.4,0,0,0,2.216,1.092,9.209,9.209,0,0,1,1.924.94,4.212,4.212,0,0,1,1.33,1.46,4.71,4.71,0,0,1,.53,2.357,4.311,4.311,0,0,1-.638,2.281,4.447,4.447,0,0,1-1.87,1.665,6.509,6.509,0,0,1-2.94.616,9.818,9.818,0,0,1-2.832-.421,8.839,8.839,0,0,1-2.617-1.287l1.384-2.443a7.532,7.532,0,0,0,1.881.994,5.587,5.587,0,0,0,1.9.389,3.42,3.42,0,0,0,1.729-.421,1.46,1.46,0,0,0,.735-1.373q0-1.232-2.313-2.14a20.524,20.524,0,0,1-2.27-1.038,4.661,4.661,0,0,1-1.567-1.427,3.931,3.931,0,0,1-.66-2.335,4.3,4.3,0,0,1,1.351-3.308,5.49,5.49,0,0,1,3.6-1.362,9.406,9.406,0,0,1,2.962.4,10.156,10.156,0,0,1,2.314,1.135l-1.189,2.4A7.747,7.747,0,0,0,387.471,366.533Z" transform="translate(-334.741 -333.186)" fill="#fff"/>
      <path id="Pfad_139" data-name="Pfad 139" d="M431.508,364.005v3.027h-3.87v12.886H424.5V367.032h-3.718v-3.027Z" transform="translate(-361.158 -333.36)" fill="#fff"/>
      <path id="Pfad_140" data-name="Pfad 140" d="M473.8,364.005v3.027h-7.718v3.395h6.831v3.027h-6.831v3.437h8.021v3.027H462.949V364.005Z" transform="translate(-389.313 -333.36)" fill="#fff"/>
      <path id="Pfad_141" data-name="Pfad 141" d="M515.649,379.917l-3.351-5.059h-2.1v5.059h-3.135V364.005h4.821a6.725,6.725,0,0,1,4.595,1.438,4.962,4.962,0,0,1,1.632,3.924,6.3,6.3,0,0,1-.617,2.757,4.57,4.57,0,0,1-1.892,2.021l3.7,5.773Zm-5.448-8.086h2.227a2.216,2.216,0,0,0,1.859-.746,2.565,2.565,0,0,0,.584-1.611,3.056,3.056,0,0,0-.5-1.654,2.1,2.1,0,0,0-1.924-.789H510.2Z" transform="translate(-418.772 -333.36)" fill="#fff"/>
      <path id="Pfad_142" data-name="Pfad 142" d="M554.631,366.533a2.733,2.733,0,0,0-1.611.411,1.418,1.418,0,0,0-.573,1.232,1.621,1.621,0,0,0,.832,1.33A10.384,10.384,0,0,0,555.5,370.6a9.226,9.226,0,0,1,1.924.94A4.215,4.215,0,0,1,558.75,373a4.711,4.711,0,0,1,.53,2.357,4.308,4.308,0,0,1-.638,2.281,4.449,4.449,0,0,1-1.87,1.665,6.511,6.511,0,0,1-2.94.616,9.818,9.818,0,0,1-2.832-.421,8.847,8.847,0,0,1-2.617-1.287l1.384-2.443a7.525,7.525,0,0,0,1.881.994,5.584,5.584,0,0,0,1.9.389,3.42,3.42,0,0,0,1.729-.421,1.461,1.461,0,0,0,.735-1.373q0-1.232-2.313-2.14a20.506,20.506,0,0,1-2.27-1.038,4.661,4.661,0,0,1-1.567-1.427,3.934,3.934,0,0,1-.66-2.335,4.3,4.3,0,0,1,1.351-3.308,5.491,5.491,0,0,1,3.6-1.362,9.4,9.4,0,0,1,2.962.4,10.144,10.144,0,0,1,2.314,1.135l-1.189,2.4A7.746,7.746,0,0,0,554.631,366.533Z" transform="translate(-446.361 -333.186)" fill="#fff"/>
      <path id="Pfad_143" data-name="Pfad 143" d="M255.4,426.24v13.534h-2.562v-6.2L248.6,439.6h-.035l-4.081-5.637v5.813h-2.473V426.24h.017l6.591,9.347,6.749-9.347Z" transform="translate(-241.78 -374.917)" fill="#fff"/>
      <path id="Pfad_144" data-name="Pfad 144" d="M291.874,430.767a6.739,6.739,0,0,1,2.421-2.447,6.487,6.487,0,0,1,6.626,0,6.887,6.887,0,0,1,2.438,2.447,6.485,6.485,0,0,1,0,6.626,6.783,6.783,0,0,1-2.438,2.412,6.612,6.612,0,0,1-6.635,0,6.662,6.662,0,0,1-2.412-2.412,6.6,6.6,0,0,1,0-6.626Zm2.3,5.389a4.056,4.056,0,0,0,1.467,1.511,3.921,3.921,0,0,0,2.058.557,3.723,3.723,0,0,0,2-.557,3.936,3.936,0,0,0,1.413-1.5,4.521,4.521,0,0,0-.018-4.214,4.028,4.028,0,0,0-1.44-1.511,3.954,3.954,0,0,0-4.046,0,4.023,4.023,0,0,0-1.44,1.511,4.289,4.289,0,0,0-.531,2.12A4.164,4.164,0,0,0,294.171,436.156Z" transform="translate(-274.483 -375.698)" fill="#fff"/>
      <path id="Pfad_145" data-name="Pfad 145" d="M341.776,437.217a2.862,2.862,0,0,0,.989.919,2.632,2.632,0,0,0,1.325.353,2.832,2.832,0,0,0,1.4-.353,2.736,2.736,0,0,0,1-.919,2.159,2.159,0,0,0,.362-1.183v-8.2h2.527v8.252a4.628,4.628,0,0,1-.707,2.517,4.862,4.862,0,0,1-1.917,1.749,5.693,5.693,0,0,1-2.659.627,5.636,5.636,0,0,1-2.65-.627,4.81,4.81,0,0,1-1.9-1.749,4.667,4.667,0,0,1-.7-2.517v-8.252H341.4v8.2A2.122,2.122,0,0,0,341.776,437.217Z" transform="translate(-306.442 -375.982)" fill="#fff"/>
      <path id="Pfad_146" data-name="Pfad 146" d="M392.515,426.806V440.34h-.071l-9.1-8.216.053,7.686h-2.6V426.294h.106l9.082,8.339-.053-7.827Z" transform="translate(-334.459 -374.953)" fill="#fff"/>
      <path id="Pfad_147" data-name="Pfad 147" d="M433.222,427.835v2.473h-3.162v10.531H427.5V430.308h-3.039v-2.473Z" transform="translate(-363.611 -375.982)" fill="#fff"/>
      <path id="Pfad_148" data-name="Pfad 148" d="M459.53,437.266h-4.311l-1.06,2.544h-2.527l5.866-13.516h.141l5.866,13.516h-2.968Zm-.848-2.156-1.254-3.163-1.307,3.163Z" transform="translate(-381.757 -374.953)" fill="#fff"/>
      <path id="Pfad_149" data-name="Pfad 149" d="M496.576,427.835v13h-2.562v-13Z" transform="translate(-410.056 -375.982)" fill="#fff"/>
      <path id="Pfad_150" data-name="Pfad 150" d="M524.5,426.806V440.34h-.071l-9.1-8.216.053,7.686h-2.6V426.294h.106l9.082,8.339-.053-7.827Z" transform="translate(-422.591 -374.953)" fill="#fff"/>
      <path id="Pfad_151" data-name="Pfad 151" d="M560.857,429.9a2.23,2.23,0,0,0-1.316.336,1.156,1.156,0,0,0-.469,1.007,1.325,1.325,0,0,0,.68,1.087,8.48,8.48,0,0,0,1.811.892,7.551,7.551,0,0,1,1.573.769,3.448,3.448,0,0,1,1.086,1.192,3.852,3.852,0,0,1,.434,1.926,3.519,3.519,0,0,1-.522,1.864,3.633,3.633,0,0,1-1.528,1.361,5.314,5.314,0,0,1-2.4.5,8.024,8.024,0,0,1-2.315-.345,7.238,7.238,0,0,1-2.138-1.051l1.131-2a6.16,6.16,0,0,0,1.538.812,4.558,4.558,0,0,0,1.555.318,2.8,2.8,0,0,0,1.414-.345,1.194,1.194,0,0,0,.6-1.122q0-1.008-1.89-1.749a16.85,16.85,0,0,1-1.855-.848,3.808,3.808,0,0,1-1.281-1.166,3.214,3.214,0,0,1-.539-1.908,3.513,3.513,0,0,1,1.1-2.7,4.491,4.491,0,0,1,2.942-1.114,7.679,7.679,0,0,1,2.42.327,8.293,8.293,0,0,1,1.891.928l-.972,1.961A6.328,6.328,0,0,0,560.857,429.9Z" transform="translate(-451.281 -375.839)" fill="#fff"/>
    </g>
    <g id="Gruppe_66" data-name="Gruppe 66" transform="translate(358.313 161.032)">
      <path id="Pfad_152" data-name="Pfad 152" d="M597.4,273.846a3.933,3.933,0,1,1,0,7.866,3.933,3.933,0,1,1,0-7.866Zm.011,7.152a3.208,3.208,0,1,0-3.225-3.2A3.107,3.107,0,0,0,597.409,281Z" transform="translate(-593.426 -273.846)" fill="#fff"/>
      <g id="Gruppe_65" data-name="Gruppe 65" transform="translate(2.559 1.928)">
        <path id="Pfad_153" data-name="Pfad 153" d="M603.327,283.725l-.859-1.3h-.537v1.3h-.8v-4.077h1.235a1.722,1.722,0,0,1,1.177.368,1.27,1.27,0,0,1,.418,1.005,1.612,1.612,0,0,1-.158.706,1.173,1.173,0,0,1-.485.518l.947,1.479Zm-1.4-2.072h.57a.568.568,0,0,0,.476-.191.658.658,0,0,0,.15-.413.783.783,0,0,0-.128-.424.539.539,0,0,0-.493-.2h-.576Z" transform="translate(-601.128 -279.648)" fill="#fff"/>
      </g>
    </g>
  </g>
</svg>
