<svg xmlns="http://www.w3.org/2000/svg" width="195.392" height="58.634" viewBox="0 0 195.392 58.634">
  <g id="Gruppe_364" data-name="Gruppe 364" transform="translate(-123.851 -56.754)">
    <path id="Pfad_866" data-name="Pfad 866" d="M145.982,72.838h7.034v11.11q-4.659,5.2-12.9,5.2a15.93,15.93,0,0,1-11.581-4.57,15.445,15.445,0,0,1-4.682-11.535,15.592,15.592,0,0,1,4.772-11.627,15.882,15.882,0,0,1,11.514-4.659,17.035,17.035,0,0,1,11.716,4.435l-3.63,5.242a13.867,13.867,0,0,0-3.876-2.53,10.381,10.381,0,0,0-3.83-.694,9.171,9.171,0,0,0-6.719,2.71,9.615,9.615,0,0,0-2.733,7.145,9.683,9.683,0,0,0,2.622,7.1,8.46,8.46,0,0,0,6.249,2.666,12,12,0,0,0,6.047-1.389Z" fill="#fff"/>
    <rect id="Rechteck_208" data-name="Rechteck 208" width="6.987" height="31.315" transform="translate(177.164 57.472)" fill="#fff"/>
    <path id="Pfad_867" data-name="Pfad 867" d="M277.721,81.2a5.722,5.722,0,0,0,4.7,2.171,5.659,5.659,0,0,0,4.682-2.171,9.308,9.308,0,0,0,1.726-5.936V57.972h6.987V75.489q0,6.811-3.763,10.46a14.527,14.527,0,0,1-19.287-.022q-3.786-3.672-3.786-10.439V57.972h6.991V75.266a9.214,9.214,0,0,0,1.746,5.936" transform="translate(-59.656 -0.501)" fill="#fff"/>
    <path id="Pfad_868" data-name="Pfad 868" d="M382.7,68.367q0,7.526-5.958,9.721l7.928,11.2h-8.6L369.127,79.3h-4.839v9.991H357.3V57.974h11.872q7.3,0,10.415,2.462t3.114,7.931m-8.422,3.717a4.73,4.73,0,0,0,1.3-3.7q0-2.531-1.344-3.471t-4.7-.941h-5.243V73.25h5.107q3.585,0,4.885-1.166" transform="translate(-95.958 -0.501)" fill="#fff"/>
    <rect id="Rechteck_209" data-name="Rechteck 209" width="6.987" height="31.315" transform="translate(311.831 57.472)" fill="#fff"/>
    <path id="Pfad_869" data-name="Pfad 869" d="M128.568,145.942V131.733H129.8v7.1h.038l5.135-7.1h1.421l-4.206,5.74,4.412,8.469h-1.325l-3.884-7.464-1.591,2.084v5.38Z" transform="translate(-1.939 -30.82)" fill="#fff"/>
    <path id="Pfad_870" data-name="Pfad 870" d="M156.944,142.9c0-2.349.436-5.248,3.314-5.248,2.938,0,3.259,3.163,3.259,5.457,0,2.368-.3,5.532-3.315,5.532-3.182,0-3.258-3.317-3.258-5.741m5.476.228c0-1.629-.038-4.508-2.292-4.508-1.972,0-2.085,2.86-2.085,4.3,0,1.554-.113,4.756,2.141,4.756,2.217,0,2.236-2.975,2.236-4.547" transform="translate(-13.603 -33.253)" fill="#fff"/>
    <path id="Pfad_871" data-name="Pfad 871" d="M185.484,148.375h-1.1V137.917h1.1v.929h.037a2.564,2.564,0,0,1,2.217-1.194,2.123,2.123,0,0,1,2.2,1.176h.038a2.91,2.91,0,0,1,2.462-1.176c1.876,0,2.406,1.194,2.406,2.843v7.881h-1.1v-8.014c0-.872-.34-1.763-1.441-1.763a2.011,2.011,0,0,0-2.141,2.141v7.635h-1.1v-7.559c0-1.174-.133-2.2-1.553-2.2a2.144,2.144,0,0,0-2.027,1.781Z" transform="translate(-24.882 -33.252)" fill="#fff"/>
    <path id="Pfad_872" data-name="Pfad 872" d="M219.81,148.375h-1.1V137.917h1.1v.929h.037a2.563,2.563,0,0,1,2.217-1.194,2.123,2.123,0,0,1,2.2,1.176h.038a2.91,2.91,0,0,1,2.462-1.176c1.876,0,2.406,1.194,2.406,2.843v7.881h-1.1v-8.014c0-.872-.34-1.763-1.441-1.763a2.011,2.011,0,0,0-2.141,2.141v7.635h-1.1v-7.559c0-1.174-.133-2.2-1.553-2.2a2.144,2.144,0,0,0-2.027,1.781Z" transform="translate(-38.991 -33.252)" fill="#fff"/>
    <path id="Pfad_873" data-name="Pfad 873" d="M258.044,138.1h1.1v10.458h-1.062v-.966h-.038a3.027,3.027,0,0,1-2.634,1.232c-1.911,0-2.31-1.365-2.31-2.994V138.1h1.1v7.919c0,1.326.514,1.932,1.839,1.837a2.628,2.628,0,0,0,2.008-1.8Z" transform="translate(-53.127 -33.438)" fill="#fff"/>
    <path id="Pfad_874" data-name="Pfad 874" d="M281.511,148.375h-1.1V137.917h1.1v1.022h.036a2.817,2.817,0,0,1,2.369-1.288,2.333,2.333,0,0,1,2.444,2.426v8.3h-1.1v-7.6c0-1.193-.094-2.16-1.532-2.16a2.187,2.187,0,0,0-2.217,2.047Z" transform="translate(-64.353 -33.252)" fill="#fff"/>
    <path id="Pfad_875" data-name="Pfad 875" d="M307.981,131.735h1.27v1.8h-1.27Zm.077,3.75h1.1v10.458h-1.1Z" transform="translate(-75.685 -30.82)" fill="#fff"/>
    <path id="Pfad_876" data-name="Pfad 876" d="M327.476,145.942V131.733h1.1v8.677h.037l3.353-4.925h1.385l-2.843,3.9,2.9,6.555h-1.157l-2.52-5.437-1.155,1.61v3.827Z" transform="translate(-83.699 -30.82)" fill="#fff"/>
    <path id="Pfad_877" data-name="Pfad 877" d="M351.988,140.551a2.542,2.542,0,0,1,2.784-2.9,2.649,2.649,0,0,1,2.159.8,3.1,3.1,0,0,1,.512,2.046v6.423c0,.625.114.719.759.7v.8a2.2,2.2,0,0,1-1.214.057c-.491-.19-.473-.455-.587-.948h-.019a2.779,2.779,0,0,1-2.312,1.118c-1.912,0-2.368-1.307-2.368-2.955a2.68,2.68,0,0,1,1.441-2.691c.927-.436,1.932-.739,2.861-1.174a.564.564,0,0,0,.284-.417,6.751,6.751,0,0,0-.037-1.743c-.152-.624-.532-1.042-1.5-1.042-1.553,0-1.535,1-1.705,1.934Zm4.357,2.179a22.02,22.02,0,0,1-2.179.967,1.874,1.874,0,0,0-1.365,2.159c0,1.024.323,1.819,1.459,1.819a1.782,1.782,0,0,0,1.555-.777,4.162,4.162,0,0,0,.53-2.331Z" transform="translate(-93.657 -33.253)" fill="#fff"/>
    <path id="Pfad_878" data-name="Pfad 878" d="M380.269,146.514a4.013,4.013,0,0,1-1.422.057c-.965-.34-1.135-.816-1.135-1.819v-7.824h-.948v-.967h.948v-3.068h1.1v3.068h1.458v.967h-1.458v7.709c0,.36.036.891.55.986a1.482,1.482,0,0,0,.908-.019Z" transform="translate(-103.959 -31.296)" fill="#fff"/>
    <path id="Pfad_879" data-name="Pfad 879" d="M398.77,131.735h1.269v1.8H398.77Zm.076,3.75h1.1v10.458h-1.1Z" transform="translate(-113.004 -30.82)" fill="#fff"/>
    <path id="Pfad_880" data-name="Pfad 880" d="M417.847,142.9c0-2.349.436-5.248,3.314-5.248,2.938,0,3.26,3.163,3.26,5.457,0,2.368-.3,5.532-3.315,5.532-3.182,0-3.258-3.317-3.258-5.741m5.475.228c0-1.629-.038-4.508-2.292-4.508-1.971,0-2.086,2.86-2.086,4.3,0,1.554-.112,4.756,2.141,4.756,2.217,0,2.236-2.975,2.236-4.547" transform="translate(-120.845 -33.253)" fill="#fff"/>
    <path id="Pfad_881" data-name="Pfad 881" d="M446.609,148.375h-1.1V137.917h1.1v1.022h.036a2.819,2.819,0,0,1,2.369-1.288,2.333,2.333,0,0,1,2.444,2.426v8.3h-1.1v-7.6c0-1.193-.094-2.16-1.532-2.16a2.188,2.188,0,0,0-2.217,2.047Z" transform="translate(-132.215 -33.252)" fill="#fff"/>
  </g>
</svg>
