<svg xmlns="http://www.w3.org/2000/svg" width="133.989" height="120.833" viewBox="0 0 133.989 120.833">
  <g id="Gruppe_71" data-name="Gruppe 71" transform="translate(-241.64 -106.895)">
    <path id="Pfad_154" data-name="Pfad 154" d="M400,130.23l6.09-4.449L400,106.895l-6.092,18.889Z" transform="translate(-96.753 0)" fill="#fff"/>
    <path id="Pfad_155" data-name="Pfad 155" d="M430.55,163.345l-2.407,7.366,5.837,4.222,16.08-11.631Z" transform="translate(-118.503 -35.841)" fill="#fff"/>
    <path id="Pfad_156" data-name="Pfad 156" d="M354.9,170.711l-2.411-7.366L332.98,163.3l16.08,11.631Z" transform="translate(-58.037 -35.841)" fill="#fff"/>
    <path id="Pfad_157" data-name="Pfad 157" d="M362.635,222.584l15.756-11.5-2.21-6.857-7.541.016-6,18.342" transform="translate(-76.88 -61.844)" fill="#fff"/>
    <path id="Pfad_158" data-name="Pfad 158" d="M431.146,222.584l-6.006-18.342-7.54-.016-2.211,6.857,15.757,11.5" transform="translate(-110.399 -61.844)" fill="#fff"/>
    <g id="Gruppe_68" data-name="Gruppe 68" transform="translate(241.64 168.102)">
      <path id="Pfad_159" data-name="Pfad 159" d="M257.11,274.767V290.4h-2.959v-7.164l-4.9,6.96h-.041l-4.714-6.51V290.4H241.64V274.767h.02l7.613,10.8,7.8-10.8Z" transform="translate(-241.64 -274.767)" fill="#fff"/>
      <path id="Pfad_160" data-name="Pfad 160" d="M295.847,279.878a7.791,7.791,0,0,1,2.8-2.827,7.493,7.493,0,0,1,7.653,0,7.959,7.959,0,0,1,2.817,2.827,7.491,7.491,0,0,1,0,7.653,7.833,7.833,0,0,1-2.817,2.786,7.635,7.635,0,0,1-7.663,0,7.693,7.693,0,0,1-2.786-2.786,7.621,7.621,0,0,1,0-7.653ZM298.5,286.1a4.692,4.692,0,0,0,1.694,1.745,4.532,4.532,0,0,0,2.377.642,4.3,4.3,0,0,0,2.307-.642,4.555,4.555,0,0,0,1.633-1.735,5.22,5.22,0,0,0-.021-4.868,4.658,4.658,0,0,0-1.663-1.745,4.565,4.565,0,0,0-4.674,0,4.664,4.664,0,0,0-1.663,1.745,4.955,4.955,0,0,0-.612,2.449A4.811,4.811,0,0,0,298.5,286.1Z" transform="translate(-275.428 -275.551)" fill="#fff"/>
      <path id="Pfad_161" data-name="Pfad 161" d="M350.207,287.284a3.292,3.292,0,0,0,1.143,1.062,3.035,3.035,0,0,0,1.53.408,3.267,3.267,0,0,0,1.613-.408,3.163,3.163,0,0,0,1.153-1.062,2.5,2.5,0,0,0,.419-1.367v-9.47h2.919v9.531a5.348,5.348,0,0,1-.816,2.908,5.615,5.615,0,0,1-2.215,2.021,6.851,6.851,0,0,1-6.133,0,5.554,5.554,0,0,1-2.194-2.021,5.39,5.39,0,0,1-.807-2.908v-9.531h2.96v9.47A2.451,2.451,0,0,0,350.207,287.284Z" transform="translate(-308.47 -275.834)" fill="#fff"/>
      <path id="Pfad_162" data-name="Pfad 162" d="M406.14,275.416V291.05h-.082l-10.511-9.491.062,8.878h-3V274.824h.122l10.491,9.633-.061-9.041Z" transform="translate(-337.564 -274.803)" fill="#fff"/>
      <path id="Pfad_163" data-name="Pfad 163" d="M450.311,276.447V279.3h-3.653v12.164H443.7V279.3h-3.511v-2.858Z" transform="translate(-367.796 -275.834)" fill="#fff"/>
      <path id="Pfad_164" data-name="Pfad 164" d="M479.538,287.5h-4.98l-1.225,2.939h-2.919l6.776-15.613h.163l6.776,15.613H480.7Zm-.98-2.49-1.449-3.653-1.51,3.653Z" transform="translate(-387.002 -274.803)" fill="#fff"/>
      <path id="Pfad_165" data-name="Pfad 165" d="M519.613,276.447v15.021h-2.959V276.447Z" transform="translate(-416.382 -275.834)" fill="#fff"/>
      <path id="Pfad_166" data-name="Pfad 166" d="M551.567,275.416V291.05h-.082l-10.511-9.491.062,8.878h-3V274.824h.122l10.491,9.633-.061-9.041Z" transform="translate(-429.968 -274.803)" fill="#fff"/>
      <path id="Pfad_167" data-name="Pfad 167" d="M260.73,355.753h-4.34V346.8h-9.849v8.95H242.2V333.721h4.34v8.891h9.849v-8.891h4.34Z" transform="translate(-241.996 -312.226)" fill="#fff"/>
      <path id="Pfad_168" data-name="Pfad 168" d="M307.833,338.754a11.416,11.416,0,0,1,4.1-4.146,10.991,10.991,0,0,1,11.226,0,11.676,11.676,0,0,1,4.131,4.146,10.989,10.989,0,0,1,0,11.225,11.507,11.507,0,0,1-4.131,4.086,11.2,11.2,0,0,1-11.24,0,11.283,11.283,0,0,1-4.086-4.086,11.172,11.172,0,0,1,0-11.225Zm3.891,9.129a6.87,6.87,0,0,0,2.485,2.559,6.643,6.643,0,0,0,3.487.943,6.307,6.307,0,0,0,3.383-.943,6.679,6.679,0,0,0,2.395-2.544,7.659,7.659,0,0,0-.03-7.139A6.834,6.834,0,0,0,321,338.2a6.7,6.7,0,0,0-6.855,0,6.828,6.828,0,0,0-2.439,2.56,7.267,7.267,0,0,0-.9,3.592A7.056,7.056,0,0,0,311.724,347.883Z" transform="translate(-282.738 -311.81)" fill="#fff"/>
      <path id="Pfad_169" data-name="Pfad 169" d="M390.049,333.721v4.192h-5.359v17.84h-4.34v-17.84H375.2v-4.192Z" transform="translate(-326.505 -312.226)" fill="#fff"/>
      <path id="Pfad_170" data-name="Pfad 170" d="M443.84,333.721v4.192H433.153v4.7h9.459V346.8h-9.459v4.76h11.106v4.19H428.813V333.721Z" transform="translate(-360.569 -312.226)" fill="#fff"/>
      <path id="Pfad_171" data-name="Pfad 171" d="M489.227,333.721v17.841h10.358v4.19h-14.7V333.721Z" transform="translate(-396.197 -312.226)" fill="#fff"/>
      <path id="Pfad_172" data-name="Pfad 172" d="M542.387,337.256a3.779,3.779,0,0,0-2.23.569,1.962,1.962,0,0,0-.793,1.706,2.244,2.244,0,0,0,1.152,1.841,14.377,14.377,0,0,0,3.069,1.512,12.765,12.765,0,0,1,2.664,1.3,5.841,5.841,0,0,1,1.84,2.02,6.532,6.532,0,0,1,.734,3.263,5.966,5.966,0,0,1-.883,3.158,6.164,6.164,0,0,1-2.589,2.305,9.013,9.013,0,0,1-4.071.853,13.559,13.559,0,0,1-3.921-.584,12.223,12.223,0,0,1-3.622-1.781l1.916-3.382a10.425,10.425,0,0,0,2.6,1.377,7.739,7.739,0,0,0,2.634.539,4.726,4.726,0,0,0,2.395-.584,2.022,2.022,0,0,0,1.018-1.9q0-1.707-3.2-2.964a28.662,28.662,0,0,1-3.143-1.437,6.459,6.459,0,0,1-2.17-1.976,5.446,5.446,0,0,1-.913-3.233,5.952,5.952,0,0,1,1.871-4.58,7.6,7.6,0,0,1,4.984-1.886,13.024,13.024,0,0,1,4.1.554,14.054,14.054,0,0,1,3.2,1.571l-1.646,3.322A10.728,10.728,0,0,0,542.387,337.256Z" transform="translate(-427.236 -312.018)" fill="#fff"/>
      <path id="Pfad_173" data-name="Pfad 173" d="M241.86,410.284h2.919a5.915,5.915,0,0,1,3.078.723,4.379,4.379,0,0,1,1.758,1.87,5.613,5.613,0,0,1,.551,2.461,4.631,4.631,0,0,1-.663,2.48,4.461,4.461,0,0,1-1.785,1.652,5.29,5.29,0,0,1-2.46.577h-3.4Zm3.064,7.906a3.471,3.471,0,0,0,2.374-.769,2.793,2.793,0,0,0,.876-2.216,3.178,3.178,0,0,0-.485-1.857,2.6,2.6,0,0,0-1.127-.955,3.193,3.193,0,0,0-1.214-.265h-1.565v6.062Z" transform="translate(-241.78 -360.874)" fill="#fff"/>
      <path id="Pfad_174" data-name="Pfad 174" d="M271.55,417.467h-3.237l-.8,1.91h-1.9l4.4-10.149h.106l4.4,10.149h-2.229Zm-.637-1.619-.941-2.375-.982,2.375Z" transform="translate(-256.877 -360.203)" fill="#fff"/>
      <path id="Pfad_175" data-name="Pfad 175" d="M297.129,410.284,292.672,420.5l-4.458-10.215h2.309l2.228,5.505,2.1-5.505Z" transform="translate(-271.233 -360.874)" fill="#fff"/>
      <path id="Pfad_176" data-name="Pfad 176" d="M315.046,412.513a5.066,5.066,0,0,1,1.818-1.837,4.869,4.869,0,0,1,4.975,0,5.167,5.167,0,0,1,1.831,1.837,4.87,4.87,0,0,1,0,4.975,5.091,5.091,0,0,1-1.831,1.811,4.965,4.965,0,0,1-4.981,0,5,5,0,0,1-1.811-1.811,4.954,4.954,0,0,1,0-4.975Zm1.725,4.047a3.038,3.038,0,0,0,1.1,1.134,2.942,2.942,0,0,0,1.545.418,2.8,2.8,0,0,0,1.5-.418,2.964,2.964,0,0,0,1.061-1.127,3.4,3.4,0,0,0-.013-3.164,3.034,3.034,0,0,0-1.081-1.134,2.97,2.97,0,0,0-3.038,0,3.037,3.037,0,0,0-1.081,1.134,3.223,3.223,0,0,0-.4,1.592A3.129,3.129,0,0,0,316.771,416.56Z" transform="translate(-287.856 -360.689)" fill="#fff"/>
      <path id="Pfad_177" data-name="Pfad 177" d="M349.1,411.85a1.676,1.676,0,0,0-.988.252.869.869,0,0,0-.352.756,1,1,0,0,0,.51.816,6.35,6.35,0,0,0,1.36.67,5.679,5.679,0,0,1,1.181.577,2.588,2.588,0,0,1,.816.9,2.893,2.893,0,0,1,.325,1.446,2.644,2.644,0,0,1-.392,1.4,2.733,2.733,0,0,1-1.147,1.022,3.994,3.994,0,0,1-1.8.378,6.019,6.019,0,0,1-1.738-.259,5.45,5.45,0,0,1-1.605-.789l.849-1.5a4.609,4.609,0,0,0,1.154.611,3.443,3.443,0,0,0,1.167.238,2.1,2.1,0,0,0,1.062-.259.9.9,0,0,0,.451-.843q0-.756-1.419-1.313a12.725,12.725,0,0,1-1.393-.637,2.872,2.872,0,0,1-.962-.875,2.414,2.414,0,0,1-.4-1.433,2.638,2.638,0,0,1,.829-2.03,3.37,3.37,0,0,1,2.208-.836,5.786,5.786,0,0,1,1.818.245,6.224,6.224,0,0,1,1.42.7l-.73,1.473A4.758,4.758,0,0,0,349.1,411.85Z" transform="translate(-307.482 -360.781)" fill="#fff"/>
      <path id="Pfad_178" data-name="Pfad 178" d="M383.584,414.251l.292-.372,3.184-3.6h2.494l-4.032,4.378,4.046,5.386h-2.441l-3.011-4.166-.478.478v3.688h-1.95v-9.764h1.95v3.476Z" transform="translate(-330.625 -360.874)" fill="#fff"/>
      <path id="Pfad_179" data-name="Pfad 179" d="M409.772,410.284v7.906h4.59v1.857h-6.513v-9.764Z" transform="translate(-347.248 -360.874)" fill="#fff"/>
      <path id="Pfad_180" data-name="Pfad 180" d="M430.022,412.513a5.068,5.068,0,0,1,1.818-1.837,4.87,4.87,0,0,1,4.975,0,5.17,5.17,0,0,1,1.83,1.837,4.869,4.869,0,0,1,0,4.975,5.093,5.093,0,0,1-1.83,1.811,4.966,4.966,0,0,1-4.981,0,5,5,0,0,1-1.811-1.811,4.954,4.954,0,0,1,0-4.975Zm1.725,4.047a3.038,3.038,0,0,0,1.1,1.134,2.944,2.944,0,0,0,1.545.418,2.8,2.8,0,0,0,1.5-.418,2.963,2.963,0,0,0,1.061-1.127,3.4,3.4,0,0,0-.014-3.164,3.031,3.031,0,0,0-1.081-1.134,2.97,2.97,0,0,0-3.038,0,3.036,3.036,0,0,0-1.081,1.134,3.223,3.223,0,0,0-.4,1.592A3.125,3.125,0,0,0,431.747,416.56Z" transform="translate(-360.911 -360.689)" fill="#fff"/>
      <path id="Pfad_181" data-name="Pfad 181" d="M464.075,411.85a1.676,1.676,0,0,0-.988.252.87.87,0,0,0-.351.756,1,1,0,0,0,.51.816,6.351,6.351,0,0,0,1.36.67,5.675,5.675,0,0,1,1.181.577,2.584,2.584,0,0,1,.816.9,2.892,2.892,0,0,1,.325,1.446,2.644,2.644,0,0,1-.392,1.4,2.73,2.73,0,0,1-1.147,1.022,3.994,3.994,0,0,1-1.8.378,6.019,6.019,0,0,1-1.738-.259,5.453,5.453,0,0,1-1.606-.789l.849-1.5a4.617,4.617,0,0,0,1.154.611,3.445,3.445,0,0,0,1.167.238,2.1,2.1,0,0,0,1.062-.259.9.9,0,0,0,.45-.843q0-.756-1.419-1.313a12.753,12.753,0,0,1-1.393-.637,2.87,2.87,0,0,1-.962-.875,2.417,2.417,0,0,1-.4-1.433,2.638,2.638,0,0,1,.829-2.03,3.371,3.371,0,0,1,2.208-.836,5.789,5.789,0,0,1,1.818.245,6.239,6.239,0,0,1,1.42.7l-.73,1.473A4.756,4.756,0,0,0,464.075,411.85Z" transform="translate(-380.537 -360.781)" fill="#fff"/>
      <path id="Pfad_182" data-name="Pfad 182" d="M489.053,410.284v1.857h-2.374v7.907h-1.924v-7.907h-2.282v-1.857Z" transform="translate(-394.664 -360.874)" fill="#fff"/>
      <path id="Pfad_183" data-name="Pfad 183" d="M512.82,410.284v1.857h-4.736v2.083h4.192v1.858h-4.192v2.109h4.921v1.857H506.16v-9.764Z" transform="translate(-409.715 -360.874)" fill="#fff"/>
      <path id="Pfad_184" data-name="Pfad 184" d="M536.2,420.048l-2.056-3.1h-1.287v3.1h-1.924v-9.764H533.9a4.126,4.126,0,0,1,2.819.882,3.048,3.048,0,0,1,1,2.408,3.865,3.865,0,0,1-.378,1.691,2.806,2.806,0,0,1-1.161,1.24l2.268,3.542Zm-3.343-4.961h1.366a1.362,1.362,0,0,0,1.141-.458,1.572,1.572,0,0,0,.358-.988,1.872,1.872,0,0,0-.305-1.015,1.289,1.289,0,0,0-1.181-.485h-1.379Z" transform="translate(-425.458 -360.874)" fill="#fff"/>
      <path id="Pfad_185" data-name="Pfad 185" d="M557.984,411.85a1.677,1.677,0,0,0-.988.252.87.87,0,0,0-.351.756,1,1,0,0,0,.51.816,6.353,6.353,0,0,0,1.36.67,5.674,5.674,0,0,1,1.181.577,2.584,2.584,0,0,1,.816.9,2.892,2.892,0,0,1,.325,1.446,2.647,2.647,0,0,1-.391,1.4,2.732,2.732,0,0,1-1.147,1.022,3.994,3.994,0,0,1-1.8.378,6.019,6.019,0,0,1-1.738-.259,5.452,5.452,0,0,1-1.606-.789l.849-1.5a4.615,4.615,0,0,0,1.154.611,3.445,3.445,0,0,0,1.167.238,2.1,2.1,0,0,0,1.062-.259.9.9,0,0,0,.45-.843q0-.756-1.419-1.313a12.754,12.754,0,0,1-1.393-.637,2.871,2.871,0,0,1-.962-.875,2.417,2.417,0,0,1-.4-1.433,2.638,2.638,0,0,1,.829-2.03,3.371,3.371,0,0,1,2.208-.836,5.788,5.788,0,0,1,1.818.245,6.229,6.229,0,0,1,1.42.7l-.73,1.473A4.757,4.757,0,0,0,557.984,411.85Z" transform="translate(-440.206 -360.781)" fill="#fff"/>
    </g>
    <g id="Gruppe_70" data-name="Gruppe 70" transform="translate(367.089 167.565)">
      <path id="Pfad_186" data-name="Pfad 186" d="M589.989,273.293a4.24,4.24,0,1,1,0,8.48,4.24,4.24,0,1,1,0-8.48ZM590,281a3.458,3.458,0,1,0-3.477-3.452A3.35,3.35,0,0,0,590,281Z" transform="translate(-585.707 -273.293)" fill="#fff"/>
      <g id="Gruppe_69" data-name="Gruppe 69" transform="translate(2.759 2.078)">
        <path id="Pfad_187" data-name="Pfad 187" d="M595.645,283.387l-.926-1.4h-.579v1.4h-.866v-4.4h1.332a1.857,1.857,0,0,1,1.269.4,1.37,1.37,0,0,1,.451,1.084,1.742,1.742,0,0,1-.17.762,1.263,1.263,0,0,1-.522.558l1.021,1.594Zm-1.5-2.233h.615a.613.613,0,0,0,.514-.206.71.71,0,0,0,.161-.445.846.846,0,0,0-.137-.457.581.581,0,0,0-.532-.218h-.621Z" transform="translate(-593.274 -278.992)" fill="#fff"/>
      </g>
    </g>
  </g>
</svg>
