<svg xmlns="http://www.w3.org/2000/svg" width="136.557" height="120.833" viewBox="0 0 136.557 120.833">
  <g id="Gruppe_75" data-name="Gruppe 75" transform="translate(-239.829 -106.132)">
    <path id="Pfad_188" data-name="Pfad 188" d="M400.992,129.993l6.227-4.549-6.227-19.312-6.23,19.314Z" transform="translate(-97.816 0)" fill="#fff"/>
    <path id="Pfad_189" data-name="Pfad 189" d="M431.84,163.22l-2.462,7.532,5.969,4.317,16.443-11.893Z" transform="translate(-119.671 -36.014)" fill="#fff"/>
    <path id="Pfad_190" data-name="Pfad 190" d="M355.552,170.753l-2.465-7.532-19.945-.044,16.443,11.893Z" transform="translate(-58.912 -36.014)" fill="#fff"/>
    <path id="Pfad_191" data-name="Pfad 191" d="M363.132,223.335l16.111-11.76-2.26-7.011-7.711.016-6.14,18.756" transform="translate(-77.846 -62.143)" fill="#fff"/>
    <path id="Pfad_192" data-name="Pfad 192" d="M432.593,223.335l-6.141-18.756-7.71-.016-2.261,7.011,16.112,11.76" transform="translate(-111.528 -62.143)" fill="#fff"/>
    <g id="Gruppe_72" data-name="Gruppe 72" transform="translate(239.829 168.779)">
      <path id="Pfad_193" data-name="Pfad 193" d="M255.647,276.064V292.05h-3.026v-7.326l-5.009,7.117h-.042l-4.821-6.657v6.866h-2.921V276.064h.02l7.785,11.04,7.971-11.04Z" transform="translate(-239.829 -276.064)" fill="#fff"/>
      <path id="Pfad_194" data-name="Pfad 194" d="M294.659,281.276a7.958,7.958,0,0,1,2.859-2.891,7.664,7.664,0,0,1,7.826,0,8.141,8.141,0,0,1,2.88,2.891,7.66,7.66,0,0,1,0,7.826,8.014,8.014,0,0,1-2.88,2.848,7.81,7.81,0,0,1-7.837,0,7.865,7.865,0,0,1-2.849-2.848,7.792,7.792,0,0,1,0-7.826Zm2.713,6.365a4.793,4.793,0,0,0,1.733,1.785,4.629,4.629,0,0,0,2.43.657,4.4,4.4,0,0,0,2.359-.657,4.657,4.657,0,0,0,1.669-1.774,5.342,5.342,0,0,0-.021-4.977,4.774,4.774,0,0,0-1.7-1.784,4.67,4.67,0,0,0-4.779,0,4.771,4.771,0,0,0-1.7,1.784,5.061,5.061,0,0,0-.626,2.5A4.92,4.92,0,0,0,297.372,287.641Z" transform="translate(-273.78 -276.851)" fill="#fff"/>
      <path id="Pfad_195" data-name="Pfad 195" d="M349.66,288.844a3.364,3.364,0,0,0,1.168,1.086,3.1,3.1,0,0,0,1.564.417,3.335,3.335,0,0,0,1.648-.417,3.238,3.238,0,0,0,1.18-1.086,2.561,2.561,0,0,0,.426-1.4v-9.684h2.987v9.746a5.456,5.456,0,0,1-.836,2.974,5.752,5.752,0,0,1-2.263,2.066,6.734,6.734,0,0,1-3.142.741,6.662,6.662,0,0,1-3.13-.741,5.68,5.68,0,0,1-2.244-2.066,5.513,5.513,0,0,1-.824-2.974v-9.746h3.026v9.684A2.5,2.5,0,0,0,349.66,288.844Z" transform="translate(-306.982 -277.137)" fill="#fff"/>
      <path id="Pfad_196" data-name="Pfad 196" d="M406.337,276.727v15.986h-.084l-10.747-9.7.062,9.078H392.5V276.122h.126l10.726,9.85-.062-9.245Z" transform="translate(-336.217 -276.101)" fill="#fff"/>
      <path id="Pfad_197" data-name="Pfad 197" d="M450.968,277.763v2.922h-3.736v12.438h-3.027V280.685h-3.59v-2.922Z" transform="translate(-366.594 -277.137)" fill="#fff"/>
      <path id="Pfad_198" data-name="Pfad 198" d="M480.515,289.081h-5.092l-1.253,3.006h-2.984l6.928-15.965h.167l6.929,15.965H481.7Zm-1-2.546L478.03,282.8l-1.544,3.736Z" transform="translate(-385.894 -276.101)" fill="#fff"/>
      <path id="Pfad_199" data-name="Pfad 199" d="M520.966,277.763v15.36H517.94v-15.36Z" transform="translate(-415.412 -277.137)" fill="#fff"/>
      <path id="Pfad_200" data-name="Pfad 200" d="M553.4,276.727v15.986h-.084l-10.747-9.7.062,9.078h-3.068V276.122h.126l10.726,9.85-.062-9.245Z" transform="translate(-429.067 -276.101)" fill="#fff"/>
      <path id="Pfad_201" data-name="Pfad 201" d="M251.564,355.049l-4.2-6.349h-2.632v6.349h-3.934V335.082h6.05a8.439,8.439,0,0,1,5.765,1.8,6.226,6.226,0,0,1,2.049,4.924,7.887,7.887,0,0,1-.774,3.459,5.733,5.733,0,0,1-2.374,2.537l4.64,7.244ZM244.727,344.9h2.794a2.779,2.779,0,0,0,2.333-.936,3.213,3.213,0,0,0,.733-2.021,3.839,3.839,0,0,0-.624-2.075,2.636,2.636,0,0,0-2.415-.991h-2.821Z" transform="translate(-240.438 -313.325)" fill="#fff"/>
      <path id="Pfad_202" data-name="Pfad 202" d="M305.776,335.082v3.8h-9.685v4.259h8.572v3.8h-8.572v4.314h10.064v3.8h-14V335.082Z" transform="translate(-272.866 -313.325)" fill="#fff"/>
      <path id="Pfad_203" data-name="Pfad 203" d="M345.258,338.286a3.429,3.429,0,0,0-2.022.515,1.777,1.777,0,0,0-.719,1.547,2.033,2.033,0,0,0,1.045,1.669,13,13,0,0,0,2.78,1.37,11.566,11.566,0,0,1,2.415,1.18,5.292,5.292,0,0,1,1.668,1.832,5.916,5.916,0,0,1,.665,2.957,5.406,5.406,0,0,1-.8,2.862,5.586,5.586,0,0,1-2.347,2.089,8.166,8.166,0,0,1-3.69.773,12.311,12.311,0,0,1-3.554-.529,11.081,11.081,0,0,1-3.282-1.614l1.736-3.066a9.4,9.4,0,0,0,2.359,1.248,7.01,7.01,0,0,0,2.388.488,4.29,4.29,0,0,0,2.17-.529,1.832,1.832,0,0,0,.923-1.723q0-1.547-2.9-2.686a25.891,25.891,0,0,1-2.848-1.3,5.851,5.851,0,0,1-1.966-1.791,4.935,4.935,0,0,1-.828-2.93,5.4,5.4,0,0,1,1.7-4.151,6.892,6.892,0,0,1,4.518-1.709,11.789,11.789,0,0,1,3.716.5,12.741,12.741,0,0,1,2.9,1.424l-1.493,3.012A9.708,9.708,0,0,0,345.258,338.286Z" transform="translate(-301.44 -313.138)" fill="#fff"/>
      <path id="Pfad_204" data-name="Pfad 204" d="M383.9,339.647a10.364,10.364,0,0,1,3.717-3.758,9.959,9.959,0,0,1,10.174,0,10.57,10.57,0,0,1,3.744,3.758,9.959,9.959,0,0,1,0,10.174,10.417,10.417,0,0,1-3.744,3.7,10.156,10.156,0,0,1-10.187,0,10.235,10.235,0,0,1-3.7-3.7,10.132,10.132,0,0,1,0-10.174Zm3.528,8.275a6.219,6.219,0,0,0,2.252,2.32,6.024,6.024,0,0,0,3.16.854,5.724,5.724,0,0,0,3.066-.854,6.059,6.059,0,0,0,2.17-2.306,6.944,6.944,0,0,0-.028-6.471,6.192,6.192,0,0,0-2.211-2.32,6.077,6.077,0,0,0-6.213,0,6.2,6.2,0,0,0-2.211,2.32,6.586,6.586,0,0,0-.814,3.256A6.4,6.4,0,0,0,387.425,347.921Z" transform="translate(-329.92 -312.952)" fill="#fff"/>
      <path id="Pfad_205" data-name="Pfad 205" d="M460.193,355.049l-4.2-6.349h-2.631v6.349h-3.934V335.082h6.05a8.438,8.438,0,0,1,5.765,1.8,6.229,6.229,0,0,1,2.048,4.924,7.907,7.907,0,0,1-.773,3.459,5.74,5.74,0,0,1-2.374,2.537l4.639,7.244ZM453.356,344.9h2.794a2.783,2.783,0,0,0,2.333-.936,3.218,3.218,0,0,0,.732-2.021,3.83,3.83,0,0,0-.624-2.075,2.635,2.635,0,0,0-2.415-.991h-2.821Z" transform="translate(-372.154 -313.325)" fill="#fff"/>
      <path id="Pfad_206" data-name="Pfad 206" d="M509.457,335.082v3.8H504.6v16.169h-3.934V338.88H496v-3.8Z" transform="translate(-401.561 -313.325)" fill="#fff"/>
      <path id="Pfad_207" data-name="Pfad 207" d="M546.893,338.286a3.429,3.429,0,0,0-2.022.515,1.778,1.778,0,0,0-.719,1.547,2.035,2.035,0,0,0,1.044,1.669,13.01,13.01,0,0,0,2.781,1.37,11.6,11.6,0,0,1,2.414,1.18,5.292,5.292,0,0,1,1.668,1.832,5.916,5.916,0,0,1,.665,2.957,5.406,5.406,0,0,1-.8,2.862,5.585,5.585,0,0,1-2.346,2.089,8.166,8.166,0,0,1-3.689.773,12.307,12.307,0,0,1-3.554-.529,11.092,11.092,0,0,1-3.283-1.614l1.736-3.066a9.429,9.429,0,0,0,2.361,1.248,7.009,7.009,0,0,0,2.387.488,4.291,4.291,0,0,0,2.171-.529,1.834,1.834,0,0,0,.921-1.723q0-1.547-2.9-2.686a25.888,25.888,0,0,1-2.848-1.3,5.869,5.869,0,0,1-1.968-1.791,4.937,4.937,0,0,1-.827-2.93,5.4,5.4,0,0,1,1.7-4.151,6.891,6.891,0,0,1,4.516-1.709,11.792,11.792,0,0,1,3.717.5,12.741,12.741,0,0,1,2.9,1.424l-1.493,3.012A9.715,9.715,0,0,0,546.893,338.286Z" transform="translate(-428.74 -313.138)" fill="#fff"/>
      <path id="Pfad_208" data-name="Pfad 208" d="M240.052,405.564h2.984a6.048,6.048,0,0,1,3.147.739,4.472,4.472,0,0,1,1.8,1.913,5.745,5.745,0,0,1,.563,2.516,4.735,4.735,0,0,1-.677,2.536,4.56,4.56,0,0,1-1.825,1.689,5.41,5.41,0,0,1-2.516.59h-3.473Zm3.134,8.084a3.548,3.548,0,0,0,2.428-.787,2.856,2.856,0,0,0,.9-2.265,3.248,3.248,0,0,0-.5-1.9,2.662,2.662,0,0,0-1.153-.977,3.27,3.27,0,0,0-1.242-.271h-1.6v6.2Z" transform="translate(-239.97 -357.823)" fill="#fff"/>
      <path id="Pfad_209" data-name="Pfad 209" d="M270.143,412.92h-3.31l-.814,1.953h-1.94l4.5-10.377h.109l4.5,10.377h-2.279Zm-.651-1.655-.964-2.428-1,2.428Z" transform="translate(-255.139 -357.149)" fill="#fff"/>
      <path id="Pfad_210" data-name="Pfad 210" d="M296.046,405.564l-4.557,10.445-4.558-10.445h2.361l2.278,5.629,2.144-5.629Z" transform="translate(-269.566 -357.823)" fill="#fff"/>
      <path id="Pfad_211" data-name="Pfad 211" d="M314.071,407.846a5.188,5.188,0,0,1,1.858-1.878,4.979,4.979,0,0,1,5.087,0,5.289,5.289,0,0,1,1.872,1.878,4.977,4.977,0,0,1,0,5.087,5.209,5.209,0,0,1-1.872,1.852,5.077,5.077,0,0,1-5.093,0,5.12,5.12,0,0,1-1.852-1.852,5.065,5.065,0,0,1,0-5.087Zm1.764,4.138a3.106,3.106,0,0,0,1.127,1.159,3.008,3.008,0,0,0,1.58.427,2.857,2.857,0,0,0,1.533-.427,3.029,3.029,0,0,0,1.086-1.153,3.322,3.322,0,0,0,.393-1.607,3.288,3.288,0,0,0-.407-1.628,3.09,3.09,0,0,0-1.106-1.16,3.038,3.038,0,0,0-3.106,0,3.1,3.1,0,0,0-1.105,1.16,3.285,3.285,0,0,0-.408,1.628A3.2,3.2,0,0,0,315.835,411.984Z" transform="translate(-286.269 -357.637)" fill="#fff"/>
      <path id="Pfad_212" data-name="Pfad 212" d="M348.544,407.166a1.713,1.713,0,0,0-1.011.258.89.89,0,0,0-.359.773,1.016,1.016,0,0,0,.522.835,6.477,6.477,0,0,0,1.391.685,5.783,5.783,0,0,1,1.207.59,2.646,2.646,0,0,1,.835.915,2.967,2.967,0,0,1,.333,1.479,2.705,2.705,0,0,1-.4,1.432,2.793,2.793,0,0,1-1.173,1.044,4.083,4.083,0,0,1-1.845.386,6.16,6.16,0,0,1-1.777-.264,5.571,5.571,0,0,1-1.642-.807l.869-1.533a4.706,4.706,0,0,0,1.18.625,3.522,3.522,0,0,0,1.194.244,2.149,2.149,0,0,0,1.086-.264.918.918,0,0,0,.46-.862q0-.773-1.451-1.343a12.966,12.966,0,0,1-1.424-.651,2.936,2.936,0,0,1-.984-.9,2.468,2.468,0,0,1-.413-1.465,2.7,2.7,0,0,1,.848-2.076,3.442,3.442,0,0,1,2.258-.855,5.915,5.915,0,0,1,1.859.251,6.36,6.36,0,0,1,1.451.712l-.747,1.506A4.861,4.861,0,0,0,348.544,407.166Z" transform="translate(-305.99 -357.729)" fill="#fff"/>
      <path id="Pfad_213" data-name="Pfad 213" d="M383.4,409.62l.3-.38,3.256-3.676h2.55l-4.123,4.476,4.138,5.507h-2.5l-3.08-4.259-.489.488v3.771h-1.994v-9.984h1.994v3.554Z" transform="translate(-329.245 -357.823)" fill="#fff"/>
      <path id="Pfad_214" data-name="Pfad 214" d="M409.881,405.564v8.084h4.694v1.9h-6.662v-9.984Z" transform="translate(-345.947 -357.823)" fill="#fff"/>
      <path id="Pfad_215" data-name="Pfad 215" d="M430.344,407.846a5.188,5.188,0,0,1,1.858-1.878,4.979,4.979,0,0,1,5.087,0,5.289,5.289,0,0,1,1.872,1.878,4.977,4.977,0,0,1,0,5.087,5.209,5.209,0,0,1-1.872,1.852,5.077,5.077,0,0,1-5.093,0,5.12,5.12,0,0,1-1.852-1.852,5.065,5.065,0,0,1,0-5.087Zm1.764,4.138a3.114,3.114,0,0,0,1.125,1.159,3.013,3.013,0,0,0,1.582.427,2.857,2.857,0,0,0,1.532-.427,3.013,3.013,0,0,0,1.084-1.153,3.464,3.464,0,0,0-.013-3.235,3.1,3.1,0,0,0-1.106-1.16,3.038,3.038,0,0,0-3.106,0,3.086,3.086,0,0,0-1.105,1.16,3.284,3.284,0,0,0-.408,1.628A3.2,3.2,0,0,0,432.108,411.984Z" transform="translate(-359.677 -357.637)" fill="#fff"/>
      <path id="Pfad_216" data-name="Pfad 216" d="M464.82,407.166a1.714,1.714,0,0,0-1.011.258.891.891,0,0,0-.36.773,1.019,1.019,0,0,0,.523.835,6.471,6.471,0,0,0,1.391.685,5.821,5.821,0,0,1,1.207.59,2.649,2.649,0,0,1,.835.915,2.967,2.967,0,0,1,.333,1.479,2.706,2.706,0,0,1-.4,1.432,2.784,2.784,0,0,1-1.174,1.044,4.081,4.081,0,0,1-1.844.386,6.155,6.155,0,0,1-1.777-.264,5.56,5.56,0,0,1-1.642-.807l.869-1.533a4.688,4.688,0,0,0,1.18.625,3.515,3.515,0,0,0,1.193.244,2.144,2.144,0,0,0,1.085-.264.917.917,0,0,0,.461-.862q0-.773-1.451-1.343a12.993,12.993,0,0,1-1.425-.651,2.936,2.936,0,0,1-.983-.9,2.469,2.469,0,0,1-.414-1.465,2.7,2.7,0,0,1,.848-2.076,3.446,3.446,0,0,1,2.259-.855,5.911,5.911,0,0,1,1.858.251,6.371,6.371,0,0,1,1.451.712l-.747,1.506A4.861,4.861,0,0,0,464.82,407.166Z" transform="translate(-379.4 -357.729)" fill="#fff"/>
      <path id="Pfad_217" data-name="Pfad 217" d="M490.112,405.564v1.9h-2.428v8.085h-1.967v-8.085h-2.333v-1.9Z" transform="translate(-393.595 -357.823)" fill="#fff"/>
      <path id="Pfad_218" data-name="Pfad 218" d="M514.149,405.564v1.9h-4.842v2.13h4.286v1.9h-4.286v2.156h5.033v1.9h-7v-9.984Z" transform="translate(-408.719 -357.823)" fill="#fff"/>
      <path id="Pfad_219" data-name="Pfad 219" d="M537.782,415.548l-2.1-3.175h-1.316v3.175H532.4v-9.984h3.026a4.221,4.221,0,0,1,2.883.9,3.115,3.115,0,0,1,1.024,2.463,3.954,3.954,0,0,1-.387,1.729,2.866,2.866,0,0,1-1.187,1.268l2.32,3.622Zm-3.417-5.073h1.4a1.387,1.387,0,0,0,1.166-.469,1.605,1.605,0,0,0,.366-1.01,1.917,1.917,0,0,0-.312-1.038,1.321,1.321,0,0,0-1.208-.5h-1.41Z" transform="translate(-424.539 -357.823)" fill="#fff"/>
      <path id="Pfad_220" data-name="Pfad 220" d="M559.79,407.166a1.713,1.713,0,0,0-1.011.258.891.891,0,0,0-.36.773,1.018,1.018,0,0,0,.523.835,6.476,6.476,0,0,0,1.391.685,5.823,5.823,0,0,1,1.207.59,2.646,2.646,0,0,1,.835.915,2.967,2.967,0,0,1,.333,1.479,2.706,2.706,0,0,1-.4,1.432,2.789,2.789,0,0,1-1.174,1.044,4.082,4.082,0,0,1-1.844.386,6.16,6.16,0,0,1-1.777-.264,5.558,5.558,0,0,1-1.642-.807l.869-1.533a4.68,4.68,0,0,0,1.18.625,3.517,3.517,0,0,0,1.194.244,2.144,2.144,0,0,0,1.084-.264.916.916,0,0,0,.462-.862q0-.773-1.451-1.343a12.968,12.968,0,0,1-1.425-.651,2.928,2.928,0,0,1-.983-.9,2.469,2.469,0,0,1-.414-1.465,2.7,2.7,0,0,1,.848-2.076,3.446,3.446,0,0,1,2.26-.855,5.915,5.915,0,0,1,1.859.251,6.36,6.36,0,0,1,1.451.712l-.747,1.506A4.86,4.86,0,0,0,559.79,407.166Z" transform="translate(-439.358 -357.729)" fill="#fff"/>
    </g>
    <g id="Gruppe_74" data-name="Gruppe 74" transform="translate(367.654 168.077)">
      <path id="Pfad_221" data-name="Pfad 221" d="M590.938,274.161a4.335,4.335,0,1,1,0,8.671,4.336,4.336,0,1,1,0-8.671Zm.013,7.884a3.536,3.536,0,1,0-3.555-3.53A3.425,3.425,0,0,0,590.951,282.045Z" transform="translate(-586.56 -274.161)" fill="#fff"/>
      <g id="Gruppe_73" data-name="Gruppe 73" transform="translate(2.821 2.125)">
        <path id="Pfad_222" data-name="Pfad 222" d="M596.636,284.419l-.946-1.429H595.1v1.429h-.885v-4.495h1.362a1.9,1.9,0,0,1,1.3.406,1.4,1.4,0,0,1,.461,1.109,1.786,1.786,0,0,1-.174.779,1.292,1.292,0,0,1-.535.571l1.044,1.631Zm-1.539-2.284h.629a.626.626,0,0,0,.525-.211.723.723,0,0,0,.165-.455.864.864,0,0,0-.141-.467.593.593,0,0,0-.543-.223H595.1Z" transform="translate(-594.212 -279.924)" fill="#fff"/>
      </g>
    </g>
  </g>
</svg>
