<svg xmlns="http://www.w3.org/2000/svg" xmlns:xlink="http://www.w3.org/1999/xlink" width="180.391" height="118.278" viewBox="0 0 180.391 118.278">
  <defs>
    <clipPath id="clip-path">
      <path id="Pfad_562" data-name="Pfad 562" d="M162.655,161.353c-2.265,0-4.357-.021-5.973-.045l-1.132-.016V121.077H170.9a10.675,10.675,0,0,1,7.935,3.41,9.276,9.276,0,0,1,2.57,7.513,9.851,9.851,0,0,1-4.448,7.03c-3.26,2.16-6.748,2.139-9.731,1.835l-1.032-.106v-6.808h1.149c.281,0,.554,0,.819.008.545.009,1.059.016,1.547-.016l.288-.019a9.62,9.62,0,0,0,2.019-.263,2.728,2.728,0,0,0-.355-5.429c-2.278-.116-4.538-.092-6.931-.065-.673.007-1.349.015-2.03.019-.015.2-.026.38-.026.559q0,3.7,0,7.4c.005,5.694.011,11.583-.04,17.377a2.168,2.168,0,0,0,.076.74,2.1,2.1,0,0,0,.707.036c1.585-.092,3.195-.105,4.752-.119a48.7,48.7,0,0,0,8.534-.565,23.081,23.081,0,0,0-4.067-45.747c-7.626-.126-15.388-.09-22.894-.055l-5.536.024.062-6.973h27.83c12.723.227,22.269,6.381,27.628,17.8a29.974,29.974,0,0,1-24.578,42.34C171.723,161.278,166.889,161.353,162.655,161.353Z" transform="translate(-144.214 -100.867)" fill="#fff"/>
    </clipPath>
  </defs>
  <g id="Gruppe_94" data-name="Gruppe 94" transform="translate(-144.214 -100.867)">
    <g id="Gruppe_92" data-name="Gruppe 92" transform="translate(144.214 100.867)">
      <g id="Gruppe_91" data-name="Gruppe 91" transform="translate(0 0)">
        <path id="Pfad_560" data-name="Pfad 560" d="M162.655,161.353c-2.265,0-4.357-.021-5.973-.045l-1.132-.016V121.077H170.9a10.675,10.675,0,0,1,7.935,3.41,9.276,9.276,0,0,1,2.57,7.513,9.851,9.851,0,0,1-4.448,7.03c-3.26,2.16-6.748,2.139-9.731,1.835l-1.032-.106v-6.808h1.149c.281,0,.554,0,.819.008.545.009,1.059.016,1.547-.016l.288-.019a9.62,9.62,0,0,0,2.019-.263,2.728,2.728,0,0,0-.355-5.429c-2.278-.116-4.538-.092-6.931-.065-.673.007-1.349.015-2.03.019-.015.2-.026.38-.026.559q0,3.7,0,7.4c.005,5.694.011,11.583-.04,17.377a2.168,2.168,0,0,0,.076.74,2.1,2.1,0,0,0,.707.036c1.585-.092,3.195-.105,4.752-.119a48.7,48.7,0,0,0,8.534-.565,23.081,23.081,0,0,0-4.067-45.747c-7.626-.126-15.388-.09-22.894-.055l-5.536.024.062-6.973h27.83c12.723.227,22.269,6.381,27.628,17.8a29.974,29.974,0,0,1-24.578,42.34C171.723,161.278,166.889,161.353,162.655,161.353Z" transform="translate(-144.214 -100.867)" fill="#fff"/>
        <g id="Gruppe_90" data-name="Gruppe 90" clip-path="url(#clip-path)">
          <rect id="Rechteck_78" data-name="Rechteck 78" width="0.413" height="55.938" transform="translate(2.319 2.298)" fill="#fff"/>
          <rect id="Rechteck_79" data-name="Rechteck 79" width="0.911" height="55.938" transform="translate(2.732 2.298)" fill="#fff"/>
          <rect id="Rechteck_80" data-name="Rechteck 80" width="0.911" height="55.938" transform="translate(3.643 2.298)" fill="#fff"/>
          <rect id="Rechteck_81" data-name="Rechteck 81" width="0.911" height="55.938" transform="translate(4.553 2.298)" fill="#fff"/>
          <rect id="Rechteck_82" data-name="Rechteck 82" width="0.911" height="55.938" transform="translate(5.464 2.298)" fill="#fff"/>
          <rect id="Rechteck_83" data-name="Rechteck 83" width="0.911" height="55.938" transform="translate(6.374 2.298)" fill="#fff"/>
          <rect id="Rechteck_84" data-name="Rechteck 84" width="0.911" height="55.938" transform="translate(7.285 2.298)" fill="#fff"/>
          <rect id="Rechteck_85" data-name="Rechteck 85" width="0.911" height="55.938" transform="translate(8.196 2.298)" fill="#fff"/>
          <rect id="Rechteck_86" data-name="Rechteck 86" width="0.911" height="55.938" transform="translate(9.106 2.298)" fill="#fff"/>
          <rect id="Rechteck_87" data-name="Rechteck 87" width="0.911" height="55.938" transform="translate(10.017 2.298)" fill="#fff"/>
          <rect id="Rechteck_88" data-name="Rechteck 88" width="0.911" height="55.938" transform="translate(10.928 2.298)" fill="#fff"/>
          <rect id="Rechteck_89" data-name="Rechteck 89" width="0.911" height="55.938" transform="translate(11.838 2.298)" fill="#fff"/>
          <rect id="Rechteck_90" data-name="Rechteck 90" width="0.911" height="55.938" transform="translate(12.749 2.298)" fill="#fff"/>
          <rect id="Rechteck_91" data-name="Rechteck 91" width="0.911" height="55.938" transform="translate(13.659 2.298)" fill="#fff"/>
          <rect id="Rechteck_92" data-name="Rechteck 92" width="0.911" height="55.938" transform="translate(14.57 2.298)" fill="#fff"/>
          <rect id="Rechteck_93" data-name="Rechteck 93" width="0.911" height="55.938" transform="translate(15.481 2.298)" fill="#fff"/>
          <rect id="Rechteck_94" data-name="Rechteck 94" width="0.911" height="55.938" transform="translate(16.391 2.298)" fill="#fff"/>
          <rect id="Rechteck_95" data-name="Rechteck 95" width="0.911" height="55.938" transform="translate(17.302 2.298)" fill="#fff"/>
          <rect id="Rechteck_96" data-name="Rechteck 96" width="0.911" height="55.938" transform="translate(18.213 2.298)" fill="#fff"/>
          <rect id="Rechteck_97" data-name="Rechteck 97" width="0.911" height="55.938" transform="translate(19.123 2.298)" fill="#fff"/>
          <rect id="Rechteck_98" data-name="Rechteck 98" width="0.911" height="55.938" transform="translate(20.034 2.298)" fill="#fff"/>
          <rect id="Rechteck_99" data-name="Rechteck 99" width="0.911" height="55.938" transform="translate(20.944 2.298)" fill="#fff"/>
          <rect id="Rechteck_100" data-name="Rechteck 100" width="0.911" height="55.938" transform="translate(21.855 2.298)" fill="#fff"/>
          <rect id="Rechteck_101" data-name="Rechteck 101" width="0.911" height="55.938" transform="translate(22.766 2.298)" fill="#fff"/>
          <rect id="Rechteck_102" data-name="Rechteck 102" width="0.911" height="55.938" transform="translate(23.676 2.298)" fill="#fff"/>
          <rect id="Rechteck_103" data-name="Rechteck 103" width="0.911" height="55.938" transform="translate(24.587 2.298)" fill="#fff"/>
          <rect id="Rechteck_104" data-name="Rechteck 104" width="0.911" height="55.938" transform="translate(25.498 2.298)" fill="#fff"/>
          <rect id="Rechteck_105" data-name="Rechteck 105" width="0.911" height="55.938" transform="translate(26.408 2.298)" fill="#fff"/>
          <rect id="Rechteck_106" data-name="Rechteck 106" width="0.911" height="55.938" transform="translate(27.319 2.298)" fill="#fff"/>
          <rect id="Rechteck_107" data-name="Rechteck 107" width="0.911" height="55.938" transform="translate(28.229 2.298)" fill="#fff"/>
          <rect id="Rechteck_108" data-name="Rechteck 108" width="0.911" height="55.938" transform="translate(29.14 2.298)" fill="#fff"/>
          <rect id="Rechteck_109" data-name="Rechteck 109" width="0.911" height="55.938" transform="translate(30.051 2.298)" fill="#fff"/>
          <rect id="Rechteck_110" data-name="Rechteck 110" width="0.911" height="55.938" transform="translate(30.961 2.298)" fill="#fff"/>
          <rect id="Rechteck_111" data-name="Rechteck 111" width="0.911" height="55.938" transform="translate(31.872 2.298)" fill="#fff"/>
          <rect id="Rechteck_112" data-name="Rechteck 112" width="0.911" height="55.938" transform="translate(32.783 2.298)" fill="#fff"/>
          <rect id="Rechteck_113" data-name="Rechteck 113" width="0.911" height="55.938" transform="translate(33.693 2.298)" fill="#fff"/>
          <rect id="Rechteck_114" data-name="Rechteck 114" width="0.911" height="55.938" transform="translate(34.604 2.298)" fill="#fff"/>
          <rect id="Rechteck_115" data-name="Rechteck 115" width="0.911" height="55.938" transform="translate(35.514 2.298)" fill="#fff"/>
          <rect id="Rechteck_116" data-name="Rechteck 116" width="0.911" height="55.938" transform="translate(36.425 2.298)" fill="#fff"/>
          <rect id="Rechteck_117" data-name="Rechteck 117" width="0.911" height="55.938" transform="translate(37.336 2.298)" fill="#fff"/>
          <rect id="Rechteck_118" data-name="Rechteck 118" width="0.911" height="55.938" transform="translate(38.246 2.298)" fill="#fff"/>
          <rect id="Rechteck_119" data-name="Rechteck 119" width="0.911" height="55.938" transform="translate(39.157 2.298)" fill="#fff"/>
          <rect id="Rechteck_120" data-name="Rechteck 120" width="0.911" height="55.938" transform="translate(40.068 2.298)" fill="#fff"/>
          <rect id="Rechteck_121" data-name="Rechteck 121" width="0.911" height="55.938" transform="translate(40.978 2.298)" fill="#fff"/>
          <rect id="Rechteck_122" data-name="Rechteck 122" width="0.911" height="55.938" transform="translate(41.889 2.298)" fill="#fff"/>
          <rect id="Rechteck_123" data-name="Rechteck 123" width="0.911" height="55.938" transform="translate(42.799 2.298)" fill="#fff"/>
          <rect id="Rechteck_124" data-name="Rechteck 124" width="0.911" height="55.938" transform="translate(43.71 2.298)" fill="#fff"/>
          <rect id="Rechteck_125" data-name="Rechteck 125" width="0.911" height="55.938" transform="translate(44.621 2.298)" fill="#fff"/>
          <rect id="Rechteck_126" data-name="Rechteck 126" width="0.911" height="55.938" transform="translate(45.531 2.298)" fill="#fff"/>
          <rect id="Rechteck_127" data-name="Rechteck 127" width="0.911" height="55.938" transform="translate(46.442 2.298)" fill="#fff"/>
          <rect id="Rechteck_128" data-name="Rechteck 128" width="0.911" height="55.938" transform="translate(47.353 2.298)" fill="#fff"/>
          <rect id="Rechteck_129" data-name="Rechteck 129" width="0.911" height="55.938" transform="translate(48.263 2.298)" fill="#fff"/>
          <rect id="Rechteck_130" data-name="Rechteck 130" width="0.911" height="55.938" transform="translate(49.174 2.298)" fill="#fff"/>
          <rect id="Rechteck_131" data-name="Rechteck 131" width="0.911" height="55.938" transform="translate(50.084 2.298)" fill="#fff"/>
          <rect id="Rechteck_132" data-name="Rechteck 132" width="0.911" height="55.938" transform="translate(50.995 2.298)" fill="#fff"/>
          <rect id="Rechteck_133" data-name="Rechteck 133" width="0.911" height="55.938" transform="translate(51.906 2.298)" fill="#fff"/>
          <rect id="Rechteck_134" data-name="Rechteck 134" width="0.911" height="55.938" transform="translate(52.816 2.298)" fill="#fff"/>
          <rect id="Rechteck_135" data-name="Rechteck 135" width="0.911" height="55.938" transform="translate(53.727 2.298)" fill="#fff"/>
          <rect id="Rechteck_136" data-name="Rechteck 136" width="0.911" height="55.938" transform="translate(54.638 2.298)" fill="#fff"/>
          <rect id="Rechteck_137" data-name="Rechteck 137" width="0.911" height="55.938" transform="translate(55.548 2.298)" fill="#fff"/>
          <rect id="Rechteck_138" data-name="Rechteck 138" width="0.767" height="55.938" transform="translate(56.459 2.298)" fill="#fff"/>
          <path id="Pfad_561" data-name="Pfad 561" d="M144.214,100.867v0Z" transform="translate(-144.214 -100.867)" fill="#fff"/>
          <rect id="Rechteck_139" data-name="Rechteck 139" width="0.911" height="60.485" transform="translate(0 0)" fill="#fff"/>
          <rect id="Rechteck_140" data-name="Rechteck 140" width="0.911" height="60.485" transform="translate(0.911 0)" fill="#fff"/>
          <rect id="Rechteck_141" data-name="Rechteck 141" width="0.911" height="60.485" transform="translate(1.821 0)" fill="#fff"/>
          <rect id="Rechteck_142" data-name="Rechteck 142" width="0.911" height="60.485" transform="translate(2.732 0)" fill="#fff"/>
          <rect id="Rechteck_143" data-name="Rechteck 143" width="0.911" height="60.485" transform="translate(3.643 0)" fill="#fff"/>
          <rect id="Rechteck_144" data-name="Rechteck 144" width="0.911" height="60.485" transform="translate(4.553 0)" fill="#fff"/>
          <rect id="Rechteck_145" data-name="Rechteck 145" width="0.911" height="60.485" transform="translate(5.464 0)" fill="#fff"/>
          <rect id="Rechteck_146" data-name="Rechteck 146" width="0.911" height="60.485" transform="translate(6.374 0)" fill="#fff"/>
          <rect id="Rechteck_147" data-name="Rechteck 147" width="0.911" height="60.485" transform="translate(7.285 0)" fill="#fff"/>
          <rect id="Rechteck_148" data-name="Rechteck 148" width="0.911" height="60.485" transform="translate(8.196 0)" fill="#fff"/>
          <rect id="Rechteck_149" data-name="Rechteck 149" width="0.911" height="60.485" transform="translate(9.106 0)" fill="#fff"/>
          <rect id="Rechteck_150" data-name="Rechteck 150" width="0.911" height="60.485" transform="translate(10.017 0)" fill="#fff"/>
          <rect id="Rechteck_151" data-name="Rechteck 151" width="0.911" height="60.485" transform="translate(10.928 0)" fill="#fff"/>
          <rect id="Rechteck_152" data-name="Rechteck 152" width="0.911" height="60.485" transform="translate(11.838 0)" fill="#fff"/>
          <rect id="Rechteck_153" data-name="Rechteck 153" width="0.911" height="60.485" transform="translate(12.749 0)" fill="#fff"/>
          <rect id="Rechteck_154" data-name="Rechteck 154" width="0.911" height="60.485" transform="translate(13.659 0)" fill="#fff"/>
          <rect id="Rechteck_155" data-name="Rechteck 155" width="0.911" height="60.485" transform="translate(14.57 0)" fill="#fff"/>
          <rect id="Rechteck_156" data-name="Rechteck 156" width="0.911" height="60.485" transform="translate(15.481 0)" fill="#fff"/>
          <rect id="Rechteck_157" data-name="Rechteck 157" width="0.911" height="60.485" transform="translate(16.391 0)" fill="#fff"/>
          <rect id="Rechteck_158" data-name="Rechteck 158" width="0.911" height="60.485" transform="translate(17.302 0)" fill="#fff"/>
          <rect id="Rechteck_159" data-name="Rechteck 159" width="0.911" height="60.485" transform="translate(18.213 0)" fill="#fff"/>
          <rect id="Rechteck_160" data-name="Rechteck 160" width="0.911" height="60.485" transform="translate(19.123 0)" fill="#fff"/>
          <rect id="Rechteck_161" data-name="Rechteck 161" width="0.911" height="60.485" transform="translate(20.034 0)" fill="#fff"/>
          <rect id="Rechteck_162" data-name="Rechteck 162" width="0.911" height="60.485" transform="translate(20.944 0)" fill="#fff"/>
          <rect id="Rechteck_163" data-name="Rechteck 163" width="0.911" height="60.485" transform="translate(21.855 0)" fill="#fff"/>
          <rect id="Rechteck_164" data-name="Rechteck 164" width="0.911" height="60.485" transform="translate(22.766 0)" fill="#fff"/>
          <rect id="Rechteck_165" data-name="Rechteck 165" width="0.911" height="60.485" transform="translate(23.676 0)" fill="#fff"/>
          <rect id="Rechteck_166" data-name="Rechteck 166" width="0.911" height="60.485" transform="translate(24.587 0)" fill="#fff"/>
          <rect id="Rechteck_167" data-name="Rechteck 167" width="0.911" height="60.485" transform="translate(25.498 0)" fill="#fff"/>
          <rect id="Rechteck_168" data-name="Rechteck 168" width="0.911" height="60.485" transform="translate(26.408 0)" fill="#fff"/>
          <rect id="Rechteck_169" data-name="Rechteck 169" width="0.911" height="60.485" transform="translate(27.319 0)" fill="#fff"/>
          <rect id="Rechteck_170" data-name="Rechteck 170" width="0.911" height="60.485" transform="translate(28.229 0)" fill="#fff"/>
          <rect id="Rechteck_171" data-name="Rechteck 171" width="0.911" height="60.485" transform="translate(29.14 0)" fill="#fff"/>
          <rect id="Rechteck_172" data-name="Rechteck 172" width="0.911" height="60.485" transform="translate(30.051 0)" fill="#fff"/>
          <rect id="Rechteck_173" data-name="Rechteck 173" width="0.911" height="60.485" transform="translate(30.961 0)" fill="#fff"/>
          <rect id="Rechteck_174" data-name="Rechteck 174" width="0.911" height="60.485" transform="translate(31.872 0)" fill="#fff"/>
          <rect id="Rechteck_175" data-name="Rechteck 175" width="0.911" height="60.485" transform="translate(32.783 0)" fill="#fff"/>
          <rect id="Rechteck_176" data-name="Rechteck 176" width="0.911" height="60.485" transform="translate(33.693 0)" fill="#fff"/>
          <rect id="Rechteck_177" data-name="Rechteck 177" width="0.911" height="60.485" transform="translate(34.604 0)" fill="#fff"/>
          <rect id="Rechteck_178" data-name="Rechteck 178" width="0.911" height="60.485" transform="translate(35.514 0)" fill="#fff"/>
          <rect id="Rechteck_179" data-name="Rechteck 179" width="0.911" height="60.485" transform="translate(36.425 0)" fill="#fff"/>
          <rect id="Rechteck_180" data-name="Rechteck 180" width="0.911" height="60.485" transform="translate(37.336 0)" fill="#fff"/>
          <rect id="Rechteck_181" data-name="Rechteck 181" width="0.911" height="60.485" transform="translate(38.246 0)" fill="#fff"/>
          <rect id="Rechteck_182" data-name="Rechteck 182" width="0.911" height="60.485" transform="translate(39.157 0)" fill="#fff"/>
          <rect id="Rechteck_183" data-name="Rechteck 183" width="0.911" height="60.485" transform="translate(40.068 0)" fill="#fff"/>
          <rect id="Rechteck_184" data-name="Rechteck 184" width="0.911" height="60.485" transform="translate(40.978 0)" fill="#fff"/>
          <rect id="Rechteck_185" data-name="Rechteck 185" width="0.911" height="60.485" transform="translate(41.889 0)" fill="#fff"/>
          <rect id="Rechteck_186" data-name="Rechteck 186" width="0.911" height="60.485" transform="translate(42.799 0)" fill="#fff"/>
          <rect id="Rechteck_187" data-name="Rechteck 187" width="0.911" height="60.485" transform="translate(43.71 0)" fill="#fff"/>
          <rect id="Rechteck_188" data-name="Rechteck 188" width="0.911" height="60.485" transform="translate(44.621 0)" fill="#fff"/>
          <rect id="Rechteck_189" data-name="Rechteck 189" width="0.911" height="60.485" transform="translate(45.531 0)" fill="#fff"/>
          <rect id="Rechteck_190" data-name="Rechteck 190" width="0.911" height="60.485" transform="translate(46.442 0)" fill="#fff"/>
          <rect id="Rechteck_191" data-name="Rechteck 191" width="0.911" height="60.485" transform="translate(47.353 0)" fill="#fff"/>
          <rect id="Rechteck_192" data-name="Rechteck 192" width="0.911" height="60.485" transform="translate(48.263 0)" fill="#fff"/>
          <rect id="Rechteck_193" data-name="Rechteck 193" width="0.911" height="60.485" transform="translate(49.174 0)" fill="#fff"/>
          <rect id="Rechteck_194" data-name="Rechteck 194" width="0.911" height="60.485" transform="translate(50.084 0)" fill="#fff"/>
          <rect id="Rechteck_195" data-name="Rechteck 195" width="0.911" height="60.485" transform="translate(50.995 0)" fill="#fff"/>
          <rect id="Rechteck_196" data-name="Rechteck 196" width="0.911" height="60.485" transform="translate(51.906 0)" fill="#fff"/>
          <rect id="Rechteck_197" data-name="Rechteck 197" width="0.911" height="60.485" transform="translate(52.816 0)" fill="#fff"/>
          <rect id="Rechteck_198" data-name="Rechteck 198" width="0.911" height="60.485" transform="translate(53.727 0)" fill="#fff"/>
          <rect id="Rechteck_199" data-name="Rechteck 199" width="0.911" height="60.485" transform="translate(54.638 0)" fill="#fff"/>
          <rect id="Rechteck_200" data-name="Rechteck 200" width="0.911" height="60.485" transform="translate(55.548 0)" fill="#fff"/>
          <rect id="Rechteck_201" data-name="Rechteck 201" width="0.911" height="60.485" transform="translate(56.459 0)" fill="#fff"/>
          <rect id="Rechteck_202" data-name="Rechteck 202" width="0.911" height="60.485" transform="translate(57.369 0)" fill="#fff"/>
          <rect id="Rechteck_203" data-name="Rechteck 203" width="1.346" height="60.485" transform="translate(58.28 0)" fill="#fff"/>
        </g>
      </g>
    </g>
    <g id="Gruppe_93" data-name="Gruppe 93" transform="translate(155.463 172.579)">
      <path id="Pfad_563" data-name="Pfad 563" d="M182.995,349.3h-2.943V330.248h4.886c1.914,0,3.114.371,4,1.229a7.274,7.274,0,0,1,0,8.885c-.886.857-2.086,1.228-4,1.228h-1.943Zm1.286-10.428c2.371,0,3.114-.714,3.114-2.971,0-2.229-.743-2.943-3.114-2.943h-1.286v5.914Z" transform="translate(-180.052 -329.962)" fill="#fff"/>
      <path id="Pfad_564" data-name="Pfad 564" d="M232.423,349.3H229.48V330.248h4.6a5.28,5.28,0,0,1,3.771,1.143,5.373,5.373,0,0,1,1.714,4.314c0,2.4-.857,4.057-2.571,4.942l2.8,8.657h-3.085l-2.514-7.828h-1.771Zm1.086-10.542c1.257,0,1.828-.143,2.285-.6a4.059,4.059,0,0,0,0-4.6c-.457-.457-1.028-.6-2.285-.6h-1.086v5.8Z" transform="translate(-213.966 -329.962)" fill="#fff"/>
      <path id="Pfad_565" data-name="Pfad 565" d="M281.471,345.161,280.7,349.3h-2.885l3.657-19.056H285.5l3.857,19.056h-3.029l-.8-4.143Zm2-11.256-1.543,8.543h3.114Z" transform="translate(-247.129 -329.962)" fill="#fff"/>
      <path id="Pfad_566" data-name="Pfad 566" d="M341.147,349.3H337.89l-2.914-6.943L332.29,349.3h-3.228l4.257-9.943-4.085-9.113h3.257l2.543,6.114,2.371-6.114h3.2l-3.914,9.113Z" transform="translate(-282.291 -329.962)" fill="#fff"/>
      <path id="Pfad_567" data-name="Pfad 567" d="M385.528,349.3h-2.943V330.248h2.943Z" transform="translate(-319.014 -329.962)" fill="#fff"/>
      <path id="Pfad_568" data-name="Pfad 568" d="M415.582,334.937c-.457-1.885-1.314-2.828-2.514-2.828a1.886,1.886,0,0,0-1.914,1.943,2.859,2.859,0,0,0,.8,1.914,13.667,13.667,0,0,0,2.514,2.085,15.942,15.942,0,0,1,2.828,2.572,5.568,5.568,0,0,1,1.229,3.485c0,2.886-2.114,4.857-5.228,4.857-3.257,0-5.171-1.743-5.771-5.371l2.829-.829c.371,2.286,1.371,3.428,2.943,3.428a2.069,2.069,0,0,0,2.171-2.171c0-1.2-.6-1.971-2.828-3.714-2.657-2.086-2.772-2.2-3.486-3.114a5.167,5.167,0,0,1-1.057-3.171,4.641,4.641,0,0,1,4.971-4.686c2.714,0,4.542,1.628,5.343,4.771Z" transform="translate(-336.126 -329.337)" fill="#fff"/>
      <path id="Pfad_569" data-name="Pfad 569" d="M182.995,435.129h-2.943V416.073h4.886c1.914,0,3.114.371,4,1.229a7.275,7.275,0,0,1,0,8.885c-.886.857-2.086,1.228-4,1.228h-1.943Zm1.286-10.428c2.371,0,3.114-.714,3.114-2.971,0-2.229-.743-2.943-3.114-2.943h-1.286V424.7Z" transform="translate(-180.052 -388.848)" fill="#fff"/>
      <path id="Pfad_570" data-name="Pfad 570" d="M232.423,432.415h5.857v2.714h-8.8V416.073h2.943Z" transform="translate(-213.966 -388.848)" fill="#fff"/>
      <path id="Pfad_571" data-name="Pfad 571" d="M281.072,418.787h-5.685v5.028h4.2v2.714h-4.2v5.886h5.685v2.714h-8.628V416.073h8.628Z" transform="translate(-243.444 -388.848)" fill="#fff"/>
      <path id="Pfad_572" data-name="Pfad 572" d="M321.916,420.763c-.457-1.885-1.314-2.828-2.514-2.828a1.886,1.886,0,0,0-1.914,1.943,2.861,2.861,0,0,0,.8,1.914,13.663,13.663,0,0,0,2.514,2.085,15.943,15.943,0,0,1,2.828,2.571,5.569,5.569,0,0,1,1.229,3.486c0,2.885-2.114,4.857-5.228,4.857-3.257,0-5.171-1.743-5.771-5.371l2.829-.829c.371,2.285,1.371,3.428,2.943,3.428a2.069,2.069,0,0,0,2.171-2.171c0-1.2-.6-1.971-2.828-3.714-2.657-2.085-2.771-2.2-3.485-3.114a5.166,5.166,0,0,1-1.057-3.171,4.641,4.641,0,0,1,4.971-4.686c2.714,0,4.542,1.628,5.343,4.771Z" transform="translate(-271.86 -388.224)" fill="#fff"/>
      <path id="Pfad_573" data-name="Pfad 573" d="M372.205,421.648v-.4c0-2.2-.772-3.314-2.229-3.314a1.862,1.862,0,0,0-1.743.943,4.837,4.837,0,0,0-.457,2.743v6.342a8.155,8.155,0,0,0,.315,2.829,1.981,1.981,0,0,0,1.885,1.228,2.108,2.108,0,0,0,2.114-1.885,10.74,10.74,0,0,0,.171-2.314h2.971v.657c0,4.143-1.8,6.314-5.228,6.314a4.709,4.709,0,0,1-4.257-2.114c-.714-1.171-.914-2.286-.914-5.114V422.22c0-3.028.228-4.085,1.114-5.285a4.775,4.775,0,0,1,4.028-1.772c3.257,0,5.171,2.171,5.171,5.914v.571Z" transform="translate(-306.835 -388.224)" fill="#fff"/>
      <path id="Pfad_574" data-name="Pfad 574" d="M417.932,426.73v8.4h-2.943V416.073h2.943v7.942h4.2v-7.942h2.943v19.056h-2.943v-8.4Z" transform="translate(-341.247 -388.848)" fill="#fff"/>
      <path id="Pfad_575" data-name="Pfad 575" d="M475.5,416.073v12.913c0,2.4-.286,3.628-1.086,4.715a5.425,5.425,0,0,1-7.914,0c-.8-1.086-1.086-2.314-1.086-4.715V416.073h2.943v13.4c0,2.257.6,3.171,2.114,3.171,1.486,0,2.086-.914,2.086-3.171v-13.4Z" transform="translate(-375.847 -388.848)" fill="#fff"/>
      <path id="Pfad_576" data-name="Pfad 576" d="M519.835,435.129h-2.943V418.787h-3.685v-2.714h10.342v2.714h-3.714Z" transform="translate(-408.636 -388.848)" fill="#fff"/>
      <path id="Pfad_577" data-name="Pfad 577" d="M569.328,435.129h-9.971v-2.771l6.657-13.571h-6.028v-2.714h9.257v2.714l-6.628,13.628h6.714Z" transform="translate(-440.301 -388.848)" fill="#fff"/>
      <path id="Pfad_578" data-name="Pfad 578" d="M617.262,435.129h-2.628l-5.143-12.685v12.685h-2.8V416.073h2.971l4.8,11.856V416.073h2.8Z" transform="translate(-472.778 -388.848)" fill="#fff"/>
      <path id="Pfad_579" data-name="Pfad 579" d="M661.611,435.129h-2.943V416.073h2.943Z" transform="translate(-508.44 -388.848)" fill="#fff"/>
      <path id="Pfad_580" data-name="Pfad 580" d="M696.194,425.048V434.5h-1.515l-.543-1.628a3.976,3.976,0,0,1-3.571,1.914,4.314,4.314,0,0,1-3.943-2.228c-.628-1.229-.828-2.457-.828-5.085V422.22c0-3.028.229-4.114,1.114-5.285a4.813,4.813,0,0,1,4.029-1.772,4.707,4.707,0,0,1,4.485,2.543,8.409,8.409,0,0,1,.686,3.943h-2.943c0-2.628-.657-3.714-2.257-3.714a1.863,1.863,0,0,0-1.743.971,5.171,5.171,0,0,0-.428,2.743v5.828a10.058,10.058,0,0,0,.314,3.114,2.057,2.057,0,0,0,2,1.428c1.543,0,2.2-1.114,2.2-3.771v-.771h-2.429v-2.429Z" transform="translate(-527.052 -388.224)" fill="#fff"/>
    </g>
  </g>
</svg>
