<svg xmlns="http://www.w3.org/2000/svg" width="187.383" height="105.258" viewBox="0 0 187.383 105.258">
  <g id="Gruppe_365" data-name="Gruppe 365" transform="translate(-1500.837 596.632)" opacity="0.752">
    <path id="Pfad_882" data-name="Pfad 882" d="M1713.164-556.468H1731.5v-10.041h20.542L1726.1-511.243h-9.985v18.156h40.43v-18.156h-10.067l26.108-55.265v-18.367h-59.417Z" transform="translate(-91.087 -4.507)" fill="#7a6d65"/>
    <path id="Pfad_883" data-name="Pfad 883" d="M1515.743-555.309c.11.383-.027.656-.356.738l-3.179.929a.481.481,0,0,1-.685-.383,2.778,2.778,0,0,0-2.987-2.323c-2.466,0-3.069,1.64-3.069,3.635v4.865c0,1.995.739,3.635,3.069,3.635a2.852,2.852,0,0,0,3.124-2.569.464.464,0,0,1,.685-.383l3.179,1.011c.329.11.438.356.356.738-.658,2.952-2.768,5.466-7.4,5.466-5.151,0-7.645-3.362-7.645-7.789v-5.084c0-4.428,2.548-7.789,7.645-7.789C1512.976-560.611,1515-558.206,1515.743-555.309Z" transform="translate(0 -14.917)" fill="#7a6d65"/>
    <path id="Pfad_884" data-name="Pfad 884" d="M1550.694-559.6v19.132a.391.391,0,0,1-.438.437H1546.5a.4.4,0,0,1-.439-.437v-7.406h-6.521v7.406a.391.391,0,0,1-.438.437h-3.754a.4.4,0,0,1-.439-.437V-559.6a.4.4,0,0,1,.439-.437h3.754a.391.391,0,0,1,.438.437v7.461h6.521V-559.6a.4.4,0,0,1,.439-.437h3.754A.391.391,0,0,1,1550.694-559.6Z" transform="translate(-14.617 -15.163)" fill="#7a6d65"/>
    <path id="Pfad_885" data-name="Pfad 885" d="M1587.016-540.031h-3.864c-.329,0-.438-.137-.548-.437l-1.151-3.854h-6.192l-1.151,3.854a.6.6,0,0,1-.63.437h-3.562a.342.342,0,0,1-.329-.492l5.864-19.077a.556.556,0,0,1,.576-.437h4.658a.591.591,0,0,1,.658.437l5.973,19.077A.332.332,0,0,1,1587.016-540.031Zm-6.8-8.445-.274-.875a60.731,60.731,0,0,1-1.507-6.04h-.11a60.793,60.793,0,0,1-1.562,6.122l-.247.793Z" transform="translate(-29.483 -15.163)" fill="#7a6d65"/>
    <path id="Pfad_886" data-name="Pfad 886" d="M1612.249-559.6v15.305h7.4c.274,0,.411.191.411.492v3.361a.416.416,0,0,1-.384.41h-11.618a.4.4,0,0,1-.439-.437V-559.6a.4.4,0,0,1,.439-.437h3.753A.391.391,0,0,1,1612.249-559.6Z" transform="translate(-45.809 -15.163)" fill="#7a6d65"/>
    <path id="Pfad_887" data-name="Pfad 887" d="M1649.328-559.6v3.252a.391.391,0,0,1-.439.437h-7.508v3.717h6.713a.4.4,0,0,1,.439.437v3.089a.391.391,0,0,1-.439.437h-6.713v4.072h7.563a.4.4,0,0,1,.438.437v3.252a.391.391,0,0,1-.438.437h-11.755a.4.4,0,0,1-.438-.437V-559.6a.4.4,0,0,1,.438-.437h11.7A.4.4,0,0,1,1649.328-559.6Z" transform="translate(-58.306 -15.163)" fill="#7a6d65"/>
    <path id="Pfad_888" data-name="Pfad 888" d="M1680.712-559.627v3.444a.414.414,0,0,1-.384.41h-5.015v15.305a.427.427,0,0,1-.411.437h-3.863a.4.4,0,0,1-.356-.437v-15.305h-5.042a.414.414,0,0,1-.384-.41v-3.444a.414.414,0,0,1,.384-.41h14.688A.414.414,0,0,1,1680.712-559.627Z" transform="translate(-70.535 -15.163)" fill="#7a6d65"/>
    <path id="Pfad_889" data-name="Pfad 889" d="M1570.121-478.674c-1.277-4.5,1.281-10.523,9.359-12.805,4.23-1.2,8.458-1.082,13.061-1.224,3.913-7.457,7.86-14.923,13.338-16.471,3.468-.98,7.184-.685,7.322-.2.049.172-.219.547-.517,1.08a76.363,76.363,0,0,0-4.688,11.449c-.2.616-.4,1.233-.574,1.806,3.755-1.285,4.248-2.321,4.452-2.789l.485.124c-.249.706-1,5.7-5.753,7.043l-.416.118c-.59,2.669-.827,4.6-.63,5.3a1.662,1.662,0,0,0,2.265,1.116c1.456-.411,2.793-2.694,2.893-3.134a4.026,4.026,0,0,0,.489.273l-.01-.034c.059.207-1.553,6.005-5.228,7.043-2.079.588-3.993-.74-4.72-3.3a14.034,14.034,0,0,1,.079-6.187,51.037,51.037,0,0,1-7.234.774c-3.679,6.83-7.945,13.3-13.667,14.919-5.478,1.547-9.233-1.127-10.3-4.9Zm9.518-8.816c-6.206,1.754-8.116,5.58-7.32,8.382.678,2.386,3.362,4.056,7,3.027,4.4-1.244,7.806-6.539,11.082-12.545A38.792,38.792,0,0,0,1579.639-487.49Zm27.32-19.86c-3.849,1.087-7.076,7.528-10.679,14.486a49.84,49.84,0,0,0,6.07-.781c.29-1.091.668-2.132,1.012-3.163,1.879-5.387,4.117-10.166,4.029-10.477C1607.35-507.423,1607.028-507.37,1606.959-507.35Z" transform="translate(-29.589 -36.704)" fill="#7a6d65"/>
    <path id="Pfad_890" data-name="Pfad 890" d="M1654.129-496.956a10.4,10.4,0,0,0-2.185.333c-.528.149-.8.319-1.884.722.55,2.94-.049,8.635-1.478,13.523-1.771,6.027-4.767,11.421-6.144,11.81-.616.174-1.329-.666-1.545-1.426-.457-1.608,1.922-9.512,3.675-16.828.519-2.073.992-3.975,1.406-5.639a1.518,1.518,0,0,1-1.529-1.147,3.633,3.633,0,0,1-.274-1.185c-.021-.184.022-.259.227-.317a5.565,5.565,0,0,0,.871-.057c.41-.116,1.169-.678,1.55-.785.6-2.252.979-3.687,1.134-4.142.329-.851,1.078-2.894,1.9-3.126.557-.158,1.414.074,1.547.542a20.286,20.286,0,0,1-1.1,5.49l.176-.05c1.545-.468,2.6.119,2.918.691.384.681.781,1.075.855,1.337A.2.2,0,0,1,1654.129-496.956Zm-5.707,5.212c-.059.017-1.051,3.77-1.773,6.911-.714,3.17-1.791,7.517-1.775,7.576a.081.081,0,0,0,.113.063,44.008,44.008,0,0,0,2.553-7.511,35.481,35.481,0,0,0,1.024-6.985C1648.548-491.747,1648.481-491.76,1648.423-491.743Z" transform="translate(-60.058 -38.658)" fill="#7a6d65"/>
    <path id="Pfad_891" data-name="Pfad 891" d="M1673.372-501.511c-.381.107-.285.111-1.546.468-1.023,4.647-2.121,9.252-1.731,10.626a1.065,1.065,0,0,0,1.387.871c1.876-.53,3.513-6.583,3.777-6.657s.523.389.68.945-2.366,8.279-4.916,9c-1.9.538-4.381.07-4.862-1.626-.582-2.047,1.018-8.34,1.711-11.473l.169-.742c-.6.107-1.561.188-1.769-.542a6.642,6.642,0,0,1-.281-1.215c-.012-.155.03-.23.235-.287.147-.042.565-.128.917-.228.41-.116,1.24-.54,1.5-.614.609-2.762,1.332-5.682,1.683-5.781a2.332,2.332,0,0,1,2.708,1.288,13.181,13.181,0,0,1-.589,3.609l1.583-.448c.557-.157.87-.056.944.207A2.451,2.451,0,0,1,1673.372-501.511Z" transform="translate(-70.849 -37.122)" fill="#7a6d65"/>
    <path id="Pfad_892" data-name="Pfad 892" d="M1691.722-487.736c-1.993.563-4.119-1.016-4.8-3.413-1.054-3.712,1.449-11.62,5.377-12.729,1.055-.3,1.521-.777,2.136-.951a2.249,2.249,0,0,1,2.448,1.708c.623,2.192-1.551,6.912-6.27,8.245a.851.851,0,0,1-.272.045,6.539,6.539,0,0,0,.065,2.571c.366,1.287,1.067,1.973,2.152,1.666,3.9-1.1,5.478-7.8,5.83-7.9.322-.091.5.427.625.865C1699.311-496.575,1696.587-489.111,1691.722-487.736Zm2.314-15.149c-1.025.29-2.644,3.4-3.379,6.387,2.175-1.151,4.521-4.372,4.048-6.038A.476.476,0,0,0,1694.036-502.885Z" transform="translate(-79.725 -38.825)" fill="#7a6d65"/>
    <path id="Pfad_893" data-name="Pfad 893" d="M1718.852-495.891a3.142,3.142,0,0,1-4.187-2.259c-.814-2.865,1.649-9.245,1.624-9.332a3.8,3.8,0,0,0-1.6-.054c-.118.033-.2.087-.21.154-.772,2.745-1.6,5.285-2.213,7.036a.426.426,0,0,1-.256.325c-.263.075-.539-.227-.689-.753a1.64,1.64,0,0,1,.081-.717,25.014,25.014,0,0,0,.98-3.909c.381-2,.2-3.309.383-4.782.171-1.627.528-2.044,1.5-2.317.439-.124.749.073.89.57a1.809,1.809,0,0,1-.035.989c.033.117.234.155.7.023,1.378-.389,2.953-1.087,3.363-1.2.82-.232,2.362,1.069,2.552,1.742.15.526-.626,1.251-1.063,2.164-.774,1.513-2.588,6.605-1.941,8.885a.422.422,0,0,0,.535.322c.733-.207,1.728-1.719,2.376-3.228.731-1.66,1.255-3.386,1.4-3.428.264-.074.53.419.68.944C1723.88-504.164,1721.4-496.612,1718.852-495.891Z" transform="translate(-90.289 -35.54)" fill="#7a6d65"/>
    <path id="Pfad_894" data-name="Pfad 894" d="M1732.914-477.868" transform="translate(-99.559 -50.413)" fill="none" stroke="#f0b400" stroke-miterlimit="10" stroke-width="1.155"/>
    <path id="Pfad_895" data-name="Pfad 895" d="M1703.576-555.726v-39.657h70.368v25.374l-22.755,48.177h7.041v29.208h-51.79v-29.289H1718.6l20.989-44.179h-6.564v10.365Z" transform="translate(-86.973 0)" fill="none" stroke="#7a6d65" stroke-miterlimit="10" stroke-width="2.499"/>
  </g>
</svg>
