<svg xmlns="http://www.w3.org/2000/svg" width="219.998" height="86.183" viewBox="0 0 219.998 86.183">
  <g id="Gruppe_88" data-name="Gruppe 88" transform="translate(-69.414 -322.685)">
    <g id="Gruppe_83" data-name="Gruppe 83" transform="translate(77.863 380.776)">
      <path id="Pfad_294" data-name="Pfad 294" d="M89.781,454.752c.192.442.383.87.59,1.284s.443.8.649,1.2.4.826.62,1.225c.236.472.516.915.767,1.387.221.4.413.8.635,1.2.206.339.4.664.59,1s.384.723.561,1.077c.723-1.269,1.446-2.538,2.154-3.821.811-1.476,1.623-2.966,2.435-4.442H99c.177,1.8.34,3.615.561,5.415.206,1.712.457,3.438.693,5.149a7.506,7.506,0,0,0-1.49-.029c-.074-1.313-.147-2.641-.265-3.939s-.31-2.582-.5-3.866c-.694,1.239-1.4,2.479-2.1,3.718-.457.841-.915,1.7-1.343,2.553-.221.472-.428.945-.634,1.431h-.133c-.162-.368-.324-.738-.487-1.091-.162-.31-.34-.635-.487-.945-.192-.4-.369-.782-.576-1.18-.236-.428-.487-.856-.708-1.3-.266-.472-.5-.944-.753-1.416-.339-.6-.693-1.224-1.032-1.814-.192,1.4-.369,2.818-.517,4.234-.118,1.181-.206,2.376-.3,3.556H87.878c.118-.472.236-.959.324-1.431.133-.679.236-1.358.34-2.036.088-.561.162-1.136.251-1.7.251-1.8.472-3.615.693-5.415Z" transform="translate(-87.878 -452.406)" fill="#8c8179"/>
      <path id="Pfad_295" data-name="Pfad 295" d="M121.4,454.945c.31.856.6,1.727.929,2.582.324.811.664,1.608.959,2.434.206.546.4,1.092.6,1.638s.413,1.063.62,1.609c.162.427.324.87.5,1.3.133.31.281.635.428.944a9.816,9.816,0,0,0-1.593-.044,20.785,20.785,0,0,0-1.284-3.954h-3.9c-.383.738-.752,1.491-1.091,2.242-.251.576-.458,1.166-.694,1.741a3.438,3.438,0,0,0-.546-.044c-.162,0-.34.015-.5.03.28-.487.561-.988.826-1.49.339-.635.649-1.284.974-1.933.443-.841.915-1.681,1.343-2.538.324-.679.634-1.357.959-2.036.221-.458.472-.915.693-1.387.177-.354.34-.723.5-1.092Zm-1.416,3.674c-.369.723-.708,1.46-1.048,2.2.664.03,1.328.059,2.007.059.457,0,.929-.015,1.387-.044a29.223,29.223,0,0,0-1.46-3.925C120.572,457.468,120.262,458.044,119.982,458.619Z" transform="translate(-103.042 -452.51)" fill="#8c8179"/>
      <path id="Pfad_296" data-name="Pfad 296" d="M139.083,449.625a11.012,11.012,0,0,0,1.844,1.461l-.767.369c-.222-.221-.428-.457-.664-.678s-.472-.414-.723-.62l-1.328,1.284-.649-.4a9.737,9.737,0,0,0,1.726-1.417Zm.487,2.567c-.059.472-.1.959-.118,1.446-.029.8-.015,1.608-.029,2.4-.015,1.063-.044,2.125-.044,3.2,0,1.122.044,2.228.1,3.349a5.462,5.462,0,0,0-.708-.059,6.1,6.1,0,0,0-.723.059c.059-.664.1-1.343.133-2.021.029-.723.029-1.461.029-2.213,0-1.062-.015-2.14,0-3.217,0-.516.015-1.048,0-1.564-.015-.473-.044-.93-.074-1.388A11.481,11.481,0,0,0,139.57,452.192Z" transform="translate(-114.41 -449.625)" fill="#8c8179"/>
      <path id="Pfad_297" data-name="Pfad 297" d="M149.23,458.367c.015-.561.029-1.136,0-1.711a6.886,6.886,0,0,0-.044-.782,22.415,22.415,0,0,0-3.231.074v-.841a16.171,16.171,0,0,0,2.671.133c1.136,0,2.3.03,3.452,0,.517-.015,1.018-.044,1.534-.074a5.222,5.222,0,0,0,0,.841c-.561-.044-1.136-.088-1.7-.1-.487-.03-.959-.044-1.446-.044-.029,1.756-.059,3.5-.059,5.252,0,1.49.03,2.981.074,4.471a5.232,5.232,0,0,0-1.358-.029c.059-1.623.1-3.246.1-4.869Z" transform="translate(-119.377 -452.598)" fill="#8c8179"/>
      <path id="Pfad_298" data-name="Pfad 298" d="M167.3,455.213c.5,0,.988-.015,1.475-.015a3.187,3.187,0,0,1,2.567.989,2.288,2.288,0,0,1,.443,1.387,2.769,2.769,0,0,1-.162.9,2.98,2.98,0,0,1-1.755,1.623,5.528,5.528,0,0,1-1.3.3c.118.118.251.206.354.324a8.181,8.181,0,0,1,.9,1.107c.221.28.457.546.693.826.207.251.4.5.6.767.222.266.458.546.693.812s.458.575.708.841c.162.192.354.368.531.546a6.055,6.055,0,0,0-.9-.074,7.844,7.844,0,0,0-.826.059c-.221-.31-.428-.62-.649-.915s-.443-.575-.679-.856c-.266-.339-.517-.693-.782-1.018-.207-.236-.413-.472-.6-.723-.221-.265-.443-.545-.664-.826-.281-.325-.59-.62-.9-.929-.015.945-.029,1.9,0,2.848.015.8.074,1.593.133,2.4a5.188,5.188,0,0,0-.679-.044c-.265,0-.5.03-.752.044.059-.812.118-1.623.133-2.449.015-1.033.015-2.081.015-3.128,0-1.623-.044-3.246-.089-4.869C166.314,455.168,166.816,455.2,167.3,455.213Zm-.236,3.32c-.015.486-.015.988,0,1.475.28.015.561.044.856.044a3.524,3.524,0,0,0,1.121-.163,2.105,2.105,0,0,0,1.416-2.139,2.026,2.026,0,0,0-.649-1.579,2.18,2.18,0,0,0-1.49-.457c-.4,0-.782.03-1.166.059C167.11,456.7,167.081,457.618,167.066,458.533Z" transform="translate(-130.115 -452.616)" fill="#8c8179"/>
      <path id="Pfad_299" data-name="Pfad 299" d="M189.239,460.542a17.532,17.532,0,0,0-3.394-.147c-.029,1.062-.044,2.11-.029,3.157.015.443.029.871.044,1.3.664.015,1.343.03,2.007.015.6-.015,1.224-.044,1.829-.088v.826c-.944-.044-1.889-.074-2.833-.074-.8,0-1.579.029-2.376.059.059-.871.118-1.727.133-2.6.03-1,.03-2.021.03-3.04,0-.427.015-.856.015-1.3,0-1.166-.044-2.332-.074-3.482.959.059,1.918.118,2.862.118.738,0,1.475-.044,2.2-.074a2.1,2.1,0,0,0-.015.8c-.708-.044-1.4-.1-2.11-.118-.517-.015-1.048,0-1.564,0-.044.6-.074,1.21-.088,1.83-.03.679-.015,1.357-.015,2.051.517,0,1.033.015,1.55.015.6,0,1.225-.03,1.83-.059Z" transform="translate(-140.277 -452.633)" fill="#8c8179"/>
      <path id="Pfad_300" data-name="Pfad 300" d="M216.956,456.756a5.089,5.089,0,0,0-.487-.576,3.638,3.638,0,0,0-2.449-.855,3.942,3.942,0,0,0-1.9.443c-.929.5-2.154,1.756-2.154,4.309a6.114,6.114,0,0,0,.752,3.039,4.071,4.071,0,0,0,.944,1,4.377,4.377,0,0,0,2.686.915,4.076,4.076,0,0,0,2.154-.62,3.259,3.259,0,0,0,.664-.545h.177l-.281,1.092a8.543,8.543,0,0,1-2.951.634,5.947,5.947,0,0,1-3.63-1.239,5.056,5.056,0,0,1-1.9-4.234,5.44,5.44,0,0,1,.782-2.936,4.657,4.657,0,0,1,.531-.679,7.176,7.176,0,0,1,.782-.723,5.6,5.6,0,0,1,3.5-1.062,7.18,7.18,0,0,1,2.419.413,7.516,7.516,0,0,1,.87.458,5.323,5.323,0,0,0-.354,1.166Z" transform="translate(-153.342 -452.388)" fill="#8c8179"/>
      <path id="Pfad_301" data-name="Pfad 301" d="M237.227,459.639a7.741,7.741,0,0,0,1.49-.044,32.382,32.382,0,0,0-.133-4.412c.044,0,.516.059.811.059.221,0,.428-.015.649-.029-.074.693-.133,1.387-.162,2.08-.044,1.151-.03,2.3-.03,3.438,0,.826-.029,1.638-.029,2.464,0,.369.015.737.029,1.107.015.428.044.856.074,1.284a4.081,4.081,0,0,0-.723-.059,5.259,5.259,0,0,0-.694.044c.074-1,.133-2.007.148-3.01.015-.738,0-1.475,0-2.213-1.048-.029-2.08-.059-3.113-.059-.886-.015-1.785,0-2.671.029-.029.737-.044,1.475-.044,2.228,0,1,.044,2.021.089,3.025a2.649,2.649,0,0,0-.708-.1,3.911,3.911,0,0,0-.708.088c.059-.634.1-1.283.119-1.918.015-.531,0-1.062.015-1.594s.015-1.091.015-1.637c0-.8-.015-1.608,0-2.405,0-.545.015-1.077-.015-1.623-.015-.413-.059-.826-.089-1.239a4.36,4.36,0,0,0,.782.1c.162,0,.354-.029.694-.059-.059.723-.119,1.461-.133,2.2s-.029,1.46-.015,2.183a12.473,12.473,0,0,0,1.815.074Z" transform="translate(-165.776 -452.616)" fill="#8c8179"/>
      <path id="Pfad_302" data-name="Pfad 302" d="M254.082,457.838a5.37,5.37,0,0,1,5.016-3.054,6.17,6.17,0,0,1,1.653.221,5.358,5.358,0,0,1,3.57,3.143,5.88,5.88,0,0,1,.34,2.036,5.391,5.391,0,0,1-1.033,3.3,5.542,5.542,0,0,1-4.486,2.124,5.923,5.923,0,0,1-3.733-1.3,5,5,0,0,1-1.785-4.116A5.655,5.655,0,0,1,254.082,457.838Zm2.641,6.448a4.343,4.343,0,0,0,2.4.782,4.229,4.229,0,0,0,1.918-.487c.988-.531,2.273-1.771,2.273-4.426a5.076,5.076,0,0,0-.974-3.261,4.1,4.1,0,0,0-.8-.8,4.481,4.481,0,0,0-2.567-.8,3.979,3.979,0,0,0-3.644,2.626,5.776,5.776,0,0,0-.354,1.918C254.893,461.63,255.247,463.239,256.723,464.286Z" transform="translate(-177.775 -452.423)" fill="#8c8179"/>
      <path id="Pfad_303" data-name="Pfad 303" d="M289.543,456.756a5.179,5.179,0,0,0-.487-.576,3.638,3.638,0,0,0-2.449-.855,3.942,3.942,0,0,0-1.9.443c-.929.5-2.154,1.756-2.154,4.309a6.114,6.114,0,0,0,.752,3.039,4.072,4.072,0,0,0,.944,1,4.377,4.377,0,0,0,2.686.915,4.076,4.076,0,0,0,2.154-.62,3.26,3.26,0,0,0,.664-.545h.177l-.28,1.092a8.544,8.544,0,0,1-2.951.634,5.947,5.947,0,0,1-3.629-1.239,5.056,5.056,0,0,1-1.9-4.234,5.44,5.44,0,0,1,.782-2.936,4.622,4.622,0,0,1,.531-.679,7.175,7.175,0,0,1,.782-.723,5.6,5.6,0,0,1,3.5-1.062,7.18,7.18,0,0,1,2.419.413,7.516,7.516,0,0,1,.87.458,5.323,5.323,0,0,0-.354,1.166Z" transform="translate(-192.71 -452.388)" fill="#8c8179"/>
      <path id="Pfad_304" data-name="Pfad 304" d="M303.805,457.838a5.37,5.37,0,0,1,5.017-3.054,6.164,6.164,0,0,1,1.652.221,5.356,5.356,0,0,1,3.571,3.143,5.88,5.88,0,0,1,.34,2.036,5.392,5.392,0,0,1-1.033,3.3,5.542,5.542,0,0,1-4.485,2.124,5.923,5.923,0,0,1-3.733-1.3,5,5,0,0,1-1.785-4.116A5.664,5.664,0,0,1,303.805,457.838Zm2.641,6.448a4.345,4.345,0,0,0,2.405.782,4.23,4.23,0,0,0,1.918-.487c.989-.531,2.272-1.771,2.272-4.426a5.073,5.073,0,0,0-.974-3.261,4.079,4.079,0,0,0-.8-.8,4.483,4.483,0,0,0-2.567-.8,3.978,3.978,0,0,0-3.644,2.626,5.769,5.769,0,0,0-.355,1.918C304.617,461.63,304.971,463.239,306.446,464.286Z" transform="translate(-204.744 -452.423)" fill="#8c8179"/>
      <path id="Pfad_305" data-name="Pfad 305" d="M336.8,465.577c-1.092-.059-2.169-.1-3.261-.1-.664,0-1.328.015-1.977.029.044-.56.089-1.107.118-1.667.044-.8.044-1.593.059-2.39.015-.87.03-1.741.03-2.626,0-.635-.015-1.269-.03-1.9s-.074-1.254-.1-1.874a3.6,3.6,0,0,0,.8.1c.162,0,.369-.015.693-.044-.074,1.018-.133,2.051-.177,3.083-.059,2.214-.03,4.412-.015,6.625.826,0,1.637,0,2.463-.03.473-.015.93-.029,1.4-.059Z" transform="translate(-220.046 -452.563)" fill="#8c8179"/>
      <path id="Pfad_306" data-name="Pfad 306" d="M349.411,454.945c.31.856.6,1.727.929,2.582.324.811.664,1.608.959,2.434.206.546.4,1.092.6,1.638s.413,1.063.62,1.609c.162.427.324.87.5,1.3.133.31.28.635.428.944a9.823,9.823,0,0,0-1.594-.044,20.74,20.74,0,0,0-1.283-3.954h-3.9c-.383.738-.752,1.491-1.092,2.242-.251.576-.458,1.166-.693,1.741a3.446,3.446,0,0,0-.546-.044c-.162,0-.339.015-.5.03.28-.487.561-.988.826-1.49.34-.635.649-1.284.974-1.933.443-.841.915-1.681,1.343-2.538.325-.679.635-1.357.959-2.036.221-.458.472-.915.693-1.387.177-.354.339-.723.5-1.092Zm-1.417,3.674c-.368.723-.708,1.46-1.048,2.2.664.03,1.328.059,2.007.059.458,0,.929-.015,1.387-.044a29.236,29.236,0,0,0-1.461-3.925C348.585,457.468,348.275,458.044,347.995,458.619Z" transform="translate(-226.71 -452.51)" fill="#8c8179"/>
      <path id="Pfad_307" data-name="Pfad 307" d="M366.924,458.367c.015-.561.029-1.136,0-1.711a6.9,6.9,0,0,0-.045-.782,22.417,22.417,0,0,0-3.231.074v-.841a16.173,16.173,0,0,0,2.671.133c1.136,0,2.3.03,3.453,0,.516-.015,1.018-.044,1.534-.074a5.172,5.172,0,0,0,0,.841c-.561-.044-1.136-.088-1.7-.1-.487-.03-.959-.044-1.446-.044-.03,1.756-.059,3.5-.059,5.252,0,1.49.029,2.981.074,4.471a5.232,5.232,0,0,0-1.358-.029c.059-1.623.1-3.246.1-4.869Z" transform="translate(-237.449 -452.598)" fill="#8c8179"/>
      <path id="Pfad_308" data-name="Pfad 308" d="M384.9,455.235c-.059.472-.1.959-.118,1.446-.029.8-.015,1.608-.029,2.4-.015,1.063-.044,2.125-.044,3.2,0,1.122.044,2.228.1,3.349a5.468,5.468,0,0,0-.708-.059,6.1,6.1,0,0,0-.723.059c.059-.664.1-1.343.133-2.021.029-.723.029-1.461.029-2.213,0-1.062-.015-2.14,0-3.217,0-.516.015-1.048,0-1.564-.015-.473-.044-.93-.074-1.388A11.5,11.5,0,0,0,384.9,455.235Z" transform="translate(-248.153 -452.668)" fill="#8c8179"/>
      <path id="Pfad_309" data-name="Pfad 309" d="M398.162,460.542a17.527,17.527,0,0,0-3.393-.147c-.03,1.062-.044,2.11-.03,3.157l.044,1.3c.664.015,1.343.03,2.007.015.6-.015,1.225-.044,1.83-.088v.826c-.945-.044-1.889-.074-2.833-.074-.8,0-1.579.029-2.376.059.059-.871.118-1.727.133-2.6.03-1,.03-2.021.03-3.04,0-.427.015-.856.015-1.3,0-1.166-.044-2.332-.074-3.482.959.059,1.918.118,2.862.118.738,0,1.475-.044,2.2-.074a2.077,2.077,0,0,0-.015.8c-.708-.044-1.4-.1-2.11-.118-.516-.015-1.048,0-1.564,0-.044.6-.074,1.21-.089,1.83-.029.679-.015,1.357-.015,2.051.516,0,1.033.015,1.549.015.6,0,1.225-.03,1.83-.059Z" transform="translate(-253.592 -452.633)" fill="#8c8179"/>
      <path id="Pfad_310" data-name="Pfad 310" d="M412.374,455.213c.5,0,.988-.015,1.475-.015a3.187,3.187,0,0,1,2.567.989,2.291,2.291,0,0,1,.443,1.387,2.765,2.765,0,0,1-.163.9,2.979,2.979,0,0,1-1.755,1.623,5.523,5.523,0,0,1-1.3.3c.118.118.251.206.355.324a8.252,8.252,0,0,1,.9,1.107c.221.28.457.546.693.826.206.251.4.5.605.767s.457.546.693.812.457.575.708.841c.163.192.354.368.531.546a6.05,6.05,0,0,0-.9-.074,7.836,7.836,0,0,0-.826.059c-.221-.31-.428-.62-.649-.915s-.443-.575-.679-.856c-.266-.339-.517-.693-.782-1.018-.206-.236-.413-.472-.6-.723-.221-.265-.443-.545-.664-.826-.281-.325-.59-.62-.9-.929-.015.945-.029,1.9,0,2.848.015.8.074,1.593.133,2.4a5.194,5.194,0,0,0-.679-.044c-.265,0-.5.03-.753.044.059-.812.118-1.623.133-2.449.015-1.033.015-2.081.015-3.128,0-1.623-.044-3.246-.088-4.869C411.385,455.168,411.887,455.2,412.374,455.213Zm-.236,3.32c-.015.486-.015.988,0,1.475.281.015.561.044.856.044a3.529,3.529,0,0,0,1.122-.163,2.1,2.1,0,0,0,1.416-2.139,2.026,2.026,0,0,0-.649-1.579,2.179,2.179,0,0,0-1.49-.457c-.4,0-.782.03-1.166.059C412.182,456.7,412.152,457.618,412.137,458.533Z" transform="translate(-263.036 -452.616)" fill="#8c8179"/>
      <path id="Pfad_311" data-name="Pfad 311" d="M437.632,464.019a2.522,2.522,0,0,0,.9.782,3.587,3.587,0,0,0,1.269.266,3.182,3.182,0,0,0,1.018-.206,2.165,2.165,0,0,0,1.255-1.992,1.958,1.958,0,0,0-1.269-1.874,19.693,19.693,0,0,1-2.036-.974,2.577,2.577,0,0,1-1.151-2.139,2.543,2.543,0,0,1,.339-1.313,3.313,3.313,0,0,1,2.937-1.623,6.414,6.414,0,0,1,2.08.443c-.074.206-.133.4-.192.6s-.074.384-.118.576h-.192a3.893,3.893,0,0,0-.34-.354,1.986,1.986,0,0,0-1.49-.575,2.046,2.046,0,0,0-1.652.693,1.849,1.849,0,0,0-.354,1.048,1.7,1.7,0,0,0,.265.9,4.611,4.611,0,0,0,2.258,1.431,6.738,6.738,0,0,1,.841.473,2.465,2.465,0,0,1,1.21,2.228,3.114,3.114,0,0,1-1.446,2.656,3.962,3.962,0,0,1-2.154.561,10.233,10.233,0,0,1-2.376-.339l.251-1.269Z" transform="translate(-277.36 -452.51)" fill="#8c8179"/>
      <path id="Pfad_312" data-name="Pfad 312" d="M463.333,461.265c-.015.265-.044.531-.074.8a4.872,4.872,0,0,1-.973,2.45,3.292,3.292,0,0,1-1.048.885,4.188,4.188,0,0,1-1.387.383,6.972,6.972,0,0,1-.856.059c-.487,0-3.173-.029-3.984-2.316a5.555,5.555,0,0,1-.221-1.712c.015-1.151.029-2.3.029-3.452q0-1.595-.044-3.187a4.041,4.041,0,0,0,.708.074c.133,0,.339-.015.649-.044-.059,1.52-.1,3.04-.118,4.559,0,.664,0,1.313-.015,1.977a4.444,4.444,0,0,0,.177,1.328,3.073,3.073,0,0,0,3.157,2.08,3.164,3.164,0,0,0,2.11-.679,2.881,2.881,0,0,0,.885-1.3,4.781,4.781,0,0,0,.237-1.446c.015-.841.044-1.682.044-2.538,0-1.328-.088-2.655-.162-3.969a4.015,4.015,0,0,0,1.181.044c-.088.753-.177,1.49-.206,2.258-.045.737-.03,1.49-.045,2.242Z" transform="translate(-286.874 -452.633)" fill="#8c8179"/>
      <path id="Pfad_313" data-name="Pfad 313" d="M480.126,455.235c-.059.472-.1.959-.118,1.446-.03.8-.015,1.608-.03,2.4-.015,1.063-.044,2.125-.044,3.2,0,1.122.044,2.228.1,3.349a5.461,5.461,0,0,0-.708-.059,6.109,6.109,0,0,0-.724.059c.059-.664.1-1.343.133-2.021.03-.723.03-1.461.03-2.213,0-1.062-.015-2.14,0-3.217,0-.516.015-1.048,0-1.564-.015-.473-.044-.93-.074-1.388A11.5,11.5,0,0,0,480.126,455.235Z" transform="translate(-299.799 -452.668)" fill="#8c8179"/>
      <path id="Pfad_314" data-name="Pfad 314" d="M486,464.019a2.52,2.52,0,0,0,.9.782,3.587,3.587,0,0,0,1.269.266,3.181,3.181,0,0,0,1.018-.206,2.165,2.165,0,0,0,1.255-1.992,1.958,1.958,0,0,0-1.269-1.874,19.741,19.741,0,0,1-2.036-.974,2.577,2.577,0,0,1-1.151-2.139,2.537,2.537,0,0,1,.34-1.313,3.312,3.312,0,0,1,2.937-1.623,6.413,6.413,0,0,1,2.08.443c-.074.206-.133.4-.191.6s-.075.384-.119.576h-.192a3.954,3.954,0,0,0-.339-.354,1.988,1.988,0,0,0-1.49-.575,2.046,2.046,0,0,0-1.652.693,1.848,1.848,0,0,0-.354,1.048,1.7,1.7,0,0,0,.265.9,4.613,4.613,0,0,0,2.258,1.431,6.778,6.778,0,0,1,.841.473,2.465,2.465,0,0,1,1.209,2.228,3.114,3.114,0,0,1-1.446,2.656,3.962,3.962,0,0,1-2.154.561,10.236,10.236,0,0,1-2.376-.339l.251-1.269Z" transform="translate(-303.595 -452.51)" fill="#8c8179"/>
      <path id="Pfad_315" data-name="Pfad 315" d="M502.126,464.019a2.521,2.521,0,0,0,.9.782,3.587,3.587,0,0,0,1.269.266,3.189,3.189,0,0,0,1.018-.206,2.165,2.165,0,0,0,1.254-1.992,1.958,1.958,0,0,0-1.269-1.874,19.746,19.746,0,0,1-2.036-.974,2.576,2.576,0,0,1-1.151-2.139,2.537,2.537,0,0,1,.34-1.313,3.312,3.312,0,0,1,2.937-1.623,6.421,6.421,0,0,1,2.08.443c-.074.206-.133.4-.192.6s-.075.384-.119.576h-.192a3.954,3.954,0,0,0-.339-.354,1.989,1.989,0,0,0-1.491-.575,2.046,2.046,0,0,0-1.652.693,1.848,1.848,0,0,0-.354,1.048,1.7,1.7,0,0,0,.265.9,4.613,4.613,0,0,0,2.258,1.431,6.776,6.776,0,0,1,.841.473,2.465,2.465,0,0,1,1.21,2.228,3.114,3.114,0,0,1-1.446,2.656,3.962,3.962,0,0,1-2.154.561,10.23,10.23,0,0,1-2.375-.339l.25-1.269Z" transform="translate(-312.34 -452.51)" fill="#8c8179"/>
      <path id="Pfad_316" data-name="Pfad 316" d="M523.7,460.542a17.524,17.524,0,0,0-3.393-.147c-.029,1.062-.044,2.11-.029,3.157.015.443.029.871.044,1.3.664.015,1.343.03,2.007.015.6-.015,1.225-.044,1.83-.088v.826c-.944-.044-1.889-.074-2.833-.074-.8,0-1.579.029-2.376.059.059-.871.118-1.727.133-2.6.03-1,.03-2.021.03-3.04,0-.427.015-.856.015-1.3,0-1.166-.044-2.332-.074-3.482.959.059,1.918.118,2.862.118.738,0,1.475-.044,2.2-.074a2.1,2.1,0,0,0-.015.8c-.708-.044-1.4-.1-2.11-.118-.516-.015-1.047,0-1.564,0-.044.6-.074,1.21-.088,1.83-.03.679-.015,1.357-.015,2.051.516,0,1.033.015,1.549.015.6,0,1.225-.03,1.83-.059Z" transform="translate(-321.679 -452.633)" fill="#8c8179"/>
      <path id="Pfad_317" data-name="Pfad 317" d="M221.071,498.01l-1.21.074c.074-1.121.133-2.243.162-3.349.015-.929.015-1.859.03-2.788,0-.517.015-1.033.015-1.564,0-.915-.044-1.83-.1-2.744.62.029,1.239.059,1.874.059.59,0,1.18-.015,1.771,0,.487.015.974.029,1.461.059.265.03.531.059.8.1a3.934,3.934,0,0,1,2.435,1.4,4.835,4.835,0,0,1,1.092,3.216,6.581,6.581,0,0,1-.664,2.936,5.053,5.053,0,0,1-2.8,2.346,7.424,7.424,0,0,1-2.125.324Zm.118-3.851c-.015.561-.029,1.121-.029,1.667,0,.531.029,1.062.044,1.578l1.579.1c.339,0,.679.015,1.018,0a4.186,4.186,0,0,0,2.567-.811,4.837,4.837,0,0,0,1.668-4.087,4.221,4.221,0,0,0-1.254-3.379,3.2,3.2,0,0,0-1.166-.694,7.337,7.337,0,0,0-2.346-.25c-.664,0-1.313.029-1.963.059-.059,1.21-.1,2.42-.118,3.63Z" transform="translate(-159.462 -470.242)" fill="#8c8179"/>
      <path id="Pfad_318" data-name="Pfad 318" d="M249.507,493.072a17.535,17.535,0,0,0-3.394-.147c-.029,1.062-.044,2.11-.029,3.158.015.442.029.87.044,1.3.664.015,1.343.03,2.007.015.6-.015,1.224-.044,1.829-.089v.826c-.944-.044-1.889-.074-2.833-.074-.8,0-1.579.029-2.376.059.059-.871.118-1.727.133-2.6.03-1,.03-2.021.03-3.04,0-.427.015-.856.015-1.3,0-1.165-.044-2.331-.074-3.482.959.059,1.918.118,2.862.118.738,0,1.475-.044,2.2-.074a2.085,2.085,0,0,0-.015.8c-.708-.044-1.4-.1-2.11-.118-.516-.015-1.048,0-1.564,0-.044.6-.074,1.21-.088,1.83-.03.679-.015,1.357-.015,2.051.517,0,1.033.015,1.55.015.6,0,1.225-.03,1.83-.059Z" transform="translate(-172.965 -470.276)" fill="#8c8179"/>
      <path id="Pfad_319" data-name="Pfad 319" d="M261.084,487.728h2.287c.192,0,.369.015.546.029a2.427,2.427,0,0,1,2.641,2.523,2.853,2.853,0,0,1-1.357,2.449,4.723,4.723,0,0,1-2.6.605c-.354,0-.723-.015-1.077-.03-.029.915-.059,1.815-.059,2.73,0,.694.015,1.4.044,2.1a5.528,5.528,0,0,0-.693-.059c-.162,0-.325.015-.649.044.074-.9.133-1.8.148-2.715.029-.988,0-1.977.015-2.951,0-.708.029-1.431.029-2.154,0-.87-.044-1.741-.074-2.626Zm.413,3.674c-.015.472-.015.945-.015,1.431.31,0,.6.015.915,0a2.977,2.977,0,0,0,2.272-.885,2.578,2.578,0,0,0,.575-1.652,2.532,2.532,0,0,0-.162-.885,1.883,1.883,0,0,0-1.52-1.077,13.918,13.918,0,0,0-1.933-.044C261.571,489.321,261.512,490.369,261.5,491.4Z" transform="translate(-181.324 -470.259)" fill="#8c8179"/>
      <path id="Pfad_320" data-name="Pfad 320" d="M285.205,493.795c-.015.266-.044.531-.074.8a4.879,4.879,0,0,1-.974,2.449,3.291,3.291,0,0,1-1.048.885,4.209,4.209,0,0,1-1.387.383,7.061,7.061,0,0,1-.855.059c-.487,0-3.172-.03-3.984-2.316a5.567,5.567,0,0,1-.221-1.712c.015-1.151.029-2.3.029-3.452q0-1.594-.044-3.187a4.045,4.045,0,0,0,.708.074c.133,0,.34-.015.649-.044-.059,1.52-.1,3.039-.118,4.559,0,.664,0,1.313-.015,1.977a4.439,4.439,0,0,0,.177,1.328,3.073,3.073,0,0,0,3.158,2.081,3.165,3.165,0,0,0,2.11-.679,2.883,2.883,0,0,0,.885-1.3,4.8,4.8,0,0,0,.236-1.446c.015-.841.044-1.682.044-2.538,0-1.328-.089-2.656-.162-3.969a4.018,4.018,0,0,0,1.18.044c-.088.753-.177,1.49-.206,2.258-.044.737-.029,1.49-.044,2.242Z" transform="translate(-190.262 -470.276)" fill="#8c8179"/>
      <path id="Pfad_321" data-name="Pfad 321" d="M302,487.766c-.059.472-.1.959-.118,1.446-.029.8-.015,1.608-.029,2.4-.015,1.062-.044,2.124-.044,3.2,0,1.121.044,2.228.1,3.349a5.543,5.543,0,0,0-.708-.059,6.1,6.1,0,0,0-.723.059c.059-.664.1-1.343.133-2.021.029-.723.029-1.46.029-2.213,0-1.062-.015-2.14,0-3.217,0-.516.015-1.048,0-1.564-.015-.472-.044-.929-.074-1.387A11.679,11.679,0,0,0,302,487.766Z" transform="translate(-203.187 -470.312)" fill="#8c8179"/>
      <path id="Pfad_322" data-name="Pfad 322" d="M307.874,496.55a2.528,2.528,0,0,0,.9.782,3.6,3.6,0,0,0,1.269.266,3.2,3.2,0,0,0,1.018-.207,2.164,2.164,0,0,0,1.254-1.992,1.959,1.959,0,0,0-1.269-1.874,19.747,19.747,0,0,1-2.036-.974,2.575,2.575,0,0,1-1.151-2.139,2.538,2.538,0,0,1,.34-1.313,3.312,3.312,0,0,1,2.937-1.623,6.432,6.432,0,0,1,2.08.443c-.074.207-.133.4-.192.605-.044.192-.074.384-.118.575h-.192a4.021,4.021,0,0,0-.339-.354,1.988,1.988,0,0,0-1.49-.575,2.045,2.045,0,0,0-1.653.694,1.842,1.842,0,0,0-.354,1.047,1.709,1.709,0,0,0,.265.9,4.622,4.622,0,0,0,2.258,1.431,6.77,6.77,0,0,1,.841.472,2.465,2.465,0,0,1,1.21,2.228,3.115,3.115,0,0,1-1.446,2.656,3.965,3.965,0,0,1-2.154.56,10.228,10.228,0,0,1-2.375-.339l.25-1.269Z" transform="translate(-206.983 -470.154)" fill="#8c8179"/>
      <path id="Pfad_323" data-name="Pfad 323" d="M337.211,488.089c-.088.826-.162,1.652-.192,2.479-.015.679,0,1.372-.015,2.051v1.328c0,.826,0,1.637.029,2.449.015.634.044,1.254.074,1.874a6.41,6.41,0,0,0-1.372-.029c.059-1.52.118-3.04.133-4.574s0-3.04-.015-4.559l-2.715,1.416-.738-.634,1.372-.443c.635-.251,1.254-.517,1.874-.8.472-.221.929-.472,1.387-.723Z" transform="translate(-220.501 -470.399)" fill="#8c8179"/>
      <path id="Pfad_324" data-name="Pfad 324" d="M351.988,492.155a2.214,2.214,0,0,1-.945-1.786,2.087,2.087,0,0,1,.62-1.461,2.841,2.841,0,0,1,2.2-.885,4.264,4.264,0,0,1,.753.059,2.391,2.391,0,0,1,1.948,1.343,2.448,2.448,0,0,1,.206.915,2.122,2.122,0,0,1-.531,1.357,3.877,3.877,0,0,1-1.21.841,4.282,4.282,0,0,1,1.122.472,2.588,2.588,0,0,1,1.136,2.213,3.862,3.862,0,0,1-.147,1.033,3.068,3.068,0,0,1-3.2,2.154,4.023,4.023,0,0,1-2.493-.782,2.979,2.979,0,0,1-.885-2.213,3.086,3.086,0,0,1,.545-1.8,2.652,2.652,0,0,1,.62-.6,4.3,4.3,0,0,1,.959-.517A3.954,3.954,0,0,1,351.988,492.155Zm.723,5.4a2.157,2.157,0,0,0,1.21.384,2.052,2.052,0,0,0,.959-.251,2.126,2.126,0,0,0,1.062-1.682,6.285,6.285,0,0,0,.074-.871,2.387,2.387,0,0,0-.457-1.461,1.992,1.992,0,0,0-1.638-.826,1.886,1.886,0,0,0-1.225.428,2.536,2.536,0,0,0-.841,2.051A2.835,2.835,0,0,0,352.711,497.554Zm.339-5.5a1.607,1.607,0,0,0,.856.236,1.552,1.552,0,0,0,1.121-.458,2.288,2.288,0,0,0,.517-1.549,1.725,1.725,0,0,0-.354-1.136,1.567,1.567,0,0,0-1.24-.634,1.638,1.638,0,0,0-.767.206,1.89,1.89,0,0,0-.855,1.623A1.713,1.713,0,0,0,353.05,492.051Z" transform="translate(-230.349 -470.451)" fill="#8c8179"/>
      <path id="Pfad_325" data-name="Pfad 325" d="M373.417,488.167c-.059,1.21-.118,2.42-.133,3.645-.015.93,0,1.859.015,2.789l1.431.015a4.693,4.693,0,0,0-.044.473,3.618,3.618,0,0,0,.044.442l-1.446-.059c-.015.605-.029,1.2,0,1.786.015.4.044.767.074,1.15a3.751,3.751,0,0,0-.708-.059c-.222,0-.443.015-.664.029a17.143,17.143,0,0,0,.177-2.907c-1.018-.015-2.051-.029-3.069-.015-.545.015-1.077.03-1.609.059v-.31c.856-1.107,1.7-2.228,2.509-3.364.856-1.225,1.682-2.449,2.494-3.689Zm-1.24,6.492v-5.046c-.486.649-.959,1.3-1.431,1.977-.708.988-1.416,2.007-2.11,3.024Z" transform="translate(-239.53 -470.521)" fill="#8c8179"/>
      <path id="Pfad_326" data-name="Pfad 326" d="M386.106,496.961a2.3,2.3,0,0,0,1.962,1.048,2.384,2.384,0,0,0,1.535-.517,3.224,3.224,0,0,0,.959-2.375,2.182,2.182,0,0,0-2.213-2.376,3.182,3.182,0,0,0-1.593.517l-.236-.221a4.649,4.649,0,0,0,.221-1.55c.015-.517.015-1.018,0-1.52-.015-.6-.074-1.21-.118-1.815.678.059,1.372.118,2.066.118.959,0,1.918-.044,2.862-.074a3.3,3.3,0,0,0-.059,1.151c-.812-.059-1.623-.133-2.435-.148-.531-.015-1.077,0-1.608.015-.059.767-.119,1.52-.148,2.287-.015.309-.015.62-.015.929a5.3,5.3,0,0,1,1.638-.324,3.276,3.276,0,0,1,1.476.354,2.621,2.621,0,0,1,1.4,2.568,3.417,3.417,0,0,1-.251,1.313,3.583,3.583,0,0,1-3.408,2.11,4.968,4.968,0,0,1-1.844-.354,2.864,2.864,0,0,1-.561-.31l.192-.826Z" transform="translate(-249.429 -470.521)" fill="#8c8179"/>
    </g>
    <g id="Gruppe_84" data-name="Gruppe 84" transform="translate(150.998 340.622)">
      <path id="Pfad_327" data-name="Pfad 327" d="M249.362,363.325c1.609-1.5,3.677-1.895,4.62-.885s.4,3.045-1.205,4.544-3.677,1.895-4.62.885S247.753,364.823,249.362,363.325Z" transform="translate(-247.692 -361.881)" fill="#8c8179"/>
    </g>
    <line id="Linie_21" data-name="Linie 21" x1="0.005" transform="translate(138.56 361.899)" fill="#976d23"/>
    <line id="Linie_22" data-name="Linie 22" x1="0.005" transform="translate(138.565 361.899)" fill="#976d23"/>
    <g id="Gruppe_85" data-name="Gruppe 85" transform="translate(150.998 340.622)">
      <path id="Pfad_328" data-name="Pfad 328" d="M249.362,363.325c1.609-1.5,3.677-1.895,4.62-.885s.4,3.045-1.205,4.544-3.677,1.895-4.62.885S247.753,364.823,249.362,363.325Z" transform="translate(-247.692 -361.881)" fill="#8c8179"/>
    </g>
    <line id="Linie_23" data-name="Linie 23" x1="0.004" transform="translate(142.139 362.422)" fill="#976d23"/>
    <line id="Linie_24" data-name="Linie 24" x1="0.004" transform="translate(142.143 362.422)" fill="#976d23"/>
    <g id="Gruppe_86" data-name="Gruppe 86" transform="translate(69.414 373.813)">
      <rect id="Rechteck_77" data-name="Rechteck 77" width="219.998" height="2.595" transform="translate(0 0)" fill="#8c8179"/>
      <path id="Pfad_329" data-name="Pfad 329" d="M309.6,437.242" transform="translate(-199.684 -435.946)" fill="#8c8179"/>
    </g>
    <path id="Pfad_330" data-name="Pfad 330" d="M229.764,355.364c-.749-.882-2.08-.057-2.947.308a43.249,43.249,0,0,0-9.695,8.316c-1.542,1.811-3.168,3.569-3.919,5.744a1.119,1.119,0,0,0,.414.969,3.915,3.915,0,0,0,2.5-.513c4.7-2.252,8.982-6.873,12.257-11.128C229.052,357.925,230.411,356.485,229.764,355.364Zm-82,14.277a35.119,35.119,0,0,0-7.786-2.253c-1.831-.173-3.931-.29-5.3.982a.684.684,0,0,0-.171.832c.578,1.135,1.885,1.151,2.965,1.4A27.038,27.038,0,0,0,147.765,369.642ZM193.4,333.457l-.328-.386c-1.426-.828-3.025.078-4.279.732-6.609,3.909-13.169,12.988-17.312,19.148a29.547,29.547,0,0,0,7.846-3.247c4.876-2.715,11.124-8.664,13.745-13.765A3.042,3.042,0,0,0,193.4,333.457Zm-19.528,32.92c-4.837,3.85-10.44,6.084-16.877,5.41a58.118,58.118,0,0,1-6.359-1.386c-4.413,1.253-9.579,2.1-14.377,1.058-1.2-.345-2.775-.961-3.045-2.386-.1-1.29,1.041-2.349,2.081-2.869,5.589-2.714,12.527-.577,17.961,1.1a32.1,32.1,0,0,0,5.686-5.736l3.52-4.369c.559-.809,1.837-2.484,1.837-2.484-5.724-.29-11.971-.945-15.44-5.913a8.987,8.987,0,0,1,.173-9.145c3.488-5.1,9.25-6.623,15.07-6.97a27.466,27.466,0,0,1,10.136,1.753s-.077.578-.135.866c-4.567-1.156-10.118-1.5-14.665.038-3.778,1.1-8.211,4.486-8.634,8.74a6.991,6.991,0,0,0,3.527,6.969c3.1,1.906,6.842,2.31,10.7,2.426,4.817-6.334,11.779-14.727,18.407-19.02,2.68-1.579,5.436-3.177,8.769-3.042a2.949,2.949,0,0,1,2.37,1.27c1.079,1.6.154,3.6-.617,5.045-3.411,5.929-10.449,11.781-16.173,14.437a45.485,45.485,0,0,1-7.3,2.349c-2.833,4.331-4.955,7.338-9.093,10.4a23.789,23.789,0,0,1-5.82,3.157,17.138,17.138,0,0,0,13.162-.211,23.956,23.956,0,0,0,8.383-6.7l5.85-7.393h6.06l-12.546,15.94a.722.722,0,0,0-.158.781c.458.875,2.041,0,2.041,0s1.682-.644,7.811-6.152a47.792,47.792,0,0,0,5.319-5.506l4.12-5.161h5.71c-1.369,1.772-2.6,3.447-3.817,5.141,2.93-2.387,5.84-4.774,9.444-5.487a3.4,3.4,0,0,1,3.45,1.387c1,1.6.366,3.7-.578,5.12l-1.214,1.522-7.111,8.26a.444.444,0,0,0,.022.682c.52.361,1.251-.241,1.791-.413a27.067,27.067,0,0,0,7.107-5.074c.637-.712,1.238-1.876,1.834-2.608a23.913,23.913,0,0,1,14.012-8.8c1.5-.211,3.353-.443,4.47.731a2.139,2.139,0,0,1,.386,1.463l.866-1,7.037-8.971,6.774-8.751h5.781l-16.8,21.745-8.558,11.031a.737.737,0,0,0-.083.626c.229.489,1.145.221,1.624.124,3.587-1.1,6.669-3.7,9.234-6.758l9.135-11.608-3.577,0,1.282-1.537h3.528s10.4-13.446,10.589-13.639h5.783l-10.416,13.562,8.566-.015-1.371,1.606-8.429.005L238.32,369.592a.763.763,0,0,0-.149.7c.178.358.378.464.848.453,1.861-.026,3.429-1.272,5.086-2.582,1.831-1.434,4.828-4.364,4.828-4.364l.923.963c-3,2.694-5.943,5.911-9.123,6.956a5.528,5.528,0,0,1-4.451-.07c-1.484-.87-1.685-2.43-.621-4.543l-.114.019c-3.2,2.464-6.3,5.467-10.676,4.755a2.976,2.976,0,0,1-2.006-1.656,4.5,4.5,0,0,1-.134-2.887c-.829.557-1.657,1.328-2.5,1.906-2.449,1.713-5.5,3.853-8.646,2.467a3.9,3.9,0,0,1-1.7-3.68c.038-.346.077-.73.134-1.039a29.623,29.623,0,0,1-7.39,4.629c-1.123.413-3.9,1-5.281-.4a2.876,2.876,0,0,1-.541-2.853c.385-1.618,3.887-5.247,3.887-5.247l6.8-7.662a.593.593,0,0,0,.016-.741c-.347-.482-1.06-.076-1.5.086-3.237,1.348-6.9,4.333-11.128,8.555a104.009,104.009,0,0,0-7.18,8.159l-5.768,0,4.38-5.572c-.135-.172-.348.076-.348.076s-4.412,4.386-7.361,5.58l-.052.02c-1.122.413-3.9,1-5.286-.4a2.877,2.877,0,0,1-.541-2.854A4.025,4.025,0,0,1,173.871,366.376Z" transform="translate(-34.6 -4.731)" fill="#8c8179"/>
    <g id="Gruppe_87" data-name="Gruppe 87" transform="translate(229.362 322.685)">
      <path id="Pfad_331" data-name="Pfad 331" d="M424.285,349.54a.862.862,0,0,1,.686-.18,19.546,19.546,0,0,1,1.966,1.207,4.315,4.315,0,0,0,.953.422,1.819,1.819,0,0,0,1.652-.391l.068-.11a5.857,5.857,0,0,0,1.807,1.1,5.641,5.641,0,0,0,1.163.248l-.014.26c1.928,0,1.964,2.125,1.964,2.125h1.393v.436h2.548v-.436h1.421s.092-2.122,1.963-2.125l-.016-.266a6.039,6.039,0,0,0,1.091-.243,5.828,5.828,0,0,0,1.805-1.1l.07.11a1.819,1.819,0,0,0,1.651.391,4.349,4.349,0,0,0,.955-.422,19.37,19.37,0,0,1,1.966-1.207.867.867,0,0,1,.686.18c.045.024.068.141.137.095a1.32,1.32,0,0,0,.023-.541,1.819,1.819,0,0,0-1.465-1.474,3.786,3.786,0,0,0-.25-.949,1.789,1.789,0,0,0-.916-.886,4.008,4.008,0,0,1-1.576,2.752,3.913,3.913,0,0,0-.083-1.161c-.046-.149-.207-.227-.327-.29a2.1,2.1,0,0,0-1.763-.04c-.227.141-.213.456-.3.682A2.31,2.31,0,0,1,442,349.277c.059-.435.11-.718.11-.718a7.456,7.456,0,0,1-3.077-.222s-.248,1.894-1.822,1.9-1.831-1.9-1.831-1.9a7.458,7.458,0,0,1-3.078.222s.054.293.114.742a2.325,2.325,0,0,1-1.613-1.572c-.09-.227-.075-.541-.3-.682a2.09,2.09,0,0,0-1.759.04c-.122.063-.284.141-.329.29a3.928,3.928,0,0,0-.084,1.161,4.012,4.012,0,0,1-1.578-2.752,1.79,1.79,0,0,0-.915.886,3.908,3.908,0,0,0-.252.949,1.816,1.816,0,0,0-1.462,1.474,1.335,1.335,0,0,0,.022.541C424.216,349.681,424.238,349.564,424.285,349.54Zm23.653-2.673a1.639,1.639,0,0,1,.275.956c0,.142-.039.3-.039.432.078.007.16-.039.245-.032a1.164,1.164,0,0,1,1.075.5c-.054,0-.138-.032-.205-.032a2.159,2.159,0,0,0-.793.4,8.98,8.98,0,0,1-1.86,1.246.463.463,0,0,1-.105-.274c.4-.507,1.021-.807,1.372-1.372a.235.235,0,0,0-.009-.211c-.22-.11-1.539,1.2-1.662.94a.415.415,0,0,1-.1-.235A4.774,4.774,0,0,0,447.937,346.867Zm-6.082,4.055a4.054,4.054,0,0,0,1.662-.718c.133-.092.282-.227.222-.414-.015-.063-.107-.04-.146-.025a4.535,4.535,0,0,1-1.717.692l.05-.481a3.3,3.3,0,0,0,2.234-1.81,3.2,3.2,0,0,0,.23-.594.284.284,0,0,1,.243-.1c.286.1-.057.724-.172,1.091-.1.29-.531.739-.408.859.3.071.4-.156.542-.306a5.16,5.16,0,0,0,.669-1.426c.065-.094.239-.142.26.1a3.852,3.852,0,0,1-.365,1.207,4.116,4.116,0,0,1-3.324,2.241Zm-3.2.276a1.719,1.719,0,0,0,1.027.065,2,2,0,0,1-.726-1.248,1.535,1.535,0,0,0,1.239.128,1.353,1.353,0,0,1-.6-1.159,5.868,5.868,0,0,0,1.5.128,16.811,16.811,0,0,0-.21,2.486,2.519,2.519,0,0,0-1.542,2.133h-.848A20.155,20.155,0,0,1,438.65,351.2Zm-1.444-.6a.922.922,0,1,1-.74.9A.834.834,0,0,1,437.206,350.6Zm-2.373-1.617a1.349,1.349,0,0,1-.6,1.159,1.53,1.53,0,0,0,1.237-.128,2,2,0,0,1-.725,1.248,1.722,1.722,0,0,0,1.027-.065,18.636,18.636,0,0,1,.159,2.533h-.851a2.264,2.264,0,0,0-1.54-2.133,16.7,16.7,0,0,0-.21-2.486A5.875,5.875,0,0,0,434.833,348.984Zm-5.669-1.3a5.149,5.149,0,0,0,.671,1.426c.137.15.244.378.541.306.123-.121-.309-.57-.407-.859-.115-.366-.46-.988-.173-1.091a.289.289,0,0,1,.244.1,3.072,3.072,0,0,0,.229.594,3.285,3.285,0,0,0,2.23,1.81l.052.481a4.535,4.535,0,0,1-1.717-.692c-.04-.015-.131-.038-.147.025-.061.188.088.322.22.414a4.082,4.082,0,0,0,1.666.718l.02.316A4.115,4.115,0,0,1,429.271,349a3.9,3.9,0,0,1-.365-1.207C428.927,347.545,429.1,347.594,429.164,347.687Zm-3.234.536c.084-.007.169.039.245.032,0-.134-.038-.29-.038-.432a1.652,1.652,0,0,1,.275-.956,4.764,4.764,0,0,0,1.8,2.321.406.406,0,0,1-.1.235c-.121.261-1.44-1.05-1.662-.94a.236.236,0,0,0-.007.211c.35.565.973.865,1.373,1.372a.48.48,0,0,1-.107.274,8.935,8.935,0,0,1-1.861-1.246,2.166,2.166,0,0,0-.792-.4c-.07,0-.153.032-.207.032A1.165,1.165,0,0,1,425.93,348.223Z" transform="translate(-421.739 -335.214)" fill="#8c8179"/>
      <path id="Pfad_332" data-name="Pfad 332" d="M443.76,326.817a1.719,1.719,0,0,0,.527-.094c.251.126.357.47.5.713l-.191-.094c-.267-.109-.6-.07-.861-.234a1.74,1.74,0,0,0,.13.556c.191.518.747.627,1.205.886a3.513,3.513,0,0,1-.648-.1,2.345,2.345,0,0,0-.328-.133,1.463,1.463,0,0,0,1.166,1.176.164.164,0,0,1,.144.118c-.22-.054-.479-.008-.692-.04.237.666,1.031.993,1.58,1.345a.254.254,0,0,1-.159.173c-.161.063-.268.26-.458.2a.511.511,0,0,0-.495.235.454.454,0,0,0-.039.346,2.45,2.45,0,0,0-.434,1.983,2.291,2.291,0,0,0,1.22,1.481v.429a1.656,1.656,0,0,0,1.439,1.612,1.63,1.63,0,0,0,1.519-1.612v-.429a2.3,2.3,0,0,0,1.218-1.481,2.435,2.435,0,0,0-.435-1.983.447.447,0,0,0-.039-.346.511.511,0,0,0-.5-.235c-.188.055-.294-.141-.455-.2a.255.255,0,0,1-.161-.173c.549-.353,1.34-.679,1.577-1.345-.215.032-.474-.015-.693.04.021-.078.074-.1.145-.118a1.463,1.463,0,0,0,1.164-1.176,2.244,2.244,0,0,0-.327.133,3.53,3.53,0,0,1-.647.1c.455-.259,1.013-.368,1.2-.886a1.73,1.73,0,0,0,.13-.556c-.26.163-.6.125-.861.234l-.19.094c.136-.243.243-.587.494-.713a1.719,1.719,0,0,0,.527.094.957.957,0,0,0,.822-.675,1.637,1.637,0,0,0-.555-1.669,1.861,1.861,0,0,0-1.35-.384,3.635,3.635,0,0,0-.632.187,1.939,1.939,0,0,0-1.923-1.591,2.128,2.128,0,0,0-1.922,1.591,3.672,3.672,0,0,0-.629-.187,1.851,1.851,0,0,0-1.35.384,1.635,1.635,0,0,0-.557,1.669A.958.958,0,0,0,443.76,326.817Zm3.149,9.99c-.137-.094-.229-.25-.357-.352l-.039-.9.4.093.023.039C446.923,336.063,446.916,336.431,446.909,336.807Zm1.867-4.994a.2.2,0,0,1,.222.126c-.038.172-.229.2-.343.281a1.834,1.834,0,0,1,.426,1.827,1.022,1.022,0,0,1-.564.705l-.154.016a3.235,3.235,0,0,0,.092-1.9,2.222,2.222,0,0,0-.206-.5c-.2.015-.4.04-.6.07a6.776,6.776,0,0,1-.031,2.595,1.3,1.3,0,0,1-.49-.023,6.683,6.683,0,0,1-.09-1.96c.031-.2.075-.4.114-.6-.139-.048-.313-.032-.459-.07-.068,0-.2-.1-.205.038a3.563,3.563,0,0,0-.093,2.4c-.083.015-.143-.056-.228-.079-.5-.251-.549-.855-.518-1.4a2.282,2.282,0,0,1,.435-1.114c-.13-.079-.312-.079-.367-.234-.008-.071-.015-.157.062-.18.182-.025.3.094.464.126A3.9,3.9,0,0,0,448.776,331.814Zm.212-5.986a1.418,1.418,0,0,1,1.372-.854.969.969,0,0,1,.885.66.513.513,0,0,1-.193.541.57.57,0,0,1-.039-.2.748.748,0,0,0-.6-.523.944.944,0,0,0-.962.476,6.067,6.067,0,0,0-.469,2.611c-.1.53-.034,1.247-.571,1.5a8.443,8.443,0,0,0,.255-2.517A3.837,3.837,0,0,1,448.988,325.827Zm-2.809-1.744a1.309,1.309,0,0,1,.963-.754,1.434,1.434,0,0,1,1.268.492,1.7,1.7,0,0,1,.3.762,5.948,5.948,0,0,1-.476,1.94,14.454,14.454,0,0,0-.252,1.983c-.027.447-.073,1.331-.064,1.788-.024.054-.02.128-.092.14-.062.027-.1-.038-.121-.081a11.984,11.984,0,0,1,.112-3.7,14.142,14.142,0,0,0,.437-1.785,1.04,1.04,0,0,0-.565-1.056,1.013,1.013,0,0,0-.873.041.768.768,0,0,0-.4.754.8.8,0,0,0,.056.173.651.651,0,0,1,.395-.214.514.514,0,0,1,.354.159,1.513,1.513,0,0,1,.184.888c-.041.786-.219,1.541-.261,2.346a10.473,10.473,0,0,0,.132,2.38c-.02.038-.022.1-.08.108-.084.006-.124-.057-.158-.12a4.911,4.911,0,0,1-.186-1.037c-.031-.462-.049-1.285-.038-1.766a17.1,17.1,0,0,0,.169-2.1.364.364,0,0,0-.109-.25.317.317,0,0,0-.315-.074c-.09.037-.116.109-.13.221A1.129,1.129,0,0,1,446.179,324.084Zm-2.574,1.55a.967.967,0,0,1,.884-.66,1.416,1.416,0,0,1,1.371.854,3.838,3.838,0,0,1,.325,1.7,8.441,8.441,0,0,0,.254,2.517c-.535-.255-.468-.972-.571-1.5a6.048,6.048,0,0,0-.47-2.611.939.939,0,0,0-.96-.476.744.744,0,0,0-.6.523.708.708,0,0,1-.036.2A.512.512,0,0,1,443.605,325.634Z" transform="translate(-431.921 -322.685)" fill="#8c8179"/>
      <path id="Pfad_333" data-name="Pfad 333" d="M449.358,368.257a.631.631,0,0,0-.3-.359,6.754,6.754,0,0,1-.262-6.1c.1-.238.3-.434.325-.7a.562.562,0,0,0-.189-.472.7.7,0,0,1,.5-.31.7.7,0,0,0-1.038.188c-.391.076-.466.245-.6.594a13.949,13.949,0,0,0-6.759,4.066.525.525,0,0,0-.752-.09c-.095-.179.038-.375.11-.537-.75.015-.543,1.573-.239,1.964-.126.5-.885,3.929-1.054,4.154a6.924,6.924,0,0,1-2.6,1.662c-.94-.417,1.083-1.674,1.2-1.857.106-.157-.315-.345-.063-.571s.545-.372.777-.6c.108-.109.331-.32.222-.488-.077-.116-.447-.312-.326-.513.149-.245.7-.949.636-1.3-.062-.321-.566-.113-.587-.425-.031-.417.314-1.6-.119-1.906-.265-.183-.64.534-.834.114-.12-.263-.353-1.554-.824-1.442-.231.054-.366.664-.769.6-.213-.178-.693-1.374-1.053-1.026-.2.191-.616,1.009-1,.9-.271-.081-.3-.91-.719-.676-.311.174-.54.5-.873.66-.161.079-.232-.082-.357-.146-.245-.129-.492.1-.713.188-.635.255-.949-.076-1.474-.359a2.668,2.668,0,0,0-2.194-.37c-.771.133-.964-.546-1.928.565-.5-.041-1.01-.073-1.514-.122-.249-.024-1.552-1.138-1.965.041-.233.658.431.888.269,1.442.157.346.415-.187.816-.041.285.1.178.421.309.627l.119.024c.431-.444.81-.36,1.086.147.184.339.412-.162.674-.073.237.081.447.224.689.3.207.066,1.063-.165,1.406-.076.042.011.108.038.1.094a7.326,7.326,0,0,1-2.082.544c-2.016.118-3.847-2.085-5.826-2.379a.726.726,0,0,0-.658.1c1.434.4.454,1.376.452,1.719a2.334,2.334,0,0,1,1.2-.172,19.671,19.671,0,0,1,3.463,1.036c.041.013.116.079.1.13-.066.248-1.578-.119-1.641.277a.451.451,0,0,0,.136.285c.821.756,3.213.184,4.319.2a1.383,1.383,0,0,1,.88.513c.677-.885,1.591-.07,2.236-.146l.119-.114c.046-.2-.2-.313-.135-.53.259-.809,1.737-.33,2.251-.211.2.045.445-.131.635-.187.647-.193,2.187.041,1.744.822-.391.685-1.4.4-1.887.75-.021.072,0,.2-.063.253a12.9,12.9,0,0,0-2,.61c-.085.08.033.175-.023.237-.321.349-1.658.826-1.768,1.516-.015.093.126.092.128.178a4.354,4.354,0,0,0-.4,1.744c.01.077.414.185.523.242-.05.14.05.145-.006.282l-.885.068a14.271,14.271,0,0,0-2.1.319c-.277.065-.58.194-.856.237l-.146.008a11.82,11.82,0,0,1-1.709-.5c-.332-.108-.25-.471-.384-.729a1.579,1.579,0,0,0,.2-.561.71.71,0,0,0,.265-1.055c-.027-.045-.065-.093-.125-.071,0,.235-.016.452-.3.48-.49-.637-1.019.04-1.139.556a2.364,2.364,0,0,1-.217-.606c0-.313.112-.671-.2-.9a.5.5,0,0,0-.489-.073c.2.16.367.366.2.624-.912.187-.958.871-.36,1.448a1.52,1.52,0,0,1,.227.671.775.775,0,0,0-.5-.009c-.637-.232-1.117.386-.858.434.175.032.337-.142.512.047-.129.947.742,1.144,1.41.669a.772.772,0,0,1,.394.1c.342.765-.748.888-.183,1.676s1.311-.249,1.3.8c.794-.539-.475-.79-.058-2.014.484-.269,1,.545,1.108.913,1.548-.049.806.444.809.978.257-.051,1.384-.038,1.49.231.119.293.1.636.245.947l.1.035c.2-.145.879-.838,1.091-.394.091.2,1.168.484,1.075.667-.718,1.443-.227,3.527-.257,5.131a3.259,3.259,0,0,1-.678,1.582c-1.086.643-1.25-.985-1.507-1.3-.118-.15-.692-.324-.687-.107.189.077.43.323.325.546-.572.133-.46.839-.222,1.205a4.41,4.41,0,0,0-.548-.073.649.649,0,0,0-1.085.334.585.585,0,0,1,.651.025c-.115,1.849,1.242.445,1.74.912-.173.142-.184.3-.3.464-.264.374-.564.65-.064,1.076-.021-.259,0-.509.308-.579.47.653,1.2.024,1.252-.6,1.65-.88.517.359,1.537.693.963.314,1.083-1.164,1.688-.294.073-.056.073-.161.079-.244.033-.431-.519-.472-.815-.489a2.2,2.2,0,0,0-.546-.278c-.518-.282.127-1.895.665-1.873.029-.255.045-.977.491-.782.119.051.216.3.358.171.162-.631.277-1.428,1.03-.8l.157-.009c.236-3.046.833-2.624,1.317-.049.232.042.454.028.5.3a6.117,6.117,0,0,0,.3,1.483c.121.031.235-.03.355-.033a8.026,8.026,0,0,0,1.023,1.556c.123.078.3-.079.434-.081a5.252,5.252,0,0,0,1.737,1.108,1.991,1.991,0,0,1,.365-.294,6.146,6.146,0,0,0,2.1.6c.116-.074.164-.208.261-.3a8.759,8.759,0,0,0,2.013-.179c.232-.077.121-.381.347-.472a3.022,3.022,0,0,0,1.261-.66c.035-.041.124-.8.7-1.019.467.139,1.173.489.854,1.1-.062-.584-.777-.648-.887-.245-.085.31.256.471.3.75.077.492-.488.71-.8.961a.266.266,0,0,0,.205.138c2.48.573,2.9-2.023,3.5-2.012.055,0,.15.048.174-.041.053-.191-.432-.5-.6-.521-.463-.051-.612.367-.706.407-.047-1.034-.709-1.42-1.45-1.956.118-.412.443-.6.61-.936.148-.3-.25-.486-.341-.726-.118-.314.307-.984.261-1.343-.032-.259-.3-.2-.467-.269-.465-.2-.251-.9-.318-1.28-.081-.464-.553-.184-.848-.3-.387-.154-.429-.631-.76-.832-.229-.137-.38.026-.563.131-.357.2-.723-.118-1.061-.172-.261-.041-.393.169-.547.327-.245.248-.683.149-.928.415-.155.167-.1.381-.2.554-.125.216-.41.345-.536.587-.189.354.08.7.053,1.059a3.468,3.468,0,0,0-.023.815c.057.389.333.526.467.848a1.625,1.625,0,0,0,1.047.954,2.244,2.244,0,0,0,.729.578,1.587,1.587,0,0,1-1.467.211c-.216-.456-.961-.216-1.261-.619-.061-.084,0-.308-.014-.415-.176-.163-.762-.7-.729-.953.025-.192.339-.381.294-.685a2.021,2.021,0,0,1-.667-1.1c.262-.233.616-.42.73-.774-.181-.55-.713-.914-.808-1.54a2.975,2.975,0,0,0,.784-.53c.094-.1.357-.319.24-.472-.228-.292-1.53-1.109-1.3-1.581.469-.28,1.949.389,2.354.693.121.091.327.44.5.276a12.438,12.438,0,0,1,1.111-1.172,4.051,4.051,0,0,1,2.9-.775c.319.274.273,1.107,1.237.571a1.791,1.791,0,0,1,.2.685.937.937,0,0,0,.087-1.149c0-.324-.145-.44-.238-.709-.428-1.236.8-4.152,1.554-5.134.057-.072.155-.2.263-.171.594.167.55.19,1.038-.212a1.278,1.278,0,0,1,.285.505A.744.744,0,0,0,449.358,368.257Zm-19.494-3c-.491.391-.827.336-.048.8l.008.171c-.343.281-.87-.1-1.181.219-.178.185.341.6-.087.6-.383,0-.773-.667-1.2-.123-.228.286-3.834.906-4.24.611a.7.7,0,0,1,.492-.1c1.248-.025,2.224-.648,3.407-.847a7.929,7.929,0,0,0,1.355-.268c.2-.072.514-.247.563-.466a.162.162,0,0,0-.087-.2c-.312-.161-1.587-.156-2.281-.456a4.819,4.819,0,0,0-.832-.366c-.2-.01-.4.207-.571-.033a.436.436,0,0,0-.421-.237c-.437.037-.393-.076-.738-.245-.2-.1-.561.039-.681-.009-.151-.058.018-.279-.111-.365a.327.327,0,0,0-.278-.026.627.627,0,0,0-.308.319l-.12-.008c-.279-.239.07-.653.342-.7.383-.067.827.372,1.164.489a10.133,10.133,0,0,0,1.782.244c.357-.048.833-.75,1.744-.53.448.108,2.026,1.474,2.314.774C430.223,364.3,430.229,364.959,429.864,365.252Zm-8.511,6.642c.11.025-.025.543,0,.728C420.74,372.988,420.873,371.784,421.353,371.894Zm-.681,2.447c.054-.511.8-.066.759.126C421.322,374.965,420.647,374.6,420.672,374.341Zm22.315,10.346c.062-.1.209,0,.285.032a7.925,7.925,0,0,1,1.242.481C444.291,385.623,443.139,385.1,442.987,384.687Zm-.014-1.438.109.018a2.339,2.339,0,0,0,.951.831l.047.122C443.517,384.417,442.934,383.8,442.973,383.249Zm3.554,1.838a1.213,1.213,0,0,1,.461,1.23c-.017.081-.1.221-.016.286h.158a2.037,2.037,0,0,1-.569.5c-.03-.518.372-.981,0-1.508-.486-.684-2.37-1.109-2.4-1.824.129-.051.178.052.261.121C445.048,384.416,445.9,384.575,446.527,385.087Zm-.333-2.063a3.352,3.352,0,0,1-.7.783,1.246,1.246,0,0,1-.4-.163A4.516,4.516,0,0,1,446.195,383.024Zm-.429-1.393c.038-.049.172-.26.223-.1-.111.615-.659,1.729-1.292,1.931a1.96,1.96,0,0,1-.238-.113c-.05-.035.046-.1.064-.114A7.768,7.768,0,0,0,445.766,381.63Zm-.846-.113a10.626,10.626,0,0,1,.285-1.313.231.231,0,0,1,.191-.081c-.03.64.065,1.611-.588,2.021l-.1-.033A5.448,5.448,0,0,1,444.92,381.517Zm-.39-.677a5.841,5.841,0,0,0-.473-1.711C444.556,379.058,444.98,380.588,444.53,380.839Zm-.783,2.178c-.821-.281-2.223-1.6-1.165-2.4C443.484,379.925,444.845,381.534,443.747,383.017Zm-.048-2.83c-.165-.08-.188-.243-.264-.391a2.826,2.826,0,0,0-.862-.9C442.821,378.644,443.857,379.175,443.7,380.187Zm-.981.014c-.61-.429-.7-.556-1.43-.378C441.227,379.421,442.512,378.986,442.718,380.2Zm-1.173,2.708c-.718-.538-.362-1.681.1-1.565C441.292,382.3,441.632,382.408,441.545,382.909Zm-.805-1.436c-.4-.722.689-1.587,1.265-1.069C441.19,380.732,441.238,380.873,440.74,381.473Zm1.31.978a2.422,2.422,0,0,0,.613,1.24C441.531,384,441.878,381.795,442.05,382.451Zm.135,2.619a.14.14,0,0,1,.2-.02c.436.285.415.773,1.469,1.173C443.4,386.887,441.782,385.528,442.185,385.07Zm-1.328.046.151-.186c.106,0,.147.11.189.2a4.081,4.081,0,0,0,1.3,1.546C441.689,387.1,440.766,386.02,440.857,385.116Zm-1.323-.653c.114,0,.179.119.2.21a6.438,6.438,0,0,0,.749,2.163l-.1.118C439.4,387.124,438.866,384.478,439.534,384.463Zm-.1-13.13c.383-.363,1.073-4.13,1.268-4.921-.666-.659-.276-1.685.356-.523a13.628,13.628,0,0,1,7-4.424c.065-.178.145-.432.357-.48l.167.058c.238.367-.36.756-.651.83a12.5,12.5,0,0,0-6.514,4.336,3.462,3.462,0,0,0-.517,1.433c-.119.572-.52,3.461-1.154,4.009a9.957,9.957,0,0,1-2.363,1.377.78.78,0,0,1-.356.081l-.025-.122C437.712,372.344,438.718,372.011,439.435,371.333Zm.465,3.089c-.859.271-.853-1.285-.535-1.621.047-.051.2-.134.253-.033C439.836,373.218,439.666,373.892,439.9,374.422Zm-1.29-.175-.161.14c-.827-.149-.078-1.567.111-1A4.241,4.241,0,0,1,438.611,374.247Zm-8.263-8.384c-.07-.528.737-.04.879.163C431.548,366.485,430.418,366.394,430.348,365.863Zm1.8.155c-.219.3-1.134-.875-1.062-1.181l.135-.017C431.469,364.93,432.37,365.715,432.146,366.018Zm1.153.311-.165.047c-.1-.2-.026-.431-.089-.643a2.546,2.546,0,0,0-1.071-1.3C433.28,364.47,433.946,365.552,433.3,366.329Zm.647.148c.142-.781.8-1.185-.27-2.147C435.388,364.5,434.989,366.673,433.946,366.478Zm.8.609c-.062-.088.243-.309.306-.379a1.7,1.7,0,0,0,.265-2.09,1.247,1.247,0,0,1,.9,1.382C436.138,366.374,435.055,367.516,434.746,367.087Zm-11.874,4.987c.158.016.078.863-.374.653C422.347,372.524,422.485,372.034,422.871,372.074Zm-.561,3.688.159.043a6.179,6.179,0,0,0,.277.708C422.364,376.829,421.958,375.934,422.31,375.762Zm6.27-.36c-.254.018-.815.454-1.175.535l-.1-.047c.073-.283.358-.414.463-.682l-.071-.126c-.859-.274-1.53.7-2.275.865-.073.015-.175.016-.213-.064.066-.113.254-.249.254-.382-1.007-.383-1.83-.978-2.878-.639-.07-.12.13-.224.122-.354-.028-.468-.526-.338-.794-.316-.007-.155.119-.2.141-.328a.86.86,0,0,1-.217-.436c.447.218.828.636,1.263.829a12.717,12.717,0,0,0,2.136.687,6.079,6.079,0,0,0,1.33-.28,11.982,11.982,0,0,1,2.521-.231,4.517,4.517,0,0,0,.03.8c.081.041.167,0,.246.047.1.372.12.871.188,1.256C429.078,376.714,429.234,375.355,428.58,375.4Zm-3.219,11.048.048-.17a2.947,2.947,0,0,1,.7.192l.018.161A.484.484,0,0,1,425.361,386.45Zm1.24-1.3c.063.143.218.331.161.491C426.046,385.856,426.2,384.259,426.6,385.151Zm.381,2.464c.014-.016.722-.506.671-.129C427.574,388.09,426.761,387.847,426.982,387.615Zm3.206-.024c0,.446-.921.13-.772-.351C429.495,387.166,430.1,387.5,430.188,387.591Zm3.368-8.126c-.322-.13-.133-1.982-.079-2.339l-.065-.123c-.318-.007-.528.934-.6,1.173-.32-.193-.324-1.2-.375-1.564l-.1-.1c-.613.267-.216,2.412-.373,2.72-.173.026-.183-.223-.365-.2s-.3.264-.341.425c-.132.571.118,1.183.032,1.75-.007.04-.049.184-.1.188-.159.011-.227-.629-.515-.8a.183.183,0,0,0-.159.042c-.243.3-.1,1.245-.11,1.629l-.088.138c-.148.041-.186-.228-.309-.122a1.343,1.343,0,0,0-.133.53c-.043.526-.052,1.045-.081,1.572-.006.121-.533,1-.61,1.237-.11.335.108.664.073,1-.257.082-.3-.166-.476-.261-.286-.156-1.243.391-1.5.505-.09-.192.247-.313-.015-.407a7.116,7.116,0,0,0-.743-.2l.007-.13c.6.133,1.518.352,2.028-.147a12.836,12.836,0,0,0,.857-1.834c.075-.494.048-1.051.088-1.555a18.913,18.913,0,0,1,.656-3.675c.158-.552.427-1.143.541-1.695s.065-1.165.195-1.744l.238-1.067-.079-.139c-.333.055-.486.522-.649.765-.292-.215.091-1.571.142-1.906l-.118-.033a2.378,2.378,0,0,0-.6.953c-.4-.9.1-1.27.167-2.054a.569.569,0,0,0-.347.1c.58-3.049,6.7-2.487,7.241-5.875a8.658,8.658,0,0,0,.05-.937,1.759,1.759,0,0,1,.442.922c.36,1.967-4,3.323-4,3.323a8.34,8.34,0,0,0,4.008-1.27c.1,1.174-5.066,1.787-5.617,2.526.978-.14,1.966-.2,2.954-.253-1.055.608-2.127.473-3.162,1.418l.064.105a4.894,4.894,0,0,0,.545-.179,8.274,8.274,0,0,1,2.165-.293,6.444,6.444,0,0,0-2.488,1.483l.024.106h.127a4.174,4.174,0,0,1,2.528-.5,5.8,5.8,0,0,0-2.18,1.4c.016.083.08.132.16.1a4.885,4.885,0,0,1,2.606-.6c-.095.236-2.446,1.293-2.171,1.712.027.043.113.038.15.016a3.888,3.888,0,0,1,2.734-.685l-.009.107c-.56.271-1.878.925-2.029,1.564.594-.017,2.047-1.133,2.718-.538a1.044,1.044,0,0,1-.093.114,5.592,5.592,0,0,1-.583.324,4.8,4.8,0,0,0-1.922,2.1A7.739,7.739,0,0,0,433.555,379.465Zm.748,1.577-.13.047a.535.535,0,0,1-.14-.364,3.421,3.421,0,0,1,1.663-3.586c.411-.23,1.116-.606,1.591-.359C435.566,378.319,434.976,378.734,434.3,381.042Zm.664,1.619-.132.047a.539.539,0,0,1-.14-.362,3.425,3.425,0,0,1,1.662-3.588c.413-.229,1.117-.605,1.592-.358C436.23,379.939,435.638,380.354,434.968,382.661Zm3.771.919c.425-.046-.125.778-.172.928a2.315,2.315,0,0,0,.148,1.813C437.572,386.394,437.248,383.738,438.738,383.58Zm-1.684,1.582a2.017,2.017,0,0,1,.979-3.14c.14-.038.355-.114.484-.025C437.584,383.066,436.986,383.826,437.054,385.162Zm1.372-5.051A5.976,5.976,0,0,0,436,383.49c-.059.3-.083.6-.153.892l-.184-.056C435.213,382.776,436.1,379.842,438.426,380.111Zm2.76-4.117a.693.693,0,0,1-.111,0c-.036-.007-.384-.178-.453-.208a4.564,4.564,0,0,0-2.025-.484,2.309,2.309,0,0,1-.605,0l-.014-.131c.657-.373,2.365.08,2.521-.139.1-.14-.254-2.486.109-3.243l.12-.074c.083.608.079,1.226.166,1.833.033.224.161,1.739.508,1.581s-.005-3.666.23-4.4c.04-.129.1-.272.254-.285,0,.539.109,3.616.634,3.747a.14.14,0,0,0,.173-.1c.162-.472-.167-2.819.254-3.055l.12.081a13.207,13.207,0,0,0,.346,2.981l.151.041c.106-.091.149-1.139.253-1.418l.135.008c.036.215.07,1.034.105,1.133.19.541.386-.326.593-.229a.872.872,0,0,1,.334.709A5.577,5.577,0,0,0,441.186,375.994Zm6.238-6.706a9.15,9.15,0,0,0-1.4,3.486,4.961,4.961,0,0,0,.04,1.663c.094.19.314.333.213.588a.309.309,0,0,1-.277.179c-.288,0-.27-.508-.325-.7a15.278,15.278,0,0,0-1.9-3.682,17.849,17.849,0,0,1-1.622-2.754c.02-.153.319-1.021.555-.67a7.332,7.332,0,0,0-.086,1.028c.228.742.908-1,1.147-.822.062.043.048.143.033.2-.144.526-.519.968-.414,1.549.331.518.78-1.307,1.307-1.426-.015.63-.677,1.5-.745,2.355l.088.146c.179,0,1.056-2,1.608-2.248-.058.7-1.3,2.439-1.062,3.079.13.1.211.027.279-.1a8.743,8.743,0,0,1,1.624-2.527c.05.022.134.1.1.171a9.568,9.568,0,0,0-1.292,3.064c-.012.151.027.312.206.31.486-.589.8-2.085,1.648-2.943.041-.04.223-.2.286-.162S447.45,369.241,447.424,369.288Zm1.324-.529c-.223.05-.432-.246-.6-.359a13.183,13.183,0,0,0-3.471-1.671c-.246-.074-1.685-.357-1.7-.513-.043-.355.431-.059.48-.294.034-.172.057-.348.087-.521l.119-.041a2.645,2.645,0,0,1,.222.562c.043.087.119.218.231.228.476.044-.064-1.288.332-1.4a3.863,3.863,0,0,0,.546,1.524c.53.453-.168-2.047.373-2.126l.119.089c-.006.374.135,2.39.6,2.428l.118-.081c.029-.363-.27-3.006.342-2.974.042.053.061,1.763.1,2.044a3.7,3.7,0,0,0,.389,1.3c.173.179.275-.026.278-.187a9.974,9.974,0,0,1,.176-3.471c.044-.116.119-.287.253-.319l.111.1a7.282,7.282,0,0,0,.673,4.873C448.6,368.1,449.375,368.615,448.748,368.759Z" transform="translate(-418.932 -343.006)" fill="#8c8179"/>
      <path id="Pfad_334" data-name="Pfad 334" d="M437.694,369.542c-.921-.66-1.739-1.177-2.843-.522l.015.163c.2.086.271.291.419.432.409.386,2.352.575,2.72.09l-.04-.139Zm-1.933.048a1.086,1.086,0,0,1-.544-.415,1.534,1.534,0,0,1,.672-.087A.446.446,0,0,0,435.76,369.591Zm.757.13a.394.394,0,0,0,.108-.438,1.541,1.541,0,0,1,.547.345A1.6,1.6,0,0,1,436.518,369.721Z" transform="translate(-427.566 -347.652)" fill="#8c8179"/>
    </g>
  </g>
</svg>
