<svg xmlns="http://www.w3.org/2000/svg" width="159.254" height="118.278" viewBox="0 0 159.254 118.278">
  <g id="Gruppe_105" data-name="Gruppe 105" transform="translate(-209.143 -112.106)">
    <g id="Gruppe_103" data-name="Gruppe 103" transform="translate(209.403 188.734)">
      <path id="Pfad_588" data-name="Pfad 588" d="M221.439,313.542a6.237,6.237,0,0,1,1.991,4.884,8.1,8.1,0,0,1-.687,3.324,5.776,5.776,0,0,1-2.234,2.543,7.26,7.26,0,0,1-4,1h-2.8v6.271h-3.9V311.753h6A8.125,8.125,0,0,1,221.439,313.542ZM218.264,321a2.92,2.92,0,0,0,.967-1.17,3.2,3.2,0,0,0,.3-1.292,3.754,3.754,0,0,0-.62-2.032,2.613,2.613,0,0,0-2.394-.982h-2.8v5.973h2.772A2.911,2.911,0,0,0,218.264,321Z" transform="translate(-209.813 -310.972)" fill="#8c8179"/>
      <path id="Pfad_589" data-name="Pfad 589" d="M268.9,326.452h-6.566l-1.614,3.875h-3.85l8.936-20.587h.216l8.934,20.587h-4.521Zm-1.292-3.283-1.911-4.817-1.992,4.817Z" transform="translate(-238.625 -309.74)" fill="#8c8179"/>
      <path id="Pfad_590" data-name="Pfad 590" d="M335.508,331.559l-4.17-6.3h-2.61v6.3h-3.9V311.753h6a8.371,8.371,0,0,1,5.719,1.789,6.176,6.176,0,0,1,2.032,4.884,7.844,7.844,0,0,1-.767,3.432,5.7,5.7,0,0,1-2.356,2.516l4.6,7.185Zm-6.781-10.065H331.5a2.759,2.759,0,0,0,2.314-.927,3.188,3.188,0,0,0,.727-2,3.8,3.8,0,0,0-.62-2.058,2.614,2.614,0,0,0-2.395-.982h-2.8Z" transform="translate(-280.232 -310.972)" fill="#8c8179"/>
      <path id="Pfad_591" data-name="Pfad 591" d="M389.723,314.945a3.4,3.4,0,0,0-2,.511A1.766,1.766,0,0,0,387,316.99a2.018,2.018,0,0,0,1.038,1.656A12.911,12.911,0,0,0,390.8,320a11.505,11.505,0,0,1,2.4,1.171,5.234,5.234,0,0,1,1.654,1.816,5.863,5.863,0,0,1,.66,2.934,5.365,5.365,0,0,1-.794,2.839,5.536,5.536,0,0,1-2.328,2.072,8.1,8.1,0,0,1-3.661.767,12.236,12.236,0,0,1-3.526-.525,11,11,0,0,1-3.257-1.6l1.723-3.041a9.427,9.427,0,0,0,2.341,1.238,6.97,6.97,0,0,0,2.369.483,4.244,4.244,0,0,0,2.152-.525,1.815,1.815,0,0,0,.915-1.708q0-1.534-2.879-2.665a25.762,25.762,0,0,1-2.827-1.292,5.812,5.812,0,0,1-1.95-1.776,4.892,4.892,0,0,1-.822-2.907,5.355,5.355,0,0,1,1.682-4.117,6.836,6.836,0,0,1,4.481-1.7,11.71,11.71,0,0,1,3.686.5,12.681,12.681,0,0,1,2.88,1.413l-1.48,2.987A9.642,9.642,0,0,0,389.723,314.945Z" transform="translate(-315.205 -310.801)" fill="#8c8179"/>
      <path id="Pfad_592" data-name="Pfad 592" d="M454.174,311.753v3.768h-9.607v4.224h8.5v3.768h-8.5v4.279h9.983v3.768H440.664V311.753Z" transform="translate(-351.157 -310.972)" fill="#8c8179"/>
      <path id="Pfad_593" data-name="Pfad 593" d="M518.618,310.52v20.613h-.109l-13.86-12.513.082,11.706h-3.956V309.74h.162l13.833,12.7-.081-11.921Z" transform="translate(-387.961 -309.74)" fill="#8c8179"/>
      <path id="Pfad_594" data-name="Pfad 594" d="M591.7,310.52v20.613H591.6l-13.859-12.513.081,11.706h-3.956V309.74h.162l13.833,12.7-.082-11.921Z" transform="translate(-432.709 -309.74)" fill="#8c8179"/>
    </g>
    <g id="Gruppe_104" data-name="Gruppe 104" transform="translate(209.143 218.331)">
      <path id="Pfad_595" data-name="Pfad 595" d="M215.2,398.333l-2.5-3.85h-1.78v3.85h-1.78V387.254h3.12a4.464,4.464,0,0,1,2.975.942,3.244,3.244,0,0,1,1.119,2.619,4.222,4.222,0,0,1-.434,1.895,2.975,2.975,0,0,1-1.363,1.347l2.695,4.276Zm-4.277-5.555h1.583a1.881,1.881,0,0,0,1.544-.587,2.023,2.023,0,0,0,.48-1.315,2.211,2.211,0,0,0-.183-.861,1.75,1.75,0,0,0-.624-.746,1.959,1.959,0,0,0-1.156-.312h-1.644Z" transform="translate(-209.143 -386.796)" fill="#8c8179"/>
      <path id="Pfad_596" data-name="Pfad 596" d="M253,387.254v1.7h-5.57v2.953h4.961v1.7h-4.961v3.013h5.783v1.7h-7.564V387.254Z" transform="translate(-231.496 -386.796)" fill="#8c8179"/>
      <path id="Pfad_597" data-name="Pfad 597" d="M283.564,388.663a2.1,2.1,0,0,0-1.3.366,1.194,1.194,0,0,0-.48,1,1.235,1.235,0,0,0,.6,1.042,7.976,7.976,0,0,0,1.681.829,6.908,6.908,0,0,1,1.409.663,2.99,2.99,0,0,1,.966,1.012,3.119,3.119,0,0,1,.38,1.613,2.978,2.978,0,0,1-.441,1.6,3.122,3.122,0,0,1-1.278,1.141,4.293,4.293,0,0,1-1.978.427,6.448,6.448,0,0,1-1.98-.312,6.187,6.187,0,0,1-1.734-.859l.792-1.385a5.073,5.073,0,0,0,1.331.707,4.159,4.159,0,0,0,1.423.281,2.573,2.573,0,0,0,1.415-.388,1.318,1.318,0,0,0,.609-1.2,1.334,1.334,0,0,0-.51-1.064,5.072,5.072,0,0,0-1.424-.777,12.082,12.082,0,0,1-1.567-.691,3.257,3.257,0,0,1-1.073-.96,2.542,2.542,0,0,1-.449-1.544,2.8,2.8,0,0,1,.92-2.183,3.723,3.723,0,0,1,2.427-.89,6.635,6.635,0,0,1,1.926.251,6.142,6.142,0,0,1,1.544.707l-.669,1.354A5.648,5.648,0,0,0,283.564,388.663Z" transform="translate(-252.164 -386.7)" fill="#8c8179"/>
      <path id="Pfad_598" data-name="Pfad 598" d="M313.726,389.794a5.769,5.769,0,0,1,2.063-2.078,5.551,5.551,0,0,1,5.661,0,5.879,5.879,0,0,1,2.078,2.085,5.547,5.547,0,0,1,.007,5.646,5.723,5.723,0,0,1-2.078,2.054,5.682,5.682,0,0,1-5.669.007,5.616,5.616,0,0,1-2.063-2.046,5.66,5.66,0,0,1,0-5.669Zm1.583,4.8a3.923,3.923,0,0,0,1.408,1.431,3.74,3.74,0,0,0,1.956.532,3.624,3.624,0,0,0,1.917-.525,3.85,3.85,0,0,0,1.378-1.431,4.109,4.109,0,0,0-.007-3.978,3.9,3.9,0,0,0-1.4-1.446,3.782,3.782,0,0,0-3.873,0,3.863,3.863,0,0,0-1.385,1.446,4.009,4.009,0,0,0-.51,1.993A3.886,3.886,0,0,0,315.309,394.594Z" transform="translate(-272.71 -386.604)" fill="#8c8179"/>
      <path id="Pfad_599" data-name="Pfad 599" d="M364.558,398.333l-2.5-3.85h-1.78v3.85H358.5V387.254h3.12a4.464,4.464,0,0,1,2.975.942,3.243,3.243,0,0,1,1.119,2.619,4.222,4.222,0,0,1-.434,1.895,2.975,2.975,0,0,1-1.363,1.347l2.695,4.276Zm-4.276-5.555h1.583a1.881,1.881,0,0,0,1.544-.587,2.021,2.021,0,0,0,.48-1.315,2.212,2.212,0,0,0-.183-.861,1.75,1.75,0,0,0-.624-.746,1.959,1.959,0,0,0-1.156-.312h-1.644Z" transform="translate(-300.591 -386.796)" fill="#8c8179"/>
      <path id="Pfad_600" data-name="Pfad 600" d="M399.906,387.254v1.7h-2.861v9.376h-1.766v-9.376h-2.784v-1.7Z" transform="translate(-321.404 -386.796)" fill="#8c8179"/>
      <path id="Pfad_601" data-name="Pfad 601" d="M450.393,387.254h3.151a6.587,6.587,0,0,1,3.447.82,5,5,0,0,1,1.986,2.117,6.256,6.256,0,0,1,.624,2.754,5.3,5.3,0,0,1-.754,2.839,5.109,5.109,0,0,1-2.017,1.888,5.838,5.838,0,0,1-2.754.661h-3.683Zm3.364,9.374a4.722,4.722,0,0,0,2.093-.442,3.272,3.272,0,0,0,1.415-1.3,4.5,4.5,0,0,0-.045-4.246,3.407,3.407,0,0,0-1.416-1.286,4.051,4.051,0,0,0-1.773-.411h-1.856v7.686Z" transform="translate(-356.854 -386.796)" fill="#8c8179"/>
      <path id="Pfad_602" data-name="Pfad 602" d="M492.647,395.007h-4.034l-1.065,2.6H485.8l4.9-11.537h.107l4.9,11.537h-2.039Zm-.594-1.522-1.384-3.5-1.431,3.5Z" transform="translate(-378.531 -386.073)" fill="#8c8179"/>
      <path id="Pfad_603" data-name="Pfad 603" d="M529.875,387.254l-4.961,11.6-4.961-11.6h2.115l2.922,7.274,2.8-7.274Z" transform="translate(-399.443 -386.796)" fill="#8c8179"/>
      <path id="Pfad_604" data-name="Pfad 604" d="M558.235,389.794a5.769,5.769,0,0,1,2.063-2.078,5.551,5.551,0,0,1,5.661,0,5.88,5.88,0,0,1,2.078,2.085,5.547,5.547,0,0,1,.007,5.646,5.722,5.722,0,0,1-2.078,2.054,5.682,5.682,0,0,1-5.669.007,5.616,5.616,0,0,1-2.063-2.046,5.661,5.661,0,0,1,0-5.669Zm1.583,4.8a3.923,3.923,0,0,0,1.407,1.431,3.74,3.74,0,0,0,1.956.532,3.624,3.624,0,0,0,1.917-.525,3.849,3.849,0,0,0,1.378-1.431,4.109,4.109,0,0,0-.007-3.978,3.9,3.9,0,0,0-1.4-1.446,3.782,3.782,0,0,0-3.873,0,3.863,3.863,0,0,0-1.385,1.446,4.008,4.008,0,0,0-.51,1.993A3.885,3.885,0,0,0,559.818,394.594Z" transform="translate(-422.416 -386.604)" fill="#8c8179"/>
      <path id="Pfad_605" data-name="Pfad 605" d="M604.889,388.663a2.1,2.1,0,0,0-1.3.366,1.2,1.2,0,0,0-.48,1,1.234,1.234,0,0,0,.6,1.042,7.974,7.974,0,0,0,1.681.829,6.926,6.926,0,0,1,1.409.663,2.993,2.993,0,0,1,.966,1.012,3.119,3.119,0,0,1,.381,1.613,2.978,2.978,0,0,1-.442,1.6,3.123,3.123,0,0,1-1.278,1.141,4.294,4.294,0,0,1-1.978.427,6.448,6.448,0,0,1-1.98-.312,6.188,6.188,0,0,1-1.734-.859l.792-1.385a5.068,5.068,0,0,0,1.332.707,4.155,4.155,0,0,0,1.422.281,2.573,2.573,0,0,0,1.415-.388,1.318,1.318,0,0,0,.609-1.2,1.334,1.334,0,0,0-.51-1.064,5.066,5.066,0,0,0-1.424-.777,12.053,12.053,0,0,1-1.566-.691,3.254,3.254,0,0,1-1.073-.96,2.544,2.544,0,0,1-.449-1.544,2.8,2.8,0,0,1,.92-2.183,3.724,3.724,0,0,1,2.427-.89,6.635,6.635,0,0,1,1.926.251,6.141,6.141,0,0,1,1.544.707l-.669,1.354A5.648,5.648,0,0,0,604.889,388.663Z" transform="translate(-448.902 -386.7)" fill="#8c8179"/>
    </g>
    <path id="Pfad_606" data-name="Pfad 606" d="M401.093,166.539H344.724V112.106h56.369Zm-38-43.312h-7.464l8.6,15.64h-8.262V155.3h3.6V142.533s3.046-.046,6.364-.046c.935,0,10.212.117,10.212-9.679,0-6.685-4.847-8.977-7.992-9.319C365.752,123.228,363.095,123.227,363.095,123.227Zm2.343,3.736,1.987.035a5.459,5.459,0,0,1,5.223,5.355c0,5.622-4.376,6.349-4.376,6.349l-6.47-11.789s1.282.011,3.635.05m10.935-3.759a19.212,19.212,0,0,1,3.1,3.648h.2s6.656,0,6.656,5.687c0,3.522-1.648,5.1-4.3,6.01-1.228-2.133-1.687-2.889-1.687-2.889a9.6,9.6,0,0,1-1.8,4.333l8.36,15.325h4l-7.212-13.265s6.214-1.348,6.214-9.49c0-.63.242-7.706-7.876-9.184a25.659,25.659,0,0,0-3.3-.2H376.34Zm1.005,32.111-4.024-7.283v7.283Z" transform="translate(-83.012 0)" fill="#8c8179"/>
  </g>
</svg>
