<svg xmlns="http://www.w3.org/2000/svg" width="217.299" height="84.057" viewBox="0 0 217.299 84.057">
  <g id="Gruppe_356" data-name="Gruppe 356" transform="translate(-137.033 -172.74)">
    <g id="Gruppe_245" data-name="Gruppe 245" transform="translate(187.109 178.776)">
      <path id="Pfad_736" data-name="Pfad 736" d="M274.08,189.259c.041.109.078.217.109.326l.048-.234c0-.012,0-.022.006-.034Z" transform="translate(-274.08 -189.259)" fill="#8c8179"/>
    </g>
    <g id="Gruppe_246" data-name="Gruppe 246" transform="translate(198.487 186.168)">
      <path id="Pfad_737" data-name="Pfad 737" d="M305.217,209.5l.063.058-.012-.027-.032-.041Z" transform="translate(-305.217 -209.489)" fill="#8c8179"/>
    </g>
    <g id="Gruppe_247" data-name="Gruppe 247" transform="translate(181.306 177.53)">
      <path id="Pfad_738" data-name="Pfad 738" d="M258.2,186l.223.04C258.373,185.838,258.317,185.75,258.2,186Z" transform="translate(-258.196 -185.848)" fill="#8c8179"/>
    </g>
    <g id="Gruppe_248" data-name="Gruppe 248" transform="translate(192.59 244.225)">
      <path id="Pfad_739" data-name="Pfad 739" d="M289.078,368.467l.173-.091C289.175,368.389,289.082,368.411,289.078,368.467Z" transform="translate(-289.078 -368.376)" fill="#8c8179"/>
    </g>
    <g id="Gruppe_249" data-name="Gruppe 249" transform="translate(165.686 245.003)">
      <path id="Pfad_740" data-name="Pfad 740" d="M216.007,372.824a37.361,37.361,0,0,0,7.283,1.107c.443.023.884.036,1.324.043a3.847,3.847,0,0,1-.231-1.691c-.138-.045-.321.3-.422-.029l.433-.071c.027.7.682,1.3.789,1.8.885,0,1.764-.03,2.635-.089-.057-.338-.081-.61.132-.418a.875.875,0,0,1-.072-.623c-.056,1,.381.6.635.987.456-.04.911-.086,1.362-.142,0-.019-.007-.036-.009-.057.011.021.021.037.031.054l.207-.028c.008-.126.005-.287.018-.4-.076.026-.309-.456-.395-.328-.027-.172-.35-.8-.486-1.275q-.6.068-1.211.118a.557.557,0,0,1-.024.561l-.318-.352a.631.631,0,0,0-.01-.183,35.331,35.331,0,0,1-12.231-1.3A11.064,11.064,0,0,1,216.007,372.824Zm7.06-.244-.115.946c-.2-.359-.092-.537-.117-.768-.077.052-.144.01-.166-.388a.768.768,0,0,1,.166.388C222.912,372.706,223,372.562,223.068,372.58Zm5.225-.25c.139.043.2.11.352.061-.216.632.4.879.006,1.2l-.5-.657.263.183Zm-6,1.344a3.068,3.068,0,0,1-.36-1.662C222.036,372.333,222.554,373.313,222.3,373.674Z" transform="translate(-215.448 -370.506)" fill="#8c8179"/>
    </g>
    <g id="Gruppe_250" data-name="Gruppe 250" transform="translate(177.444 175.82)">
      <path id="Pfad_741" data-name="Pfad 741" d="M247.627,181.325c.2.011.394.024.591.038l-.048-.2C247.84,181.319,247.825,181.136,247.627,181.325Z" transform="translate(-247.627 -181.167)" fill="#8c8179"/>
    </g>
    <g id="Gruppe_251" data-name="Gruppe 251" transform="translate(187.076 244.409)">
      <path id="Pfad_742" data-name="Pfad 742" d="M273.989,368.894l.039.011,0-.025Z" transform="translate(-273.989 -368.879)" fill="#8c8179"/>
    </g>
    <g id="Gruppe_252" data-name="Gruppe 252" transform="translate(140.285 213.162)">
      <path id="Pfad_743" data-name="Pfad 743" d="M145.954,283.408v-.016c-.007-.01-.015-.018-.021-.028Z" transform="translate(-145.932 -283.364)" fill="#8c8179"/>
    </g>
    <g id="Gruppe_253" data-name="Gruppe 253" transform="translate(159.34 242.57)">
      <path id="Pfad_744" data-name="Pfad 744" d="M198.082,365.563c.17-.136.209.2.26.5.044.006.075.054.073.179.155.073.309.145.464.216a.843.843,0,0,0-.055-.109l-.072.029.1-.294-.293-.471a1.226,1.226,0,0,1,.543.945,37.031,37.031,0,0,0,4.013,1.513c-.218-.415-.768-.829-.823-1.519-.227.18.06.755-.108.989-.023-.418.031-1.561-.4-1.469l.384-.33c.183.272.22-.089.41.092a7.109,7.109,0,0,0,.557,2.244q.84.261,1.7.484a6.772,6.772,0,0,1-.574-2.331,34.945,34.945,0,0,1-5.988-2.384C198.279,364.43,198.516,365.318,198.082,365.563Z" transform="translate(-198.082 -363.847)" fill="#8c8179"/>
    </g>
    <g id="Gruppe_254" data-name="Gruppe 254" transform="translate(159.447 244.785)">
      <path id="Pfad_745" data-name="Pfad 745" d="M198.375,369.982l.183.086c-.011-.05-.02-.1-.03-.159A.233.233,0,0,0,198.375,369.982Z" transform="translate(-198.375 -369.909)" fill="#8c8179"/>
    </g>
    <g id="Gruppe_255" data-name="Gruppe 255" transform="translate(138.173 200.236)">
      <path id="Pfad_746" data-name="Pfad 746" d="M142.534,266.1a5.948,5.948,0,0,0,.5.816c.071.126.142.257.207.387a34.9,34.9,0,0,1-.824-4.721,2.543,2.543,0,0,0-.516-.528l.015.212-.281-.357a1.051,1.051,0,0,1,.266.145l-.018-.27c-.019-.033-.025-.06-.005-.076l.005.076a2.87,2.87,0,0,0,.2.247c.548-.453-1.061-1.1-.765-1.743.524.158.181-.153.591.5.168.051.242.027.286-.013,0-.006-.006-.012-.009-.018l.009.018c.033-.03.05-.068.076-.094q-.071-1.418-.025-2.861a.123.123,0,0,0-.085.024c.053-.459-1-1.193-.738-1.322.543.768.478-.108.758.164l-.277.347a1.168,1.168,0,0,0,.361.3c0-.089.006-.178.011-.267a35.5,35.5,0,0,1,.437-3.982c0-.023-.007-.047-.006-.068,0,.016.007.03.01.046q.254-1.512.631-2.978c-.232-.209-.3.176-.729-.527a.121.121,0,0,0-.07.131q.081.158.164.317c.059.082.107.148.085.166-.028-.055-.057-.11-.085-.166a.787.787,0,0,1-.164-.317,2.162,2.162,0,0,1-.377-1.4c-.691-.713-.166.081-.5.026q-.416,1.406-.725,2.858a2.482,2.482,0,0,0,.4.277c.288.5-.286.27.164.832.164-.482.466.65.922.777-.182.239-.779-.236-.981-.373.037.08.061.137.061.137-.164-.193-.156-.2-.061-.137-.031-.069-.071-.155-.114-.242l-.179-.377c-.057.241-.289-.142-.383-.037q-.149.794-.262,1.6l.055.129.248.571a.226.226,0,0,0-.406.075c0,.017,0,.034-.006.051a.339.339,0,0,0,.065.2.483.483,0,0,1-.1.117q-.111,1-.17,2.017c.289.6,1.116.84,1.135,1.165a.9.9,0,0,0,.084.743l.179-.157c.132.3-.119.1-.16.244l-.178-.355c-.087-.179-.183-.352-.183-.352.357,1.012-.634.658-.427,1.688l-.486-.685c-.136.722,1.272,1.812.96,2.374-.5-1.145-.519.21-.929-.475.019.358.045.715.075,1.071a13.291,13.291,0,0,0,.748,1.445c-.049.135.556.9.958,1.245.04.254-.373.292.105.679.137-.013.187-.146.073-.436C142.843,265.388,142.042,265.632,142.534,266.1Zm-.691-16.7c-.077-.264-.158-.529.123-.573C141.714,248.96,142.2,249.621,141.844,249.4Zm.143,4.169.354-.007.126.21Zm-1.259,1.263c-.151-.607.679.442.478.2l-.394.147Zm.113,1.056.219.017-.314.177Zm.25-.436a2.914,2.914,0,0,1,.584.77.165.165,0,0,1,.063.119s-.023-.047-.063-.119C141.5,256.049,141.017,255.868,141.091,255.455Zm.233,3.821-.028-.483.322.536Z" transform="translate(-140.152 -247.988)" fill="#8c8179"/>
    </g>
    <g id="Gruppe_256" data-name="Gruppe 256" transform="translate(138.517 216.345)">
      <path id="Pfad_747" data-name="Pfad 747" d="M141.236,292.157l.013.085c-.053-.052-.1-.109-.154-.167q.053.383.115.764a1.466,1.466,0,0,0,.567.6C142.026,293.238,141.5,292.519,141.236,292.157Z" transform="translate(-141.095 -292.075)" fill="#8c8179"/>
    </g>
    <g id="Gruppe_257" data-name="Gruppe 257" transform="translate(181.218 174.272)">
      <path id="Pfad_748" data-name="Pfad 748" d="M270.327,181.873c.056.038.165.108.221.078-.005.411-.109,0-.171.3l-.16-.383c-.114.064-.117.267-.281.091.138-.317-.231-.8-.46-1.239q-1.012-.53-2.061-1c0,.032,0,.064-.009.1l-.03-.113-.143-.063-.11.258a.823.823,0,0,0-.006-.309q-.47-.2-.945-.4l.065.49-.109-.081.019-.419a37.04,37.04,0,0,0-8.029-2.226l0,.081-.024-.086-.131-.022a2.7,2.7,0,0,1,.331,1.013c-.092.322.172.775.31,1.217a35.019,35.019,0,0,1,4.62,1.179,1.81,1.81,0,0,0-.256-.485l.405-.276a3.525,3.525,0,0,0,.239.888,35.011,35.011,0,0,1,7.036,3.321l-.07-.2c-.046-.127-.1-.3-.154-.475l-.212-.7a1.782,1.782,0,0,1,.548.5l.288-.639a1.326,1.326,0,0,0,.08.579c.024.023.049.048.076.076a.361.361,0,0,0-.032.017,1.654,1.654,0,0,0,.088.153c.443.149-.218-.754.121-.743l.27.314c-.168.165-.11,0-.217-.212-.171.031.045.65.223.951l-.339-.275c-.108.4.513.65.005.471.216-.191-.466-.494-.151-.66-.016-.032-.031-.063-.043-.093-.122-.115-.206-.143-.255,0,.154.314-.052.844.394.855-.111.064-.448.126-.393-.041-.222-.2-.121.107-.214.128a35.4,35.4,0,0,1,6.182,4.837c-.048-.149-.061-.27.02-.324-.105.072-.242-.141-.345-.382h0l-.018-.054a2.482,2.482,0,0,1-.112-.341l.112.341c.007.018.014.037.022.055l.327.049a3.654,3.654,0,0,0-.823-2.052c-.217-.328-.44-.655-.616-.988a3.428,3.428,0,0,1-.2-.516,37.357,37.357,0,0,0-4.491-3.024C270.783,181.941,270.152,180.858,270.327,181.873Zm-9.105-3.726c-.009.143.074.59-.048.79C261.082,178.565,260.94,178.145,261.222,178.147Zm6.832,2.138.006-.138.33.3Z" transform="translate(-257.957 -176.931)" fill="#8c8179"/>
    </g>
    <g id="Gruppe_258" data-name="Gruppe 258" transform="translate(158.339 243.806)">
      <path id="Pfad_749" data-name="Pfad 749" d="M195.343,367.732q.472.246.953.477c-.027-.314.177-.485-.273-.874-.138-.023-.218.1-.174.416l-.166-.522Z" transform="translate(-195.343 -367.23)" fill="#8c8179"/>
    </g>
    <g id="Gruppe_259" data-name="Gruppe 259" transform="translate(180.334 245.73)">
      <path id="Pfad_750" data-name="Pfad 750" d="M255.776,374.9a37,37,0,0,0,6.632-1.541l-2.1-.432.007,0c.045.343-.121.48-.571.565-.01.009-.034.016-.088.017l.088-.017c.039-.035-.163-.113-.163-.113l-.294-.227-.452-.155-1.178-.439-.179-.063q-.961.189-1.939.324a2.535,2.535,0,0,0,.41,1.483C255.629,374.117,255.671,374.673,255.776,374.9Z" transform="translate(-255.537 -372.494)" fill="#8c8179"/>
    </g>
    <g id="Gruppe_260" data-name="Gruppe 260" transform="translate(201.583 187.336)">
      <path id="Pfad_751" data-name="Pfad 751" d="M313.711,212.888l.172.193a.473.473,0,0,0-.174-.383l-.019-.012A.393.393,0,0,1,313.711,212.888Z" transform="translate(-313.69 -212.686)" fill="#8c8179"/>
    </g>
    <g id="Gruppe_261" data-name="Gruppe 261" transform="translate(212.658 208.241)">
      <path id="Pfad_752" data-name="Pfad 752" d="M344.039,269.943v-.011L344,269.9Z" transform="translate(-344.001 -269.897)" fill="#8c8179"/>
    </g>
    <g id="Gruppe_262" data-name="Gruppe 262" transform="translate(200.921 184.157)">
      <path id="Pfad_753" data-name="Pfad 753" d="M323.525,227.96l.091.109.037.035a37.023,37.023,0,0,0-1.17-6.812c-.111-.005-.25-.087-.421-.3l.163-.251c-.035.136.076.246.19.3q-.13-.469-.271-.932a.979.979,0,0,1-.213-.283.5.5,0,0,1,.138.04,37.41,37.41,0,0,0-7.557-13.449l-.15-.015-.036-.2q-1.025-1.153-2.141-2.221c.06.133.117.257.161.359l.054-.038-.016.282-.009.278-.151-.168-.145-.172c-.047.234-.26.379-.183.669.591.481-.085,1.154.585,1.933.02.015.04.025.06.037,0,0,0,0,0-.007s.013.013.02.019a.535.535,0,0,0,.434.063c.037-.1.1-.157.205-.139a.456.456,0,0,1-.205.139,3.155,3.155,0,0,0-.084.52,35.462,35.462,0,0,1,4.456,6.366c-.066-.333-.116-.664.157-.715.009.364.551.862.873,1.4-.121-.045-.362-.133-.206.1-.277.021-.444-.582-.6-.821-.176.153.1.274-.1.247a35.124,35.124,0,0,1,1.836,3.995c.107-.063.254-.12.177-.326l.526,1.316c-.068.066-.207.007-.365-.074.072.2.143.4.211.608a4.172,4.172,0,0,1,.543.528l-.249-.722.361.049c.361.932,1.528,1.449,1.61,2.188a5.891,5.891,0,0,1-1.489-1.5c-.32.733,1.013,1.672.882,2.4l.09-.094c.047.54-.189-.226-.326.089-.36-.463-.471-.678-.088-.744-.241-.25-.579-.648-.644-.248a1.148,1.148,0,0,0-.314-.737,34.892,34.892,0,0,1,1,4.42.5.5,0,0,1,.038.062.377.377,0,0,0,.067.043l.086-.1-.109.21a.454.454,0,0,0-.044-.156c-.01-.007-.022-.012-.031-.02.065.418.118.839.168,1.261a8.314,8.314,0,0,1,2.133,1.222Zm-10.809-22.173c.249.376.327-.09.588.478C313.057,205.894,312.7,206.346,312.716,205.788Zm2.846,3.391-.312-.881.517.723C315.723,209.125,315.535,208.918,315.562,209.178Zm1.423,2.067-.419-.8c-.215-.4-.405-.812-.405-.812.192-.22.6.445.909.621C317.056,210.544,317.007,211.01,316.985,211.245Zm.462.914c-.035-.257-.335-.8-.194-.992l.348.5.149-.122c.171.433-.208.1-.393-.034.018.127-.015.3.113.409.474.618.355-.224.515-.282l.18.5C317.658,211.694,318,212.565,317.446,212.159Zm2.777,7.05-.167-.236.168.237.172.231S320.3,219.328,320.223,219.208Zm.031-1.372a13.287,13.287,0,0,0-.959-1.265c.136.1.529.352.522.052l.192.359.114-.26c-.052.28.444.737.6,1.206C320.455,217.723,320.316,217.616,320.254,217.836Zm.6-.346-.072-.081.272-.033Z" transform="translate(-311.879 -203.985)" fill="#8c8179"/>
    </g>
    <g id="Gruppe_263" data-name="Gruppe 263" transform="translate(183.315 245.792)">
      <path id="Pfad_754" data-name="Pfad 754" d="M264.715,372.874l-1.019-.209.323.25A1.474,1.474,0,0,0,264.715,372.874Z" transform="translate(-263.696 -372.665)" fill="#8c8179"/>
    </g>
    <g id="Gruppe_264" data-name="Gruppe 264" transform="translate(182.28 242.617)">
      <path id="Pfad_755" data-name="Pfad 755" d="M261.833,367.351a2.612,2.612,0,0,1,.528.157l-.141-.109a.774.774,0,0,1-.323-.25,5.868,5.868,0,0,1,1.659.031l.115-.265a15.685,15.685,0,0,0,3.545.417.4.4,0,0,0-.136.157c.2-.076.406-.152.607-.231a.794.794,0,0,1,.057-.072.153.153,0,0,1,.1.006l.314-.128a.53.53,0,0,0-.353-.349,1.48,1.48,0,0,1,.579.257q1.343-.561,2.633-1.223c-.1-.021-.2-.051-.227-.115.013-.079.1-.1.281-.145.189.03.287.047.331.058q.947-.5,1.863-1.048c-.092-.024-.189-.049-.293-.071l.155.114-2.028-.338.477.259a3.564,3.564,0,0,1-1.677-.49q-1.135.574-2.314,1.067c.217.138.529.267.3.446-.977-.419-.976.191-1.657.153.684.036-.14.417.524.611l.119-.262c.349-.02.414.114.751.174-.07-.134.031-.236-.126-.344.983.338-.308.386.592.669l-1.159-.288.127.343c-.384-.349-1.326-.386-1.432-.2-.133-.344,1.018.091.718-.279A.632.632,0,0,0,265.5,366l-.137-.114a34.944,34.944,0,0,1-4.5,1.2l.172.064c.077.026.151.049.224.069C261.477,367.278,261.656,367.314,261.833,367.351Z" transform="translate(-260.862 -363.974)" fill="#8c8179"/>
    </g>
    <g id="Gruppe_265" data-name="Gruppe 265" transform="translate(167.499 173.832)">
      <path id="Pfad_756" data-name="Pfad 756" d="M221.1,178.578l.256-.055c-.109-.364.258-.549-.107-.976.453.183.026-.468.362-.314l.151.391c-.311-.3-.118.59-.246.867a35.127,35.127,0,0,1,7.557-.665c-.011-.079.034-.05.1,0l.238.005a.651.651,0,0,0-.007-.08c-.049-.2-.167-.143-.225-.116a3.44,3.44,0,0,0-.144-.665c-.058.026-.172.007-.122.2a1.106,1.106,0,0,0-.138-.594l-.062.024-.067-.623c.166.074.379.265.5.139a3.515,3.515,0,0,0,.413,1.716c.224.008.448.015.672.027l.075.005a8.966,8.966,0,0,0-.351-1.895.655.655,0,0,1-.194-.222c-.169-.006-.338-.013-.507-.017a.525.525,0,0,1-.091.159.684.684,0,0,0-.028-.16q-.552-.011-1.1-.005c.02.2.2.4.184.59a.9.9,0,0,1-.22-.59,37.239,37.239,0,0,0-3.908.243c.006.033.012.064.018.1a1.175,1.175,0,0,1-.13-.086q-1.811.215-3.569.6c.033.126.058.234.068.3.054.052.114.024.12-.054.11.5.146.894.27,1.26.014.032.025.066.037.1A1.938,1.938,0,0,0,221.1,178.578Zm8.439-1.684a.85.85,0,0,1-.005.429,1.029,1.029,0,0,1,.005-.429,1.625,1.625,0,0,0-.185-.5C229.579,176.5,229.57,176.691,229.543,176.894Z" transform="translate(-220.411 -175.728)" fill="#8c8179"/>
    </g>
    <g id="Gruppe_266" data-name="Gruppe 266" transform="translate(139.993 174.787)">
      <path id="Pfad_757" data-name="Pfad 757" d="M146.535,205.776A35.352,35.352,0,0,1,173.2,180.264c0-.006,0-.011-.006-.016a1.017,1.017,0,0,0-.06-.393c-.013-.033-.025-.067-.037-.1-.213-.485-.711-.885-.886-1.415a37.478,37.478,0,0,0-21.805,14.475l.117.239-.187-.144a37.237,37.237,0,0,0-3.769,6.519l0,.009-.006,0q-.343.762-.654,1.542c.207.26.393.465.57.664a1,1,0,0,1,.122.138l-.122-.138c-.233-.224-.571-.4-.6-.58q-.4,1.023-.745,2.075a4.818,4.818,0,0,1,1.267,1.843l-.613-.088.322.593.116-.1A.794.794,0,0,1,146.535,205.776Zm1.807-9.4.92.9c-.205-.156-.14.026-.286.046Zm-1.055,4.07-.567-.563.257.1c-.235-.476-.309-1.125.353-.72,2.017,1.33-.349.714.508,1.763Z" transform="translate(-145.133 -178.341)" fill="#8c8179"/>
    </g>
    <g id="Gruppe_267" data-name="Gruppe 267" transform="translate(177.585 173.918)">
      <path id="Pfad_758" data-name="Pfad 758" d="M251.537,178.106l0-.074.005.006a3.6,3.6,0,0,0-.57-1.816q-1.26-.172-2.546-.258c-.049.051-.053.143.059.351l-.33-.21c.146.366-.023.443-.145.494.158.137.1.49.241.463a.136.136,0,0,1,.028-.081l0,.076a.087.087,0,0,1-.026,0,7.492,7.492,0,0,0,.222,1l.34.026c0-.018-.006-.03-.012-.05a.125.125,0,0,1,.092.058q1.525.129,3.008.385a4.806,4.806,0,0,0-.357-.442C251.544,178.061,251.543,178.084,251.537,178.106Z" transform="translate(-248.014 -175.964)" fill="#8c8179"/>
    </g>
    <g id="Gruppe_268" data-name="Gruppe 268" transform="translate(193.484 178.464)">
      <path id="Pfad_759" data-name="Pfad 759" d="M291.636,188.466l-.11-.062a.8.8,0,0,1,.059.17A.113.113,0,0,0,291.636,188.466Z" transform="translate(-291.526 -188.404)" fill="#8c8179"/>
    </g>
    <g id="Gruppe_269" data-name="Gruppe 269" transform="translate(138.688 217.451)">
      <path id="Pfad_760" data-name="Pfad 760" d="M153.213,316.37c.005-.016.007-.033.011-.049-.042-.141-.358-.437-.182-.593a.663.663,0,0,1,.182.593.055.055,0,0,1-.006.053,37.417,37.417,0,0,0,7.905,5.537c-.022-.254.1-.522-.185-.611l-.016.174c-.238-.488-.5-.709-.531-1.116l.428-.1c-.373-.784.029-.62.163-.8a35.477,35.477,0,0,1-14.22-15.066c-.04.047-.1.041-.192-.074a1.046,1.046,0,0,0,.007-.3c-.074-.154-.145-.309-.217-.464l-.634-.355c-.278-1.766-1.133-1.622-1.593-3.189-.321.233-.092,1.058-.532.833-.477-.56-.247-.362-.364-.818l.493.726c-.374-.9.1-.976-.645-2.073l-.326.153c.238-.038-.042-.539-.238-.977s-.335-.8.253-.6a9.516,9.516,0,0,0,1.7,2.059c-.34.062.591.939-.034.935.6.822.327,0,.567-.069q-.361-1.054-.655-2.136a9.244,9.244,0,0,1-.783-.993c-.39-.5-.8-1.049-1.018-1.307-.275.026-.249.2.088.591l-.9-.428c.178.036.048-.376-.175-.8q.133.777.3,1.542l.163.248a.234.234,0,0,1-.108.009,37.038,37.038,0,0,0,1.427,4.833l.09.115a.134.134,0,0,1-.013.088A37.524,37.524,0,0,0,153.213,316.37Zm6.817,4.147c-.084.21-.329-.187-.475-.128.079-.115-.019-.575.125-.641C159.513,320.077,159.981,320.289,160.03,320.516ZM144.2,298.128l.151.717-.436-.783Zm-.419,3.746c.134-.006.353.265.411.076l-.013-.035c-.072-.106-.129-.145-.068-.186l.068.186c.006.009.011.015.018.025a.067.067,0,0,1,0,.01l.178.487C144.194,301.941,144.1,302.619,143.778,301.875Zm5.647,8.061c.03.023.041.036.009.035,0-.012-.006-.023-.009-.035-.1-.077-.426-.282-.27-.57A.816.816,0,0,1,149.425,309.936Zm-.744-.038-.48-.308,0-.425C148.473,309.345,148.613,309.856,148.681,309.9Zm-1.264-1.876c-.278-.089-.209-.126-.36-.465l.413,0,.295.5c-.131.168.17,1-.322.708.152.163.345.975.486.555l-.137.585A2.159,2.159,0,0,1,147.417,308.022Zm1.4,2.558-.137.081c.137-.164.068-.546.41-.322l0,1.006C148.681,310.995,149.093,311.011,148.819,310.58Zm2,1.4-.071-.553.175.495.16.5Z" transform="translate(-141.563 -295.102)" fill="#8c8179"/>
    </g>
    <g id="Gruppe_270" data-name="Gruppe 270" transform="translate(201.116 187.009)">
      <path id="Pfad_761" data-name="Pfad 761" d="M312.412,211.789c.133.141.264.285.4.428A.678.678,0,0,0,312.412,211.789Z" transform="translate(-312.412 -211.789)" fill="#8c8179"/>
    </g>
    <g id="Gruppe_271" data-name="Gruppe 271" transform="translate(180.795 214.797)">
      <path id="Pfad_762" data-name="Pfad 762" d="M256.8,311.459V288.372h5.318q5.836,0,5.836,6.777a8.543,8.543,0,0,1-.632,3.469,4.9,4.9,0,0,1-2.221,2.3l3.567,10.538h-3.5l-3.08-9.857h-1.978v9.857Zm3.308-19.974v7.2h1.881a3.33,3.33,0,0,0,1.394-.243,1.9,1.9,0,0,0,.811-.7,3.161,3.161,0,0,0,.357-1.118,12.205,12.205,0,0,0,0-3.08,3.087,3.087,0,0,0-.389-1.151,2.633,2.633,0,0,0-2.335-.908Z" transform="translate(-256.8 -288.177)" fill="#8c8179"/>
      <path id="Pfad_763" data-name="Pfad 763" d="M299.04,311.459V288.372H308.9v3.113h-6.55v6.777h5.707v3.113h-5.707v6.777h6.55v3.308Z" transform="translate(-283.606 -288.177)" fill="#8c8179"/>
      <path id="Pfad_764" data-name="Pfad 764" d="M335.956,311.459V288.372h3.177l4.994,13.91h.065v-13.91H347.5v23.087h-3.113l-5.058-13.878h-.065v13.878Z" transform="translate(-307.033 -288.177)" fill="#8c8179"/>
      <path id="Pfad_765" data-name="Pfad 765" d="M379.447,311.459V291.485h-3.826v-3.113h10.96v3.113h-3.826v19.974Z" transform="translate(-332.204 -288.177)" fill="#8c8179"/>
      <path id="Pfad_766" data-name="Pfad 766" d="M423.8,311.459l5.156-23.087h2.756l5.156,23.087h-3.308l-.973-4.961h-4.507l-.973,4.961Zm8.171-8.074-1.621-8.366h-.065l-1.621,8.366Z" transform="translate(-362.781 -288.177)" fill="#8c8179"/>
      <path id="Pfad_767" data-name="Pfad 767" d="M484.058,311.459V288.372h4.831a6.772,6.772,0,0,1,2.708.486,5.113,5.113,0,0,1,1.832,1.3,4.861,4.861,0,0,1,1.021,1.865,7.776,7.776,0,0,1,.308,2.189v.843a7.368,7.368,0,0,1-.146,1.589,3.82,3.82,0,0,1-.438,1.135,4.553,4.553,0,0,1-1.686,1.557,3.59,3.59,0,0,1,1.719,1.621,6.446,6.446,0,0,1,.551,2.918v1.3a6.7,6.7,0,0,1-1.475,4.669q-1.476,1.622-4.718,1.621Zm3.308-19.974v6.355h1.492a2.528,2.528,0,0,0,2.221-.827,4.271,4.271,0,0,0,.567-2.415,3.649,3.649,0,0,0-.632-2.335,2.815,2.815,0,0,0-2.286-.778Zm0,9.273v7.393h1.427a3.49,3.49,0,0,0,1.573-.292,2.015,2.015,0,0,0,.859-.811,3.053,3.053,0,0,0,.357-1.232q.064-.713.065-1.556a10.391,10.391,0,0,0-.1-1.524,2.779,2.779,0,0,0-.389-1.1,1.873,1.873,0,0,0-.875-.665,4.187,4.187,0,0,0-1.459-.211Z" transform="translate(-401.019 -288.177)" fill="#8c8179"/>
      <path id="Pfad_768" data-name="Pfad 768" d="M521.151,311.459l5.156-23.087h2.756l5.155,23.087h-3.307l-.973-4.961h-4.507l-.973,4.961Zm8.171-8.074-1.621-8.366h-.065l-1.621,8.366Z" transform="translate(-424.558 -288.177)" fill="#8c8179"/>
      <path id="Pfad_769" data-name="Pfad 769" d="M565.787,311.459V288.372H571.1q5.836,0,5.836,6.777a8.543,8.543,0,0,1-.632,3.469,4.9,4.9,0,0,1-2.221,2.3l3.567,10.538h-3.5l-3.08-9.857h-1.978v9.857Zm3.307-19.974v7.2h1.881a3.33,3.33,0,0,0,1.394-.243,1.9,1.9,0,0,0,.811-.7,3.161,3.161,0,0,0,.357-1.118,12.2,12.2,0,0,0,0-3.08,3.088,3.088,0,0,0-.389-1.151,2.634,2.634,0,0,0-2.335-.908Z" transform="translate(-452.884 -288.177)" fill="#8c8179"/>
      <path id="Pfad_770" data-name="Pfad 770" d="M608.293,311.459V288.372H611.6v23.087Z" transform="translate(-479.859 -288.177)" fill="#8c8179"/>
      <path id="Pfad_771" data-name="Pfad 771" d="M640.139,294.681h-3.307v-.745a3.534,3.534,0,0,0-.535-1.962,1.978,1.978,0,0,0-1.8-.827,2.084,2.084,0,0,0-1.1.259,2.179,2.179,0,0,0-.681.649,2.737,2.737,0,0,0-.357.957,6.263,6.263,0,0,0-.1,1.118,11.074,11.074,0,0,0,.048,1.135,2.161,2.161,0,0,0,.243.811,1.8,1.8,0,0,0,.568.616,5.161,5.161,0,0,0,1.021.519l2.529,1a6.289,6.289,0,0,1,1.784.99,4.278,4.278,0,0,1,1.07,1.313,6.167,6.167,0,0,1,.486,1.767,17.545,17.545,0,0,1,.129,2.253,11.866,11.866,0,0,1-.292,2.708,5.706,5.706,0,0,1-.94,2.124,4.662,4.662,0,0,1-1.784,1.427,6.3,6.3,0,0,1-2.691.519,5.886,5.886,0,0,1-2.237-.422,5.294,5.294,0,0,1-1.784-1.167,5.671,5.671,0,0,1-1.184-1.735,5.264,5.264,0,0,1-.438-2.156V304.6H632.1v1.037a2.7,2.7,0,0,0,.535,1.638,2.084,2.084,0,0,0,1.8.73,2.9,2.9,0,0,0,1.314-.243,1.749,1.749,0,0,0,.729-.7,2.559,2.559,0,0,0,.308-1.086q.049-.632.049-1.411a14.112,14.112,0,0,0-.065-1.492,2.571,2.571,0,0,0-.259-.94,1.837,1.837,0,0,0-.6-.584,7.859,7.859,0,0,0-.99-.486l-2.367-.973a5.242,5.242,0,0,1-2.869-2.318,7.97,7.97,0,0,1-.73-3.616,8.374,8.374,0,0,1,.357-2.464,5.6,5.6,0,0,1,1.07-2.01,4.9,4.9,0,0,1,1.735-1.346,5.794,5.794,0,0,1,2.513-.5,5.5,5.5,0,0,1,2.254.454,5.822,5.822,0,0,1,1.767,1.2,5.01,5.01,0,0,1,1.491,3.567Z" transform="translate(-492.866 -287.839)" fill="#8c8179"/>
      <path id="Pfad_772" data-name="Pfad 772" d="M670.33,311.459V291.485H666.5v-3.113h10.96v3.113h-3.826v19.974Z" transform="translate(-516.8 -288.177)" fill="#8c8179"/>
      <path id="Pfad_773" data-name="Pfad 773" d="M695.965,311.459l5.155-23.087h2.756l5.156,23.087h-3.308l-.973-4.961h-4.507l-.973,4.961Zm8.171-8.074-1.621-8.366h-.065l-1.621,8.366Z" transform="translate(-535.496 -288.177)" fill="#8c8179"/>
    </g>
    <g id="Gruppe_272" data-name="Gruppe 272" transform="translate(231.923 241.026)">
      <path id="Pfad_774" data-name="Pfad 774" d="M400.884,361.74a5.014,5.014,0,0,1,1.881.411c.026-.172.013-.345.026-.345a1.331,1.331,0,0,1,.371-.119.763.763,0,0,1,.49.53.835.835,0,0,1-.145.318c.583.358.98.808.98,1.246,0,.132-.066.079-.066.159v.371c-.093,1.113-1.656,2.08-2.636,2.716l-.318.212.424.119a9.408,9.408,0,0,1,1.55.662.692.692,0,0,0,.715-.014,10.237,10.237,0,0,1,3.935-.914.425.425,0,0,1,.45.4.324.324,0,0,1-.411.225,7.043,7.043,0,0,0-4.014.782,1.709,1.709,0,0,1,.649,1.245c0,.967-2.014,3.047-3.339,3.047a2.545,2.545,0,0,1-1.3-.861c.027-.093-.039-.146-.039-.265a1.883,1.883,0,0,1,.239-.861,8.979,8.979,0,0,1,2.583-2.173c.291-.186.225-.239.013-.345a4.255,4.255,0,0,0-1.921-.371.541.541,0,0,0-.583.4,13.335,13.335,0,0,0-.5,1.577c-.027.106-.146.039-.146.119s.159.464.159.6-.106.133-.2.186a1.962,1.962,0,0,1-.57.014c-.079,0-.172-.066-.172-.225a6.856,6.856,0,0,1,.318-.915c.053-.172.119-.092.159-.225a16.543,16.543,0,0,1,.689-1.775,1.474,1.474,0,0,1-.079-.411c0-.093.159-.12.344-.159.729-1.59,1.656-3.471,2.173-4.518a5.637,5.637,0,0,0-1.855-.345c-1.47,0-3.14.437-3.14,1.113a.773.773,0,0,0,.093.278c.027.066-.172.066-.252.066s-.742-.411-.715-.662C396.79,362.443,398.5,361.74,400.884,361.74Zm2.755,6.995a6.555,6.555,0,0,0-2.835,2.6.561.561,0,0,0,.093.623.975.975,0,0,0,.464.159c.6,0,2.822-1.259,2.822-2.359A1.365,1.365,0,0,0,403.639,368.735Zm-2.424-2.371c-.159.331-.066.411.2.265,1.06-.583,2.478-1.642,2.478-2.663a1.306,1.306,0,0,0-.636-1.047c-.252.344-.517.7-.543.755-.053.093-.172.132-.238.239C402.1,364.536,401.665,365.436,401.215,366.364Z" transform="translate(-396.723 -360.932)" fill="#8c8179"/>
      <path id="Pfad_775" data-name="Pfad 775" d="M426.022,376.026c.146.026.424.159.292.4a11.513,11.513,0,0,0-1.4,3.206c-.079.437.093.345.239.186.145-.186,2.371-2.756,2.875-2.756.543,0,.861,1.511.742,3.061a1.534,1.534,0,0,1,.768-.3.671.671,0,0,1,.649.609.451.451,0,0,1-.252.5c-.159.053-.265-.066-.517-.212a1.659,1.659,0,0,0-.781.4c-.319,1.616-1.113,3.921-1.842,4.61-.225.225-.529-.119-.6-.464-.252-1.205.8-3.392,1.935-4.6a7.951,7.951,0,0,0-.053-2.584c-.053-.225-.172-.318-.437-.132-1.5,1.047-2.265,3.167-3.007,3.259a.58.58,0,0,1-.57-.623c0-.093.067-.2.08-.3a13.051,13.051,0,0,1,1.431-4.133C425.638,376.013,425.876,376,426.022,376.026Zm1.908,5.763a4.672,4.672,0,0,0-1.193,2.782c-.013.252.053.291.172.066A11.525,11.525,0,0,0,427.93,381.789Z" transform="translate(-414.072 -370.025)" fill="#8c8179"/>
      <path id="Pfad_776" data-name="Pfad 776" d="M456.252,367.222c.146-.014,1.007-.04,1.656-.04.053-.172.106-.331.132-.463.5-.318.689.12.7.49,1.139.066,3.126.265,4.067.384.119.014.132.08.093.159s-.106.225-.265.212c-1.1-.093-2.636-.146-4.041-.159-.2.358-.543.8-.715,1.139a8.646,8.646,0,0,0-.715,1.775c.994.106,3.325-.066,3.921-.623.543-.039.5.371.331.557-.424.45-3.034.874-4.372.543a5.51,5.51,0,0,0-.093,1.245c.039.915.463,1.722,1.6,1.722a7.2,7.2,0,0,0,4.213-2.133.348.348,0,0,1,.265.318.771.771,0,0,1-.278.463,6.836,6.836,0,0,1-4.385,1.934c-1.152,0-2.04-.821-2.04-2.464a14.683,14.683,0,0,1,1.338-4.478c-.7,0-1.338.013-1.8.04C455.762,367.752,455.669,367.262,456.252,367.222Z" transform="translate(-434.207 -364.055)" fill="#8c8179"/>
      <path id="Pfad_777" data-name="Pfad 777" d="M479.068,375.3c0-.093.212-.2.345-.2a1.076,1.076,0,0,1,.609.357c.133.292-.424,1.471-.689,2.346-.039.132.04.145.106.053.477-.57,2.57-2.318,3.206-2.318a1.13,1.13,0,0,1,.742.914.53.53,0,0,1-.609.543c-.212-.039-.318-.543-.49-.569-.808.106-2.3,1.457-3.153,2.424-.133.252-.305.954-.477,1.206-.172-.026-.3.159-.384.145s-.4-.265-.318-.463a14.843,14.843,0,0,0,1.232-4.16C479.121,375.567,479.068,375.394,479.068,375.3Z" transform="translate(-448.265 -369.446)" fill="#8c8179"/>
      <path id="Pfad_778" data-name="Pfad 778" d="M496.148,375.451c.066.014.145.345.119.464s-.039,0-.145.119c-.331.768-1.325,3.087-1.152,3.365.6-.623,1.948-2.677,3.418-3.643a1.2,1.2,0,0,1,.451-.146c.5-.106.649.557.3,1.351-.039.093-.2.133-.146.252a9.448,9.448,0,0,0-.517,2.187c.014.3.119.424.4.3a13.684,13.684,0,0,0,3.484-2.875c.08.027.212.225.12.331a13.568,13.568,0,0,1-3.551,3.1c-.782.371-1.246.053-1.272-.49-.014-.186.093-.119.079-.252-.145-.556.609-2,.782-3.007.026-.186-.106-.133-.292-.014-1.391.874-2.371,2.636-3.14,3.882-.079.132-.742.212-.782-.093-.159-.079-.2-.609-.119-.967a17.879,17.879,0,0,1,1.4-3.842A2.033,2.033,0,0,1,496.148,375.451Z" transform="translate(-458.549 -369.662)" fill="#8c8179"/>
      <path id="Pfad_779" data-name="Pfad 779" d="M521.814,367.466c-.292.609-.623,1.232-.821,1.775-.053.132-.146.013-.225.145a13.2,13.2,0,0,0-1.232,3.856c-.027.212-.027.318.186.212a13.77,13.77,0,0,0,2.438-1.576.285.285,0,0,1,.106.517,25.223,25.223,0,0,1-2.305,1.59c-.292.185-1.126.424-1.047-.186a19.218,19.218,0,0,1,1.246-4.451,47.5,47.5,0,0,0-4.346,3.762c.159.411.49.782.49.927,0,.225-.344.278-.543.278-.6,0-1.258-.345-1.205-.6a2.247,2.247,0,0,1,.676-.887,9.064,9.064,0,0,1-.133-1.881c.066-.729.451-2.2,1.484-2.2,1.113,0,1.4.3,1.4.623,0,.239-.278.371-.543.278a5.084,5.084,0,0,1-1.51,1.166,10.649,10.649,0,0,0-.2,1.577c1.457-1.258,3.868-2.968,4.888-4.253.066-.2.146-.384.225-.569a11.722,11.722,0,0,0-2.252.463,3.031,3.031,0,0,1-.662.689c-.12.053-.371-.477-.345-.755.04-.345.278-.424,1.245-.609a20.556,20.556,0,0,1,2.212-.278c.345-.808.636-1.47.821-1.841a.645.645,0,0,1,.676.676.889.889,0,0,1-.291.49,5.521,5.521,0,0,1-.238.6c1.007-.053,1.987-.08,2.676-.08.265,0,.093.265.013.411A21.086,21.086,0,0,0,521.814,367.466Zm-6.373,6.2-.039.093c-.079.172.2.212.092.013Zm.636-3.431a1.4,1.4,0,0,0,.583-.6c0-.079-.08-.093-.146-.093a.291.291,0,0,0-.278.212A4.01,4.01,0,0,0,516.078,370.235Z" transform="translate(-471.497 -363.187)" fill="#8c8179"/>
      <path id="Pfad_780" data-name="Pfad 780" d="M556.929,367.3c0,.2-.584.622-1.166.888-1.245.569-3.444,1.325-3.617,1.391q-.4.158-.318.477a6.2,6.2,0,0,0,3.855,3.312c.133,0,.251-.145.358-.212.345.039.649.9-.411.9-1.444,0-4-2.358-4.531-4.028-.583,1.3-1.232,2.677-1.617,3.551a1.509,1.509,0,0,0-.053.94c-.543.04-.821-.278-.543-.887.7-1.511,2.809-5.909,2.9-7.737a.515.515,0,0,1,.424-.291c.146,0,.371.543.119,1.483a23.441,23.441,0,0,1-.9,2.226,28.13,28.13,0,0,0,5.008-2.292C556.73,367.008,556.929,367.167,556.929,367.3Z" transform="translate(-493.217 -363.418)" fill="#8c8179"/>
      <path id="Pfad_781" data-name="Pfad 781" d="M579,378.985a1.244,1.244,0,0,1,0-.318,5.065,5.065,0,0,1,2.371-3.5.258.258,0,0,1,.358.014c.066.039.106-.08.212-.08.265,0,.7.742.729,1.193a.61.61,0,0,1-.265.49c-.027.026.013.159-.08.265a10.231,10.231,0,0,1-2.557,1.961c.066.729.6.715,1.643.371a9.525,9.525,0,0,0,3.8-2.623c.106-.014.384.013.185.252-.688.821-2.848,2.981-4.928,3.14a.983.983,0,0,1-1.4-.742,17.555,17.555,0,0,1-1.683.782c-.782.3-1.3.093-1.378-.451-.026-.186-.066-.132-.093-.265-.331-.768,0-2,.2-3.034.04-.186-.145-.159-.3-.013a13.9,13.9,0,0,0-2.557,3.723c-.066.133-.715.212-.782-.093-.186-.08-.265-.609-.212-.967a18.378,18.378,0,0,1,1.073-3.842,2,2,0,0,1,.556-.027c.066.013.172.345.172.464s-.039,0-.132.119c-.278.768-1.073,3.087-.874,3.365a24.724,24.724,0,0,1,2.941-3.564.9.9,0,0,1,.437-.146c.5-.106.716.557.424,1.352-.026.092-.172,0-.106.119a3.84,3.84,0,0,0-.2,2.265c.093.292.3.543.57.424A5.447,5.447,0,0,0,579,378.985Zm.782-.437c1.232-.729,2.358-1.7,2.358-2.385,0-.132-.384-.358-.49-.358C581.024,375.8,579.911,377.183,579.778,378.548Z" transform="translate(-508.105 -369.446)" fill="#8c8179"/>
      <path id="Pfad_782" data-name="Pfad 782" d="M607.751,375.734a2.956,2.956,0,0,1-.6.835,6.039,6.039,0,0,0-.715,2.318c-.013.239.106.252.437.12a6.239,6.239,0,0,0,2.477-2.477c-.027-.132.053-.345.2-.371a1.441,1.441,0,0,1,.451.04.837.837,0,0,1,.212.662c-.013.053-.146.079-.212.132-.079.411-.411,2.053.225,2.226.835.226,3.5-2.967,4.611-5.167a.333.333,0,0,1,.186.451c-1.444,2.61-3.723,5.418-5.048,5.326-.093-.067-.159-.014-.238-.067-.808-.464-.676-1.6-.49-2.239.026-.093,0-.119-.066-.026a10.594,10.594,0,0,1-2.213,2.265c-.3.146-.424.159-.517.093s-.212.172-.451.093-.477-.371-.331-.927a27.747,27.747,0,0,1,1.232-4.014C607.459,374.7,607.817,375.535,607.751,375.734Z" transform="translate(-529.294 -368.778)" fill="#8c8179"/>
      <path id="Pfad_783" data-name="Pfad 783" d="M628.2,367.439c.716-2.424,1.63-4.729,1.775-5.14.133-.384.2-.57.093-.676.014-.225.278-.278.464-.265.159.013.371.609.371.848a1.808,1.808,0,0,1-.291.7c-.067.106-.133.053-.159,0a1.5,1.5,0,0,0-.291.49,29.8,29.8,0,0,0-1.5,4.027h.636c1.14,0,2.279.212,2.279,1.378a2.376,2.376,0,0,1-.026.3,16.794,16.794,0,0,1,3.007-1.629.388.388,0,0,1,.57.238c0,.079-.252.119-.7.331a17.278,17.278,0,0,0-3.021,1.656,3.875,3.875,0,0,1-1.59,1.709c-.861.57-1.43.225-1.43-.013,0-.119.145-.265.251-.318a12.358,12.358,0,0,0,2.319-1.55l.079-.45c.106-.875-.623-1.02-1.484-.968-.291.014-.7.053-1.1.066a15.451,15.451,0,0,0-.5,2.836,3.746,3.746,0,0,0,.159,1.073c-.066.119-.808.4-.808-.106a15.289,15.289,0,0,1,.676-3.776,3.386,3.386,0,0,1-.384-.013c-.318-.014-.689-.45-.371-.729C627.563,367.453,627.855,367.439,628.2,367.439Z" transform="translate(-542.919 -360.722)" fill="#8c8179"/>
      <path id="Pfad_784" data-name="Pfad 784" d="M647.6,370.444a2.948,2.948,0,0,1-.6.835,6.043,6.043,0,0,0-.716,2.318c-.013.239.106.252.437.119a6.24,6.24,0,0,0,2.477-2.477c-.027-.133.053-.345.2-.371a1.444,1.444,0,0,1,.451.04.84.84,0,0,1,.212.663c-.013.053-.146.079-.212.132-.08.411-.318,2.12,0,2.266.517.238,3.285-1.921,3.974-2.783.133.027.133.186,0,.345-1.232,1.5-3.458,3.047-4,3.008-.093-.066-.159-.014-.239-.066-.808-.464-.676-1.6-.49-2.239.027-.093,0-.119-.066-.027a10.609,10.609,0,0,1-2.213,2.266c-.305.145-.424.159-.517.092s-.212.172-.451.093-.477-.371-.331-.928a27.765,27.765,0,0,1,1.233-4.014C647.306,369.41,647.663,370.246,647.6,370.444Zm.821-1.669c-.159.172-.278-.04-.424-.2a11.976,11.976,0,0,0,.4-2.252.578.578,0,0,1,.464-.358c.212,0,.3.384.358.821C648.75,367.662,648.71,368.245,648.418,368.775Zm1.855-.384a.368.368,0,0,1-.49.027,8.647,8.647,0,0,0,.451-1.789c.132-.278.3-.623.45-.623.212,0,.5.278.557.715A14.1,14.1,0,0,0,650.273,368.39Z" transform="translate(-554.58 -363.648)" fill="#8c8179"/>
      <path id="Pfad_785" data-name="Pfad 785" d="M669.4,366.909c.119,0,.609.265.6.463a13.289,13.289,0,0,1-.623,1.8c-.066.212-.146.133-.291.119a29.836,29.836,0,0,0-1.166,4.332c-.04.2.132.278.212.172a22.929,22.929,0,0,1,3.02-3.206.97.97,0,0,1,.543.225c.146.186.053.556.2.755.119.318-.623,2.5-.212,3.008,1.775-.729,4.134-3.657,5.035-5.074.172-.053.37.12.212.4-.98,1.683-4.305,5.339-5.71,5.365-.146,0-.4-.331-.292-.795-.278-.464.411-2.518.172-2.994-.662.172-1.762,1.564-2.411,2.438a1.4,1.4,0,0,1-.464.927.459.459,0,0,1-.318.133c-.093,0-.265.265-.371.265s-.225-.133-.278-.292a.84.84,0,0,1,.027-.345c.411-3.51,1.736-5.816,1.789-7.538A.442.442,0,0,1,669.4,366.909Z" transform="translate(-568.398 -364.246)" fill="#8c8179"/>
      <path id="Pfad_786" data-name="Pfad 786" d="M692.271,366.722a1.8,1.8,0,0,0-.344,1.073c0,1.033.238,2.093,1.192,2.093a4.458,4.458,0,0,0,1.841-.649,1.994,1.994,0,0,1,0-.4,5.067,5.067,0,0,1,2.371-3.5.258.258,0,0,1,.358.014c.066.039.106-.08.212-.08.265,0,.7.742.729,1.193a.6.6,0,0,1-.212.5c-.027.026.013.159-.079.265a14.8,14.8,0,0,1-2.584,2.079c.12.6.636.57,1.616.239a9.524,9.524,0,0,0,3.8-2.623c.106-.014.384.013.185.252-.689.821-2.848,2.981-4.928,3.14a.956.956,0,0,1-1.351-.609,5.1,5.1,0,0,1-2.226.755c-.676,0-1.577-.529-1.577-2.556a14.936,14.936,0,0,1,2.729-7.605c.146-.5.437-.689.689-.689.159,0,.424.384.424.636a2.158,2.158,0,0,1-.53,1.047A21.617,21.617,0,0,1,692.271,366.722Zm.039-1.577c-.119.437-.066.623.212.106a16.1,16.1,0,0,0,1.219-3.008c.066-.2.106-.424.04-.424s-.278.371-.344.491-.053.039-.133.185A13.4,13.4,0,0,0,692.31,365.145Zm3.5,3.153c-.106.424-.014.464.331.225,1.06-.729,1.934-1.6,1.961-2.186,0-.132-.384-.358-.49-.358C697.053,365.98,696.113,367.093,695.808,368.3Z" transform="translate(-583.648 -359.621)" fill="#8c8179"/>
      <path id="Pfad_787" data-name="Pfad 787" d="M717.313,375.3c0-.093.212-.2.345-.2a1.076,1.076,0,0,1,.609.357c.133.292-.424,1.471-.689,2.346-.04.132.04.145.106.053.477-.57,2.57-2.318,3.206-2.318a1.13,1.13,0,0,1,.742.914.53.53,0,0,1-.609.543c-.212-.039-.318-.543-.49-.569-.808.106-2.3,1.457-3.153,2.424-.133.252-.3.954-.477,1.206-.172-.026-.3.159-.384.145s-.4-.265-.318-.463a14.844,14.844,0,0,0,1.232-4.16C717.366,375.567,717.313,375.394,717.313,375.3Z" transform="translate(-599.456 -369.446)" fill="#8c8179"/>
    </g>
    <g id="Gruppe_296" data-name="Gruppe 296" transform="translate(156.043 221.091)">
      <g id="Gruppe_281" data-name="Gruppe 281" transform="translate(11.032 4.183)">
        <g id="Gruppe_276" data-name="Gruppe 276" transform="translate(0.225 1.791)">
          <g id="Gruppe_275" data-name="Gruppe 275">
            <g id="Gruppe_274" data-name="Gruppe 274">
              <g id="Gruppe_273" data-name="Gruppe 273">
                <path id="Pfad_788" data-name="Pfad 788" d="M223.284,323.057c-.419.527-.41.912-1.039,1.235a3.9,3.9,0,0,1-1.951.219.416.416,0,0,0-.4.544l0,0c.58,1.411,2.763,1.856,4.875.994s3.354-2.705,2.774-4.116v0a.992.992,0,0,0-.651-.472,4.225,4.225,0,0,0-3.084,1.081A3.384,3.384,0,0,0,223.284,323.057Z" transform="translate(-219.864 -321.415)" fill="#8c8179"/>
              </g>
            </g>
          </g>
        </g>
        <g id="Gruppe_280" data-name="Gruppe 280">
          <g id="Gruppe_279" data-name="Gruppe 279">
            <g id="Gruppe_278" data-name="Gruppe 278">
              <g id="Gruppe_277" data-name="Gruppe 277">
                <path id="Pfad_789" data-name="Pfad 789" d="M219.256,320.026a.785.785,0,0,0,.221.475c.224.214.539.217.985.221a2.89,2.89,0,0,0,1.253-.261,1.265,1.265,0,0,0,.284-.2,1.6,1.6,0,0,0,.28-.395,3.361,3.361,0,0,1,.3-.46,3.2,3.2,0,0,1,.49-.485,4.816,4.816,0,0,1,1.538-.856,5.058,5.058,0,0,1,1.4-.284,1.653,1.653,0,0,1,.24.046.184.184,0,0,0,.232-.2v0c-.17-.895-2.8-1.538-4.633-.792C220.062,317.57,219.158,319.331,219.256,320.026Z" transform="translate(-219.248 -316.514)" fill="#8c8179"/>
              </g>
            </g>
          </g>
        </g>
      </g>
      <g id="Gruppe_286" data-name="Gruppe 286">
        <g id="Gruppe_285" data-name="Gruppe 285">
          <g id="Gruppe_284" data-name="Gruppe 284">
            <g id="Gruppe_283" data-name="Gruppe 283">
              <g id="Gruppe_282" data-name="Gruppe 282">
                <path id="Pfad_790" data-name="Pfad 790" d="M198.168,309.813c1.2-2.81-2-4.061-4.122-4.52-1.764-.382-4.561-.568-4.948,1.861a2.2,2.2,0,0,1,.251-.048,2.426,2.426,0,0,1,.529-.01c.05,0,.1.011.152.018s.1.017.162.03l.077.017.009,0h0l.006,0h0l.021.005.042.012.085.024.043.013.043.015.088.031.045.016.044.018c.059.024.12.05.179.079l.09.044c.03.015.058.031.088.047l.087.048.085.05.083.05.081.051.155.1.149.1.073.047.072.045q.144.09.291.172c.1.054.2.109.3.155l.036.018.018.009.02.01.088.04.088.041.022.01.011.005-.008,0h0l.005,0,.041.018.163.069.165.066c.22.086.447.163.669.227l.165.047.04.011.023.005.02.005.083.02.083.02.083.019.165.035c.218.044.433.081.635.11s.4.052.569.07.329.033.459.045l.3.029.111.012s-.032.017-.093.044-.155.067-.274.11-.27.091-.447.136a5.524,5.524,0,0,1-1.334.168c-.033,0-.065,0-.1,0l-.1,0-.1,0-.1-.007-.1-.008-.049,0-.052-.006q-.1-.013-.2-.029a4.72,4.72,0,0,1-.8-.2c-.129-.045-.259-.095-.384-.151l-.047-.021-.054-.026-.085-.041-.084-.042-.023-.012-.024-.013-.048-.026c-.062-.035-.129-.071-.186-.107l-.088-.055-.043-.028-.043-.029c-.115-.076-.225-.158-.329-.239-.208-.164-.39-.33-.545-.461a3.49,3.49,0,0,0-.455-.335l-.029-.018-.03-.016-.059-.033-.057-.032-.034-.017-.03-.016c-.035-.018-.077-.038-.115-.056l-.059-.026-.058-.025a3.529,3.529,0,0,0-.448-.152c-.115-.031-.223-.053-.319-.071a5.177,5.177,0,0,0,3.008,4.613C194.055,312.684,197.284,311.878,198.168,309.813Z" transform="translate(-189.058 -305.065)" fill="#8c8179"/>
              </g>
            </g>
          </g>
        </g>
      </g>
      <g id="Gruppe_295" data-name="Gruppe 295" transform="translate(1.97 5.413)">
        <g id="Gruppe_290" data-name="Gruppe 290" transform="translate(4.024 2.478)">
          <g id="Gruppe_289" data-name="Gruppe 289">
            <g id="Gruppe_288" data-name="Gruppe 288">
              <g id="Gruppe_287" data-name="Gruppe 287">
                <path id="Pfad_791" data-name="Pfad 791" d="M205.464,326.661v0h0Z" transform="translate(-205.463 -326.661)" fill="#8c8179"/>
              </g>
            </g>
          </g>
        </g>
        <g id="Gruppe_294" data-name="Gruppe 294">
          <g id="Gruppe_293" data-name="Gruppe 293">
            <g id="Gruppe_292" data-name="Gruppe 292">
              <g id="Gruppe_291" data-name="Gruppe 291">
                <path id="Pfad_792" data-name="Pfad 792" d="M198.8,321.855c-.051.075-.1.149-.147.22l-.025.037-.012.019-.013.02-.056.091c-.018.031-.037.061-.056.09l-.014.023-.007.011,0-.006,0,.005-.024.042-.1.166-.1.167c-.126.223-.244.447-.352.666l-.078.162-.019.039-.01.023-.009.019-.037.081-.037.081-.035.08c-.023.053-.046.106-.068.159-.088.211-.167.415-.237.608s-.13.373-.183.536-.1.308-.134.43-.065.22-.085.285-.031.1-.031.1-.01-.031-.026-.09-.037-.148-.056-.264a3.769,3.769,0,0,1-.047-.43,4.778,4.778,0,0,1,0-.585,5.7,5.7,0,0,1,.095-.715c.006-.032.012-.064.019-.1s.015-.065.022-.1l.023-.1.027-.1.027-.1.014-.05.016-.053c.022-.069.043-.138.067-.208a7.252,7.252,0,0,1,.342-.832c.036-.075.077-.148.115-.222a5.506,5.506,0,0,1-2.23-.25,3.35,3.35,0,0,1-.318-.132c-1.093,2.5-.6,5.14,1.121,5.932,1.756.807,4.126-.6,5.294-3.142a5.84,5.84,0,0,0,.3-4.6A4.992,4.992,0,0,1,198.8,321.855Z" transform="translate(-194.45 -319.88)" fill="#8c8179"/>
              </g>
            </g>
          </g>
        </g>
      </g>
    </g>
    <g id="Gruppe_305" data-name="Gruppe 305" transform="translate(155.269 189.378)">
      <g id="Gruppe_298" data-name="Gruppe 298" transform="translate(42.959 6.01)">
        <g id="Gruppe_297" data-name="Gruppe 297">
          <path id="Pfad_793" data-name="Pfad 793" d="M304.508,237.14q0,4.819,0,9.637a.624.624,0,0,0,.774.606c18.6-4.613,35.745,3.74,54.106,1.389a6.914,6.914,0,0,0,6.083-6.814h0a6.914,6.914,0,0,0-6.083-6.814c-18.361-2.351-35.5,6-54.106,1.389A.625.625,0,0,0,304.508,237.14Z" transform="translate(-304.508 -234.719)" fill="#8c8179"/>
        </g>
      </g>
      <g id="Gruppe_300" data-name="Gruppe 300" transform="translate(29.587 9.729)">
        <g id="Gruppe_299" data-name="Gruppe 299">
          <path id="Pfad_794" data-name="Pfad 794" d="M271,244.9v3.591a2.66,2.66,0,0,1-1.209,2.23l-1.876,1.221H279.9a.625.625,0,0,0,.625-.625v-5.791a.625.625,0,0,0-.625-.625Z" transform="translate(-267.914 -244.897)" fill="#8c8179"/>
        </g>
      </g>
      <g id="Gruppe_302" data-name="Gruppe 302">
        <g id="Gruppe_301" data-name="Gruppe 301">
          <path id="Pfad_795" data-name="Pfad 795" d="M219.131,219.953a1.681,1.681,0,0,0-1.681-1.681H188.622a1.681,1.681,0,0,0-1.681,1.681v11.215a3.149,3.149,0,0,0,1.3,2.551q2.607,1.887,5.218,3.767a3.14,3.14,0,0,0,1.631.585,125.846,125.846,0,0,0,15.885,0,3.137,3.137,0,0,0,1.632-.585q2.613-1.877,5.218-3.767a3.149,3.149,0,0,0,1.3-2.552Q219.132,225.561,219.131,219.953Zm-29.872,11.082-.016-.485c-.008-.309-.029-.749-.037-1.279s-.025-1.146-.029-1.808-.008-1.367-.013-2.072.008-1.411.012-2.072.021-1.279.029-1.808.029-.97.037-1.279l.016-.485a.084.084,0,0,1,.152-.048l.036.048.024.033c.015.021.042.053.068.094.052.083.142.2.229.358s.192.342.3.556.208.457.309.722c.051.132.094.27.145.413s.087.29.132.442c.081.3.157.623.214.953a11.419,11.419,0,0,1,.181,2.072c0,.353-.017.705-.047,1.052a9.737,9.737,0,0,1-.138,1.02c-.057.331-.133.65-.215.953s-.178.59-.277.854-.2.507-.308.722-.2.4-.295.557-.176.276-.228.358c-.026.041-.052.073-.067.094l-.024.033-.035.048a.085.085,0,0,1-.152-.048Zm27.21,1.854c-.2.026-.492.07-.866.113s-.827.1-1.347.153-1.108.115-1.751.168-1.338.113-2.075.157-1.515.1-2.319.128-1.637.069-2.483.083-1.708.028-2.564.03-1.719-.014-2.565-.031-1.678-.05-2.482-.083-1.583-.08-2.32-.127-1.433-.1-2.075-.157-1.23-.113-1.751-.167-.974-.108-1.347-.153-.666-.087-.866-.113l-.306-.041,1.181.022,3.109.07,2.075.042,2.315.037,2.475.025c.843.009,1.7.011,2.555.007s1.712,0,2.556-.007l2.475-.025,2.315-.037,2.075-.041,3.109-.069,1.181-.021Z" transform="translate(-186.941 -218.272)" fill="#8c8179"/>
        </g>
      </g>
      <g id="Gruppe_304" data-name="Gruppe 304" transform="translate(9.774 20.369)">
        <g id="Gruppe_303" data-name="Gruppe 303">
          <path id="Pfad_796" data-name="Pfad 796" d="M223.9,274.019q-3.9.121-7.8,0a6.987,6.987,0,0,0-2.373,4.223,2.016,2.016,0,0,0,3.971.691,2.99,2.99,0,0,1,.886-1.712,2.014,2.014,0,0,0,2.865,0,3.415,3.415,0,0,1,.9,1.767,2.015,2.015,0,0,0,3.949-.808A7.333,7.333,0,0,0,223.9,274.019Z" transform="translate(-213.691 -274.018)" fill="#8c8179"/>
        </g>
      </g>
    </g>
    <g id="Gruppe_306" data-name="Gruppe 306" transform="translate(144.532 224.316)">
      <path id="Pfad_797" data-name="Pfad 797" d="M158.836,317.472l.082-.147.033.09-.083.114q.183.325.372.645c.019-.075.041-.148.057-.225l-.042.25q.505.852,1.059,1.669l.053-.688c-.053-.081-.1-.163-.156-.244l-.026.009.005-.041a33.618,33.618,0,0,1-2.634-5.013c.011.667.37,1.211.229,1.551Q158.279,316.477,158.836,317.472Z" transform="translate(-157.557 -313.891)" fill="#8c8179"/>
    </g>
    <g id="Gruppe_307" data-name="Gruppe 307" transform="translate(189.625 180.158)">
      <path id="Pfad_798" data-name="Pfad 798" d="M281.2,193.041c-.16.073-.188.208-.24.358q1.162.532,2.277,1.147l.057-.057a.438.438,0,0,1,.026.1A33.789,33.789,0,0,1,300.5,220.141c.151.088.3.177.454.263A34.233,34.233,0,0,0,281.2,193.041Z" transform="translate(-280.965 -193.041)" fill="#8c8179"/>
    </g>
    <g id="Gruppe_308" data-name="Gruppe 308" transform="translate(170.102 177.052)">
      <path id="Pfad_799" data-name="Pfad 799" d="M231.908,184.986q1.417-.049,2.809.02a.576.576,0,0,1,.159-.1c-.033.033-.072.067-.11.1a33.538,33.538,0,0,1,4.33.5,2.043,2.043,0,0,0,.505-.341c-.159-.031-.319-.058-.478-.087v0l-.326.09-.331.083c.073-.088.138-.174.2-.255a34.03,34.03,0,0,0-3.645-.4,1.2,1.2,0,0,1-.353.233,1.091,1.091,0,0,1,.13-.246c-.961-.048-1.93-.058-2.909-.024-.463.016-.922.044-1.379.078l.007.006-.563.1.278-.082q-1.235.1-2.444.292a3.721,3.721,0,0,0-.256.471A33.928,33.928,0,0,1,231.908,184.986Z" transform="translate(-227.535 -184.541)" fill="#8c8179"/>
    </g>
    <g id="Gruppe_309" data-name="Gruppe 309" transform="translate(175.363 244.957)">
      <path id="Pfad_800" data-name="Pfad 800" d="M243.387,370.382l-.07.056c-.024.065-.1.136-.272.225,0,0,.1-.087.2-.168l.071-.057a.147.147,0,0,0,.01-.054c-.377.012-.753.017-1.128.017a1.205,1.205,0,0,0-.266.425c.455,0,.911,0,1.369-.015a3.57,3.57,0,0,1,.131-.43Z" transform="translate(-241.933 -370.38)" fill="#8c8179"/>
    </g>
    <g id="Gruppe_310" data-name="Gruppe 310" transform="translate(144.038 223.831)">
      <path id="Pfad_801" data-name="Pfad 801" d="M156.205,312.971q.1.242.2.483c.075.041.19.01.258-.293a.716.716,0,0,1-.018-.233c-.05-.122-.1-.243-.151-.365A1.579,1.579,0,0,1,156.205,312.971Z" transform="translate(-156.205 -312.562)" fill="#8c8179"/>
    </g>
    <g id="Gruppe_311" data-name="Gruppe 311" transform="translate(164.787 243.614)">
      <path id="Pfad_802" data-name="Pfad 802" d="M212.988,366.725l.139.048C213.092,366.7,213.044,366.688,212.988,366.725Z" transform="translate(-212.988 -366.703)" fill="#8c8179"/>
    </g>
    <g id="Gruppe_312" data-name="Gruppe 312" transform="translate(151.722 235.143)">
      <path id="Pfad_803" data-name="Pfad 803" d="M177.444,344.2l.171-.408-.015-.03c-.081-.079-.16-.159-.241-.239a3.054,3.054,0,0,1-.128.473C177.3,344.063,177.373,344.13,177.444,344.2Z" transform="translate(-177.232 -343.521)" fill="#8c8179"/>
    </g>
    <g id="Gruppe_313" data-name="Gruppe 313" transform="translate(152.473 235.888)">
      <path id="Pfad_804" data-name="Pfad 804" d="M179.33,346.039l.062.056-.1-.534A4.18,4.18,0,0,1,179.33,346.039Z" transform="translate(-179.289 -345.561)" fill="#8c8179"/>
    </g>
    <g id="Gruppe_314" data-name="Gruppe 314" transform="translate(182.711 241.543)">
      <path id="Pfad_805" data-name="Pfad 805" d="M270.054,361.147l-.436.181c.071-.121.131-.213.187-.292a33.46,33.46,0,0,1-6.293,2.34c-.213.313-.168.158-.459.333l.223-.273q-.309.078-.62.151a1.989,1.989,0,0,0-.615.554l.015.017a33.892,33.892,0,0,0,6.522-2.084,4.121,4.121,0,0,1,.4-.54c.238-.252.261.378.494-.1a.255.255,0,0,0,.031.221q.367-.173.73-.355l.007-.061Zm-5.618,2.29-.312.129.309-.434C264.683,363.031,264.411,363.568,264.436,363.438Z" transform="translate(-262.042 -361.037)" fill="#8c8179"/>
    </g>
    <g id="Gruppe_315" data-name="Gruppe 315" transform="translate(190.723 241.565)">
      <path id="Pfad_806" data-name="Pfad 806" d="M284.183,361.1l-.213.088.191.089Z" transform="translate(-283.97 -361.097)" fill="#8c8179"/>
    </g>
    <g id="Gruppe_316" data-name="Gruppe 316" transform="translate(153.028 236.259)">
      <path id="Pfad_807" data-name="Pfad 807" d="M180.807,346.576l.177.726q.866.754,1.781,1.451l.136-.24.171.471a34.2,34.2,0,0,0,8.8,4.727,2.375,2.375,0,0,1,.294-.345A33.843,33.843,0,0,1,180.807,346.576Z" transform="translate(-180.807 -346.576)" fill="#8c8179"/>
    </g>
    <g id="Gruppe_317" data-name="Gruppe 317" transform="translate(167.504 177.858)">
      <path id="Pfad_808" data-name="Pfad 808" d="M221.432,187.124c-.1-.137-.063-.392-.263-.376l-.1.022a.843.843,0,0,0-.093.041.823.823,0,0,0-.554.549C220.758,187.277,221.094,187.2,221.432,187.124Z" transform="translate(-220.424 -186.747)" fill="#8c8179"/>
    </g>
    <g id="Gruppe_318" data-name="Gruppe 318" transform="translate(142.99 197.455)">
      <path id="Pfad_809" data-name="Pfad 809" d="M153.423,244.054l.229-.041c-.064.086-.008.111.11.108a33.55,33.55,0,0,1,1.419-3.743c-.156.1-.32.223-.531.364l-.065-.066a33.958,33.958,0,0,0-1.248,3.378A.149.149,0,0,1,153.423,244.054Z" transform="translate(-153.336 -240.378)" fill="#8c8179"/>
    </g>
    <g id="Gruppe_319" data-name="Gruppe 319" transform="translate(141.464 201.131)">
      <path id="Pfad_810" data-name="Pfad 810" d="M149.181,261.717a34.348,34.348,0,0,0,.358,3.888,1.061,1.061,0,0,1,.412-.121,33.734,33.734,0,0,1,.5-12.557l-.124-.041.139-.021q.214-.917.478-1.816c-.233.148-.368.315-.218.531l-.291-.212c.758-.267-.27-.343.518-.551-.185.059-.04-.322-.183-.378l-.092.016A34.041,34.041,0,0,0,149.181,261.717Z" transform="translate(-149.161 -250.438)" fill="#8c8179"/>
    </g>
    <g id="Gruppe_320" data-name="Gruppe 320" transform="translate(144.895 178.003)">
      <path id="Pfad_811" data-name="Pfad 811" d="M171.465,191.527c-.3-.077-.908.481-1.179.452a34.423,34.423,0,0,0-11.737,13.483c.217-.079.433-.18.6-.25a33.781,33.781,0,0,1,1.994-3.435l-.273.08.271-.284a.717.717,0,0,1,.133.009A33.828,33.828,0,0,1,180.8,187.7a2.577,2.577,0,0,1,.469-.559,33.906,33.906,0,0,0-8.909,3.546A2.018,2.018,0,0,1,171.465,191.527Z" transform="translate(-158.549 -187.143)" fill="#8c8179"/>
    </g>
    <g id="Gruppe_321" data-name="Gruppe 321" transform="translate(178.336 244.56)">
      <path id="Pfad_812" data-name="Pfad 812" d="M252.687,369.293q-1.114.177-2.252.28c-.111.152-.237.3-.365.457q1.1-.087,2.184-.242c.011-.017.022-.033.032-.053A2.721,2.721,0,0,0,252.687,369.293Z" transform="translate(-250.07 -369.293)" fill="#8c8179"/>
    </g>
    <g id="Gruppe_322" data-name="Gruppe 322" transform="translate(181.106 244.299)">
      <path id="Pfad_813" data-name="Pfad 813" d="M258.01,368.753l-.135.178-.226.316q.448-.072.893-.156c.125-.157.261-.333.391-.513Q258.473,368.672,258.01,368.753Z" transform="translate(-257.649 -368.579)" fill="#8c8179"/>
    </g>
    <g id="Gruppe_323" data-name="Gruppe 323" transform="translate(168.894 177.502)">
      <path id="Pfad_814" data-name="Pfad 814" d="M224.228,186.427c.146-.03.292-.061.439-.088a1.805,1.805,0,0,1,.1-.357c.4.267.547.089.669-.21-.347.057-.691.12-1.034.187A.522.522,0,0,1,224.228,186.427Z" transform="translate(-224.228 -185.771)" fill="#8c8179"/>
    </g>
    <g id="Gruppe_324" data-name="Gruppe 324" transform="translate(143.514 222.885)">
      <path id="Pfad_815" data-name="Pfad 815" d="M155.149,310.974a1.754,1.754,0,0,0,.25-.527c-.041-.106-.083-.213-.122-.32-.139.151-.339-.038-.508-.152Q154.952,310.478,155.149,310.974Z" transform="translate(-154.769 -309.975)" fill="#8c8179"/>
    </g>
    <g id="Gruppe_325" data-name="Gruppe 325" transform="translate(175.067 245.18)">
      <path id="Pfad_816" data-name="Pfad 816" d="M241.315,370.99l-.191.221h.132Z" transform="translate(-241.124 -370.99)" fill="#8c8179"/>
    </g>
    <g id="Gruppe_326" data-name="Gruppe 326" transform="translate(164.802 243.257)">
      <path id="Pfad_817" data-name="Pfad 817" d="M223.507,367.446a33.526,33.526,0,0,1-10.283-1.72.235.235,0,0,1-.188.037c-.031.219.084.216.121.39a33.869,33.869,0,0,0,4.995,1.243l.214-.281c-.053.117-.1.214-.124.3a34.05,34.05,0,0,0,4.905.455A5.428,5.428,0,0,1,223.507,367.446Z" transform="translate(-213.031 -365.726)" fill="#8c8179"/>
    </g>
    <g id="Gruppe_327" data-name="Gruppe 327" transform="translate(141.884 216.34)">
      <path id="Pfad_818" data-name="Pfad 818" d="M151.765,298.124c.005-.1,0-.222,0-.342a2.362,2.362,0,0,1,.07-.8,33.514,33.514,0,0,1-1.134-4.92c-.136.069-.269.146-.4.225A33.952,33.952,0,0,0,151.765,298.124Z" transform="translate(-150.308 -292.061)" fill="#8c8179"/>
    </g>
    <g id="Gruppe_328" data-name="Gruppe 328" transform="translate(181.845 177.687)">
      <path id="Pfad_819" data-name="Pfad 819" d="M267.263,189.02a1.229,1.229,0,0,0,.369-.3,33.916,33.916,0,0,0-7.586-2.444c-.115.109-.25.248-.373.364A33.488,33.488,0,0,1,267.263,189.02Z" transform="translate(-259.673 -186.277)" fill="#8c8179"/>
    </g>
    <g id="Gruppe_329" data-name="Gruppe 329" transform="translate(178.094 244.86)">
      <path id="Pfad_820" data-name="Pfad 820" d="M249.8,370.114c-.129.011-.259.019-.389.028.055.1.115.181.315.023A.541.541,0,0,0,249.8,370.114Z" transform="translate(-249.406 -370.114)" fill="#8c8179"/>
    </g>
    <g id="Gruppe_330" data-name="Gruppe 330" transform="translate(176.905 244.919)">
      <path id="Pfad_821" data-name="Pfad 821" d="M246.921,370.275c-.1.006-.21.009-.315.015a1.379,1.379,0,0,1-.014.372c-.257-.1-.375-.052-.44.075.265-.01.529-.022.792-.038C246.865,370.618,246.819,370.493,246.921,370.275Z" transform="translate(-246.153 -370.275)" fill="#8c8179"/>
    </g>
    <g id="Gruppe_331" data-name="Gruppe 331" transform="translate(187.506 177.84)">
      <path id="Pfad_822" data-name="Pfad 822" d="M275.165,186.7c.042.112.081.224.112.336l.049-.241c0-.012,0-.023.006-.035Z" transform="translate(-275.165 -186.696)" fill="#8c8179"/>
    </g>
    <g id="Gruppe_332" data-name="Gruppe 332" transform="translate(181.52 176.554)">
      <path id="Pfad_823" data-name="Pfad 823" d="M258.783,183.337l.23.042C258.966,183.168,258.907,183.078,258.783,183.337Z" transform="translate(-258.783 -183.178)" fill="#8c8179"/>
    </g>
    <g id="Gruppe_333" data-name="Gruppe 333" transform="translate(193.158 245.343)">
      <path id="Pfad_824" data-name="Pfad 824" d="M290.634,371.529l.179-.094C290.734,371.448,290.638,371.472,290.634,371.529Z" transform="translate(-290.634 -371.435)" fill="#8c8179"/>
    </g>
    <g id="Gruppe_334" data-name="Gruppe 334" transform="translate(165.41 246.145)">
      <path id="Pfad_825" data-name="Pfad 825" d="M215.27,376.022a38.538,38.538,0,0,0,7.512,1.142c.457.024.912.036,1.365.045a3.972,3.972,0,0,1-.239-1.744c-.143-.046-.331.305-.435-.03l.446-.073c.029.726.7,1.337.814,1.855.913,0,1.819-.03,2.718-.091-.06-.349-.084-.63.136-.432a.9.9,0,0,1-.075-.643c-.057,1.033.393.615.656,1.018.47-.041.939-.088,1.4-.146,0-.02-.007-.037-.01-.059.012.022.022.038.032.056l.213-.029c.009-.13.006-.3.019-.411-.079.026-.319-.47-.407-.339-.027-.178-.361-.829-.5-1.315q-.622.071-1.249.122a.575.575,0,0,1-.025.578l-.328-.363a.671.671,0,0,0-.01-.189,36.442,36.442,0,0,1-12.615-1.342A11.411,11.411,0,0,1,215.27,376.022Zm7.282-.252-.119.976c-.2-.369-.1-.553-.121-.793-.08.054-.148.011-.171-.4a.786.786,0,0,1,.171.4C222.392,375.9,222.483,375.751,222.552,375.77Zm5.389-.258c.143.045.208.114.363.063-.223.652.413.907.007,1.242l-.511-.678.271.189Zm-6.185,1.386a3.166,3.166,0,0,1-.372-1.714C221.488,375.515,222.022,376.526,221.755,376.9Z" transform="translate(-214.693 -373.631)" fill="#8c8179"/>
    </g>
    <g id="Gruppe_335" data-name="Gruppe 335" transform="translate(192.118 242.243)">
      <path id="Pfad_826" data-name="Pfad 826" d="M287.788,364.255l.3.077,1.12-.276c.709.675,1.463.184,2.252.59l.077-.048c-.142-.2,0-.15.158-.1l.172-.109c-.007-.011-.01-.018-.018-.03l.034.019q.359-.23.713-.467c-.84,0-.75-.688-1.676-.964-.281.065.041.3.012.461l-1.637.08-.04-.037Q288.532,363.872,287.788,364.255Z" transform="translate(-287.788 -362.951)" fill="#8c8179"/>
    </g>
    <g id="Gruppe_336" data-name="Gruppe 336" transform="translate(177.536 174.79)">
      <path id="Pfad_827" data-name="Pfad 827" d="M247.881,178.513c.2.011.407.025.61.04l-.05-.2C248.1,178.507,248.085,178.319,247.881,178.513Z" transform="translate(-247.881 -178.35)" fill="#8c8179"/>
    </g>
    <g id="Gruppe_337" data-name="Gruppe 337" transform="translate(187.472 245.532)">
      <path id="Pfad_828" data-name="Pfad 828" d="M275.071,371.968l.04.011,0-.026Z" transform="translate(-275.071 -371.953)" fill="#8c8179"/>
    </g>
    <g id="Gruppe_338" data-name="Gruppe 338" transform="translate(139.212 213.304)">
      <path id="Pfad_829" data-name="Pfad 829" d="M143.018,283.8v-.016c-.007-.01-.015-.019-.022-.03Z" transform="translate(-142.995 -283.754)" fill="#8c8179"/>
    </g>
    <g id="Gruppe_339" data-name="Gruppe 339" transform="translate(158.865 243.636)">
      <path id="Pfad_830" data-name="Pfad 830" d="M196.782,368.533c.176-.14.216.2.268.516.045.006.077.056.076.185.159.075.318.149.479.222a.9.9,0,0,0-.057-.112l-.074.03.106-.3-.3-.486a1.264,1.264,0,0,1,.561.975,38.186,38.186,0,0,0,4.139,1.56c-.224-.428-.792-.855-.848-1.567-.235.186.062.779-.112,1.02-.024-.432.032-1.611-.41-1.515l.4-.34c.189.28.227-.092.423.1a7.33,7.33,0,0,0,.574,2.314q.866.27,1.749.5a7,7,0,0,1-.592-2.4,36.019,36.019,0,0,1-6.175-2.459C196.985,367.365,197.23,368.28,196.782,368.533Z" transform="translate(-196.782 -366.763)" fill="#8c8179"/>
    </g>
    <g id="Gruppe_340" data-name="Gruppe 340" transform="translate(158.975 245.92)">
      <path id="Pfad_831" data-name="Pfad 831" d="M197.084,373.091l.189.089c-.011-.051-.021-.107-.031-.163A.239.239,0,0,0,197.084,373.091Z" transform="translate(-197.084 -373.016)" fill="#8c8179"/>
    </g>
    <g id="Gruppe_341" data-name="Gruppe 341" transform="translate(137.033 199.973)">
      <path id="Pfad_832" data-name="Pfad 832" d="M139.49,265.95a6.163,6.163,0,0,0,.514.842c.074.129.147.265.214.4a36.031,36.031,0,0,1-.85-4.87,2.63,2.63,0,0,0-.532-.545l.015.219-.29-.368a1.076,1.076,0,0,1,.274.149l-.019-.278c-.019-.034-.026-.062-.005-.078l.005.078a3.021,3.021,0,0,0,.205.255c.566-.467-1.095-1.13-.789-1.8.54.163.187-.158.61.513.173.052.249.028.295-.014,0-.007-.007-.012-.009-.019l.009.019c.034-.031.051-.07.078-.1q-.072-1.462-.025-2.95a.128.128,0,0,0-.088.024c.055-.474-1.029-1.231-.761-1.364.561.793.493-.111.782.169l-.285.358a1.2,1.2,0,0,0,.372.309c0-.092.006-.183.011-.275a36.584,36.584,0,0,1,.451-4.107c0-.023-.007-.048-.006-.071,0,.017.007.031.01.047q.261-1.56.651-3.072c-.239-.215-.309.181-.752-.544a.125.125,0,0,0-.072.135c.056.109.112.218.169.327.061.085.11.153.088.171-.029-.057-.059-.114-.088-.171a.813.813,0,0,1-.169-.327,2.23,2.23,0,0,1-.388-1.442c-.713-.736-.171.084-.518.027q-.429,1.45-.747,2.948a2.54,2.54,0,0,0,.413.285c.3.512-.295.278.169.858.169-.5.48.671.95.8-.187.246-.8-.243-1.011-.385.038.083.064.142.064.142-.17-.2-.161-.209-.064-.142-.033-.072-.073-.16-.117-.25l-.184-.389c-.059.249-.3-.146-.395-.038q-.153.819-.27,1.65c.019.043.038.088.057.133l.256.589a.234.234,0,0,0-.419.077c0,.018,0,.035-.006.052a.353.353,0,0,0,.068.2.5.5,0,0,1-.105.121q-.115,1.032-.175,2.08c.3.617,1.151.867,1.17,1.2a.924.924,0,0,0,.087.767l.185-.162c.136.3-.124.107-.166.251l-.183-.366c-.09-.185-.189-.363-.189-.363.368,1.044-.654.679-.44,1.741l-.5-.706c-.14.745,1.312,1.869.99,2.449-.516-1.181-.535.217-.958-.49q.03.554.077,1.1a13.63,13.63,0,0,0,.771,1.49c-.05.14.574.923.988,1.285.041.262-.385.3.109.7.142-.014.193-.151.075-.449C139.809,265.214,138.982,265.466,139.49,265.95Zm-.712-17.223c-.08-.273-.163-.545.127-.592C138.644,248.271,139.145,248.953,138.779,248.727Zm.147,4.3.366-.007.13.216Zm-1.3,1.3c-.156-.626.7.456.493.208l-.407.152Zm.117,1.089.226.017-.324.183Zm.258-.449a3.01,3.01,0,0,1,.6.794.173.173,0,0,1,.065.123s-.024-.049-.065-.123C138.427,255.583,137.926,255.4,138,254.97Zm.241,3.941-.029-.5.332.553Z" transform="translate(-137.033 -247.269)" fill="#8c8179"/>
    </g>
    <g id="Gruppe_342" data-name="Gruppe 342" transform="translate(137.389 216.588)">
      <path id="Pfad_833" data-name="Pfad 833" d="M138.152,292.824l.013.087c-.055-.054-.107-.112-.159-.172q.055.4.119.788a1.51,1.51,0,0,0,.584.614C138.967,293.939,138.423,293.2,138.152,292.824Z" transform="translate(-138.006 -292.739)" fill="#8c8179"/>
    </g>
    <g id="Gruppe_343" data-name="Gruppe 343" transform="translate(181.43 173.194)">
      <path id="Pfad_834" data-name="Pfad 834" d="M271.295,179.079c.058.039.17.111.228.081-.006.423-.113,0-.176.311l-.165-.395c-.118.065-.121.276-.291.094.142-.327-.238-.828-.475-1.277q-1.044-.546-2.126-1.03c0,.033,0,.067-.009.1l-.031-.117-.148-.065-.114.266a.836.836,0,0,0-.007-.319q-.484-.212-.975-.411l.067.5-.112-.083.019-.433a38.2,38.2,0,0,0-8.281-2.3l-.005.084-.024-.089-.135-.022a2.779,2.779,0,0,1,.342,1.044c-.1.331.178.8.32,1.256a36.027,36.027,0,0,1,4.765,1.216,1.872,1.872,0,0,0-.265-.5l.418-.285a3.666,3.666,0,0,0,.247.916,36.1,36.1,0,0,1,7.257,3.425l-.072-.208c-.048-.131-.106-.309-.159-.49l-.219-.717a1.843,1.843,0,0,1,.565.514l.3-.659a1.367,1.367,0,0,0,.083.6c.025.023.05.049.078.079a.306.306,0,0,0-.033.017,1.647,1.647,0,0,0,.091.158c.457.154-.224-.778.124-.766l.279.324c-.174.17-.113,0-.224-.218-.176.031.046.671.23.981l-.35-.284c-.112.413.529.67.006.486.223-.2-.48-.509-.156-.681-.017-.033-.033-.065-.045-.1-.126-.118-.213-.147-.263,0,.159.324-.053.871.407.882-.115.066-.462.13-.405-.042-.229-.208-.124.111-.221.132a36.485,36.485,0,0,1,6.377,4.989c-.05-.154-.063-.278.02-.335-.109.075-.25-.145-.356-.394h0l-.019-.057a2.6,2.6,0,0,1-.115-.352l.115.352c.008.019.015.038.023.057l.338.05a3.772,3.772,0,0,0-.848-2.116c-.224-.338-.454-.676-.635-1.019a3.515,3.515,0,0,1-.209-.532,38.586,38.586,0,0,0-4.632-3.118C271.764,179.149,271.114,178.032,271.295,179.079Zm-9.391-3.843c-.009.148.077.608-.049.814C261.759,175.667,261.613,175.234,261.9,175.236Zm7.047,2.2.006-.142.341.306Z" transform="translate(-258.536 -173.982)" fill="#8c8179"/>
    </g>
    <g id="Gruppe_344" data-name="Gruppe 344" transform="translate(157.833 244.911)">
      <path id="Pfad_835" data-name="Pfad 835" d="M193.957,370.771q.487.253.983.491c-.028-.324.183-.5-.281-.9-.143-.023-.225.1-.179.429l-.171-.538Z" transform="translate(-193.957 -370.253)" fill="#8c8179"/>
    </g>
    <g id="Gruppe_345" data-name="Gruppe 345" transform="translate(180.518 246.895)">
      <path id="Pfad_836" data-name="Pfad 836" d="M256.287,378.159a38.134,38.134,0,0,0,6.84-1.59l-2.168-.445.007,0c.046.354-.125.495-.589.582-.011.009-.035.016-.091.017l.091-.017c.04-.036-.168-.117-.168-.117l-.3-.235-.467-.159-1.215-.453-.185-.065q-.991.195-2,.334a2.613,2.613,0,0,0,.422,1.529C256.135,377.356,256.178,377.93,256.287,378.159Z" transform="translate(-256.04 -375.682)" fill="#8c8179"/>
    </g>
    <g id="Gruppe_346" data-name="Gruppe 346" transform="translate(202.434 186.668)">
      <path id="Pfad_837" data-name="Pfad 837" d="M316.04,211.066l.178.2a.489.489,0,0,0-.18-.4l-.02-.012A.4.4,0,0,1,316.04,211.066Z" transform="translate(-316.018 -210.858)" fill="#8c8179"/>
    </g>
    <g id="Gruppe_347" data-name="Gruppe 347" transform="translate(201.751 183.389)">
      <path id="Pfad_838" data-name="Pfad 838" d="M314.632,202.255l.056-.04-.017.291c-.005.143-.01.286-.01.286l-.155-.173-.149-.178c-.049.241-.269.391-.189.69.609.5-.088,1.19.6,1.994.021.015.041.026.062.038v-.007c.008.006.014.013.021.019a.549.549,0,0,0,.447.065c.038-.1.1-.161.212-.143a.465.465,0,0,1-.212.143,3.27,3.27,0,0,0-.087.536,36.6,36.6,0,0,1,4.6,6.565c-.068-.344-.12-.685.162-.737.009.375.568.889.9,1.444-.125-.046-.373-.137-.213.108-.285.022-.457-.6-.619-.846-.182.158.1.282-.107.254a36.274,36.274,0,0,1,1.894,4.12c.11-.065.261-.124.182-.337l.543,1.357c-.071.069-.213.008-.376-.076.074.209.148.418.218.628a4.285,4.285,0,0,1,.559.544l-.257-.745.372.05c.373.961,1.576,1.494,1.661,2.257a6.07,6.07,0,0,1-1.535-1.551c-.33.756,1.045,1.725.91,2.475l.093-.1c.048.557-.195-.233-.337.092-.372-.478-.486-.7-.091-.768-.248-.258-.6-.668-.665-.256a1.182,1.182,0,0,0-.324-.76,36.052,36.052,0,0,1,1.027,4.559.55.55,0,0,1,.039.064.423.423,0,0,0,.069.044l.089-.1-.112.217a.469.469,0,0,0-.046-.16c-.011-.007-.023-.013-.033-.021q.252,1.609.358,3.259l.526.129c-.247,0,.364.824.776,1.108-.042.051.126.339-.126.155a1.634,1.634,0,0,0-.834-.757c-.173.2.385.709.664.962l-.025-.068a3.837,3.837,0,0,1,1.17,1.354v-.307l.083.087q.013-1.578-.1-3.129l-.143-.282.134.159a38.2,38.2,0,0,0-1.208-7.037c-.114-.005-.258-.089-.434-.314l.168-.259a.3.3,0,0,0,.2.314q-.134-.483-.28-.962a1.006,1.006,0,0,1-.22-.292.518.518,0,0,1,.142.042,38.585,38.585,0,0,0-7.794-13.871l-.155-.016-.037-.2q-1.057-1.189-2.208-2.29C314.528,202.021,314.587,202.149,314.632,202.255Zm10.026,24.828.119.119c-.05,0-.086-.048-.119-.119l-.366-.365C324.513,226.6,324.575,226.9,324.658,227.082Zm-1.9-9.5.177.239s-.094-.115-.178-.239l-.172-.244Zm.65-1.772-.074-.084.281-.033Zm-1.069-.894.2.37.117-.268c-.054.289.457.76.619,1.244-.277-.212-.42-.322-.484-.095a13.641,13.641,0,0,0-.989-1.3C321.94,214.972,322.345,215.228,322.337,214.919Zm-2.133-5.235c.177.447-.215.1-.405-.035.018.132-.016.308.117.422.489.638.366-.231.531-.291l.186.514c-.521-.459-.167.439-.74.02-.036-.265-.345-.829-.2-1.023l.358.519Zm-.7-1.339c-.014.3-.065.785-.088,1.027l-.432-.829c-.221-.41-.418-.838-.418-.838C318.765,207.477,319.184,208.163,319.5,208.345Zm-1.343-1.267c-.046.109-.24-.105-.212.163l-.321-.909Zm-2.541-2.842c-.254-.383-.624.084-.606-.493C315.27,204.131,315.351,203.65,315.62,204.236Z" transform="translate(-314.15 -201.884)" fill="#8c8179"/>
    </g>
    <g id="Gruppe_348" data-name="Gruppe 348" transform="translate(183.593 246.959)">
      <path id="Pfad_839" data-name="Pfad 839" d="M265.506,376.074l-1.051-.216.333.258A1.52,1.52,0,0,0,265.506,376.074Z" transform="translate(-264.455 -375.858)" fill="#8c8179"/>
    </g>
    <g id="Gruppe_349" data-name="Gruppe 349" transform="translate(182.525 243.684)">
      <path id="Pfad_840" data-name="Pfad 840" d="M262.534,370.378a2.7,2.7,0,0,1,.544.162l-.145-.113a.8.8,0,0,1-.332-.258,6.051,6.051,0,0,1,1.711.032l.118-.273a16.177,16.177,0,0,0,3.657.43.408.408,0,0,0-.14.162c.21-.078.419-.157.627-.239a.647.647,0,0,1,.059-.074.159.159,0,0,1,.108.006l.324-.132a.547.547,0,0,0-.364-.36,1.528,1.528,0,0,1,.6.265q1.385-.579,2.716-1.261c-.1-.021-.2-.053-.233-.119.013-.082.1-.1.29-.149.2.031.3.049.341.06q.977-.515,1.922-1.082c-.1-.025-.194-.05-.3-.073l.16.118-2.091-.349.492.267a3.681,3.681,0,0,1-1.729-.506q-1.171.592-2.387,1.1c.224.142.546.275.31.46-1.007-.432-1.006.2-1.709.158.7.037-.145.43.541.63l.123-.271c.36-.021.427.117.775.18-.072-.138.031-.243-.13-.355,1.013.348-.318.4.611.69l-1.2-.3.131.354c-.4-.36-1.368-.4-1.477-.209-.138-.355,1.05.094.741-.288a.653.653,0,0,0-.881-.065l-.141-.117a36.072,36.072,0,0,1-4.639,1.238l.177.066c.079.026.156.05.231.071C262.167,370.3,262.351,370.34,262.534,370.378Z" transform="translate(-261.532 -366.895)" fill="#8c8179"/>
    </g>
    <g id="Gruppe_350" data-name="Gruppe 350" transform="translate(167.28 172.74)">
      <path id="Pfad_841" data-name="Pfad 841" d="M220.526,175.679c.088-.019.176-.039.264-.057-.112-.376.266-.567-.11-1.007.467.189.027-.482.374-.324l.156.4c-.321-.307-.122.608-.254.894a36.232,36.232,0,0,1,7.795-.686c-.012-.082.034-.052.1,0l.246.005a.785.785,0,0,0-.007-.082c-.051-.2-.172-.147-.232-.119a3.551,3.551,0,0,0-.148-.686c-.06.027-.178.007-.126.211a1.139,1.139,0,0,0-.142-.613l-.064.025-.069-.643c.171.076.39.274.519.143a3.634,3.634,0,0,0,.426,1.77c.231.008.462.015.694.027l.077.005a9.249,9.249,0,0,0-.362-1.954.678.678,0,0,1-.2-.228c-.175-.007-.349-.014-.523-.018a.54.54,0,0,1-.094.164.726.726,0,0,0-.029-.166q-.57-.012-1.136-.006c.021.212.2.417.19.609a.923.923,0,0,1-.227-.608,38.483,38.483,0,0,0-4.031.251c.006.034.012.066.018.1a1.288,1.288,0,0,1-.134-.088q-1.867.221-3.681.62c.034.13.06.242.071.314.056.053.118.025.124-.056.113.514.15.922.278,1.3.015.033.026.068.038.1A2,2,0,0,0,220.526,175.679Zm8.7-1.737a.872.872,0,0,1-.005.442,1.063,1.063,0,0,1,.005-.442,1.688,1.688,0,0,0-.191-.519C229.267,173.537,229.257,173.734,229.23,173.942Z" transform="translate(-219.811 -172.74)" fill="#8c8179"/>
    </g>
    <g id="Gruppe_351" data-name="Gruppe 351" transform="translate(138.911 173.725)">
      <path id="Pfad_842" data-name="Pfad 842" d="M143.617,203.732a36.462,36.462,0,0,1,27.5-26.313c0-.006,0-.011-.006-.017a1.045,1.045,0,0,0-.062-.405c-.013-.034-.026-.068-.038-.1-.22-.5-.733-.912-.914-1.459a38.656,38.656,0,0,0-22.489,14.93l.121.247-.193-.148a38.408,38.408,0,0,0-3.887,6.724l0,.009-.006,0q-.354.787-.674,1.591c.213.268.405.48.588.684a1.018,1.018,0,0,1,.126.142l-.126-.142c-.24-.232-.588-.409-.62-.6q-.415,1.055-.768,2.14a4.977,4.977,0,0,1,1.307,1.9l-.632-.091.332.611.12-.108A.818.818,0,0,1,143.617,203.732Zm1.863-9.7.95.933c-.212-.161-.145.026-.295.048Zm-1.088,4.2-.585-.58.265.1c-.243-.491-.319-1.161.364-.742,2.08,1.372-.36.736.524,1.818Z" transform="translate(-142.172 -175.435)" fill="#8c8179"/>
    </g>
    <g id="Gruppe_352" data-name="Gruppe 352" transform="translate(177.682 172.829)">
      <path id="Pfad_843" data-name="Pfad 843" d="M251.914,175.193l.005-.076.006.007a3.722,3.722,0,0,0-.589-1.873q-1.3-.177-2.626-.267c-.051.053-.055.148.061.362l-.341-.217c.15.377-.024.457-.15.509.163.141.1.506.249.478a.14.14,0,0,1,.029-.083l0,.078a.081.081,0,0,1-.026,0,7.682,7.682,0,0,0,.229,1.032l.351.027c0-.019-.007-.031-.013-.052a.128.128,0,0,1,.094.06q1.573.133,3.1.4a4.92,4.92,0,0,0-.368-.456C251.921,175.146,251.92,175.17,251.914,175.193Z" transform="translate(-248.28 -172.983)" fill="#8c8179"/>
    </g>
    <g id="Gruppe_353" data-name="Gruppe 353" transform="translate(194.081 177.518)">
      <path id="Pfad_844" data-name="Pfad 844" d="M293.273,185.878l-.114-.064a.845.845,0,0,1,.061.176A.117.117,0,0,0,293.273,185.878Z" transform="translate(-293.159 -185.814)" fill="#8c8179"/>
    </g>
    <g id="Gruppe_354" data-name="Gruppe 354" transform="translate(137.565 217.728)">
      <path id="Pfad_845" data-name="Pfad 845" d="M150.5,317.8a.5.5,0,0,0,.011-.05c-.043-.145-.369-.451-.187-.612a.682.682,0,0,1,.187.612.057.057,0,0,1-.006.055,38.579,38.579,0,0,0,8.153,5.711c-.023-.262.106-.538-.19-.63l-.016.18c-.246-.5-.512-.731-.548-1.151l.442-.106c-.385-.808.03-.639.169-.828a36.591,36.591,0,0,1-14.667-15.539c-.041.049-.1.043-.2-.076a1.07,1.07,0,0,0,.007-.31c-.076-.159-.15-.319-.224-.479l-.654-.366c-.286-1.822-1.169-1.672-1.643-3.289-.331.24-.095,1.091-.548.859-.492-.577-.255-.373-.376-.843l.508.749c-.386-.931.1-1.006-.665-2.137l-.336.158c.245-.039-.043-.556-.246-1.008s-.346-.825.261-.619a9.806,9.806,0,0,0,1.752,2.123c-.351.064.609.969-.035.964.616.848.337,0,.585-.071q-.372-1.087-.676-2.2a9.464,9.464,0,0,1-.807-1.024c-.4-.514-.83-1.082-1.051-1.348-.284.027-.257.2.091.61l-.928-.441c.184.038.049-.388-.181-.822q.137.8.308,1.591l.169.256a.234.234,0,0,1-.111.009,38.154,38.154,0,0,0,1.472,4.985l.092.119a.141.141,0,0,1-.014.091A38.709,38.709,0,0,0,150.5,317.8Zm7.031,4.277c-.087.216-.339-.193-.49-.132.082-.118-.019-.593.129-.661C157,321.62,157.485,321.839,157.536,322.073Zm-16.33-23.091.156.739-.449-.808Zm-.432,3.864c.138-.006.364.274.424.079l-.013-.036c-.075-.109-.134-.149-.07-.191l.07.191c.006.009.012.016.018.026a.067.067,0,0,1,0,.01l.183.5C141.2,302.915,141.11,303.614,140.773,302.846Zm5.824,8.315c.031.024.042.037.01.036,0-.012-.007-.024-.01-.036-.1-.079-.439-.291-.278-.588A.839.839,0,0,1,146.6,311.161Zm-.767-.039-.495-.318,0-.438C145.616,310.551,145.76,311.078,145.83,311.121Zm-1.3-1.935c-.286-.092-.216-.13-.372-.48l.426,0,.3.52c-.135.173.175,1.035-.332.731.157.168.356,1.005.5.572l-.14.6A2.225,2.225,0,0,1,144.526,309.187Zm1.446,2.638-.141.083c.141-.169.07-.563.423-.332v1.037C145.831,312.253,146.256,312.27,145.972,311.824Zm2.062,1.442-.073-.57.181.511.164.518Z" transform="translate(-138.489 -295.861)" fill="#8c8179"/>
    </g>
    <g id="Gruppe_355" data-name="Gruppe 355" transform="translate(201.952 186.33)">
      <path id="Pfad_846" data-name="Pfad 846" d="M314.7,209.933c.137.146.273.294.407.442A.7.7,0,0,0,314.7,209.933Z" transform="translate(-314.7 -209.933)" fill="#8c8179"/>
    </g>
  </g>
</svg>
