<svg xmlns="http://www.w3.org/2000/svg" width="215.22" height="38.706" viewBox="0 0 215.22 38.706">
  <g id="Gruppe_107" data-name="Gruppe 107" transform="translate(-59.335 -215.746)">
    <path id="Pfad_607" data-name="Pfad 607" d="M625.63,237.426a5.424,5.424,0,0,1-3.17.886h-3.95l2.071-9.664h3.281c2.372,0,3.854,1.23,3.854,3.474C627.715,233.836,627.206,236.253,625.63,237.426Zm-.239-5.3c0-1.158-.542-1.7-1.943-1.7h-.892l-1.338,6.119h1.306a2.39,2.39,0,0,0,1.5-.457C624.944,235.395,625.39,233.279,625.39,232.121Z" transform="translate(-391.671 -9.036)" fill="#8c8179"/>
    <path id="Pfad_608" data-name="Pfad 608" d="M655.523,238.311l-.254-1.959H651.86l-1.019,1.959h-2.5l4.984-9.664h3.265l1.227,9.664Zm-2.787-3.674h2.31l-.3-2.574c-.047-.4-.063-1.1-.063-1.1h-.239a9.977,9.977,0,0,1-.477,1.258Z" transform="translate(-412.566 -9.036)" fill="#8c8179"/>
    <path id="Pfad_609" data-name="Pfad 609" d="M695.654,228.647l-4.826,9.664h-3.375l-.781-9.664H689l.43,5.8c.049.6.016,1.53.016,1.53h.239s.414-1.216.589-1.573l2.866-5.761Z" transform="translate(-439.414 -9.036)" fill="#8c8179"/>
    <path id="Pfad_610" data-name="Pfad 610" d="M723.477,237.11a5.708,5.708,0,0,1-3.393.915c-2.213,0-3.694-.943-3.694-3.159,0-1.687.8-4.8,2.389-5.962a5.792,5.792,0,0,1,3.456-.972c2.214,0,3.727.957,3.727,3.188C725.962,232.821,725.133,235.951,723.477,237.11Zm.1-5.733c0-1.072-.446-1.644-1.672-1.644a2.468,2.468,0,0,0-1.594.5c-1,.773-1.529,3.217-1.529,4.361,0,1.073.4,1.63,1.657,1.63a2.549,2.549,0,0,0,1.64-.515C723.015,234.98,723.573,232.492,723.573,231.377Z" transform="translate(-460.23 -8.535)" fill="#8c8179"/>
    <path id="Pfad_611" data-name="Pfad 611" d="M753.746,238.025a7.078,7.078,0,0,1-3.647-.972l.765-1.615a6.17,6.17,0,0,0,2.786.786c1.1,0,1.657-.557,1.657-1.258,0-.4-.3-.73-1-1.059l-.764-.343c-1.179-.543-2.055-1.3-2.055-2.516,0-1.7,1.369-3.116,3.95-3.116a6.592,6.592,0,0,1,2.962.714l-.907,1.63a4.807,4.807,0,0,0-2.071-.544c-.972,0-1.545.5-1.545,1.173,0,.4.3.729.86.987l.941.428c1.337.586,2.038,1.33,2.038,2.473C757.712,236.51,756.485,238.025,753.746,238.025Z" transform="translate(-483.841 -8.535)" fill="#8c8179"/>
    <path id="Pfad_612" data-name="Pfad 612" d="M656.852,269.743" transform="translate(-418.527 -37.822)" fill="#8c8179" stroke="#426270" stroke-miterlimit="10" stroke-width="1"/>
    <path id="Pfad_613" data-name="Pfad 613" d="M66.494,293.474a12.884,12.884,0,0,1-7.159-2.121l1.5-3.524a11.2,11.2,0,0,0,5.471,1.715c2.157,0,3.252-1.216,3.252-2.744,0-.873-.594-1.591-1.97-2.308l-1.5-.749c-2.314-1.185-4.033-2.838-4.033-5.489,0-3.711,2.689-6.8,7.754-6.8a11.913,11.913,0,0,1,5.815,1.559l-1.782,3.555a8.733,8.733,0,0,0-4.065-1.185c-1.907,0-3.033,1.092-3.033,2.557,0,.873.594,1.591,1.689,2.152l1.844.936c2.626,1.279,4,2.9,4,5.4C74.28,290.168,71.872,293.474,66.494,293.474Z" transform="translate(0 -39.022)" fill="#8c8179"/>
    <path id="Pfad_614" data-name="Pfad 614" d="M127.468,294.1H114.962l4.1-21.082h11.787l-.719,3.742h-7.16l-.875,4.491h4.877l-.719,3.493H121.4l-1.094,5.614h7.879Z" transform="translate(-38.964 -40.116)" fill="#8c8179"/>
    <path id="Pfad_615" data-name="Pfad 615" d="M177.564,285.867l3.126,8.233h-4.846L173,286.428h-1.813l-1.5,7.672h-4.627l4.1-21.082h7.566c3.533,0,5.815,1.809,5.815,5.52a7.837,7.837,0,0,1-3.033,6.456A6.379,6.379,0,0,1,177.564,285.867Zm.344-7.048a1.789,1.789,0,0,0-2.032-1.934H173.03l-1.188,6.05h2.751a3.01,3.01,0,0,0,2.063-.749A4.6,4.6,0,0,0,177.908,278.819Z" transform="translate(-74.053 -40.116)" fill="#8c8179"/>
    <path id="Pfad_616" data-name="Pfad 616" d="M243.248,276.76h-5.315l-3.377,17.34h-4.627l3.377-17.34h-5.315l.75-3.742h15.226Z" transform="translate(-118.134 -40.116)" fill="#8c8179"/>
    <path id="Pfad_617" data-name="Pfad 617" d="M281.429,294.1h-4.6l4.064-21.082h4.627Z" transform="translate(-152.345 -40.116)" fill="#8c8179"/>
    <path id="Pfad_618" data-name="Pfad 618" d="M320.044,289.046l.875-4.429h-3.971l.688-3.493H326.2l-2,10.2a15.083,15.083,0,0,1-7.848,2.152c-4.408,0-7.691-2.152-7.691-6.955,0-3.992,1.282-10.26,4.784-12.973a11.457,11.457,0,0,1,7-2.09,13.966,13.966,0,0,1,6.284,1.279l-1.626,3.586a14.739,14.739,0,0,0-4.721-.936,5.923,5.923,0,0,0-4.252,1.4c-1.751,1.622-2.845,6.736-2.845,9.2,0,2.308,1.094,3.555,3.845,3.555A9.465,9.465,0,0,0,320.044,289.046Z" transform="translate(-174.641 -39.022)" fill="#8c8179"/>
    <path id="Pfad_619" data-name="Pfad 619" d="M462.474,292.382a11.58,11.58,0,0,1-5.253,1.092c-3.814,0-6.6-1.871-6.6-6.112,0-3.555,1.094-10.947,4.533-13.847a9.308,9.308,0,0,1,5.94-2.058,10.051,10.051,0,0,1,4.315.749l-.75,1.809a10.786,10.786,0,0,0-3.533-.593,6.74,6.74,0,0,0-4.69,1.778c-2.376,2.183-3.564,8.888-3.564,11.758,0,2.931,1.751,4.522,4.533,4.522a12.886,12.886,0,0,0,4.752-.811Z" transform="translate(-274.076 -39.022)" fill="#8c8179"/>
    <path id="Pfad_620" data-name="Pfad 620" d="M509.826,294.1H499.571l4.1-21.082h2.189L502.1,292.354h8.066Z" transform="translate(-308.361 -40.116)" fill="#8c8179"/>
    <path id="Pfad_621" data-name="Pfad 621" d="M554.753,287.582h-6.472l-3.126,6.518h-2.376l10.161-21.082H555l2.814,21.082h-2.188Zm-5.628-1.746H554.5l-.844-6.269c-.094-.78-.219-3.181-.219-3.181h-.281a34.249,34.249,0,0,1-1.126,3.431Z" transform="translate(-338.625 -40.116)" fill="#8c8179"/>
    <path id="Pfad_622" data-name="Pfad 622" d="M606.265,293.474a9.28,9.28,0,0,1-6.191-2.37l1.126-1.716a8.228,8.228,0,0,0,5.159,2.09,4.468,4.468,0,0,0,4.69-4.678c0-1.622-1.094-2.745-2.97-3.68l-1.844-.936c-2.282-1.154-3.658-2.526-3.658-4.834,0-3.15,2.251-5.894,6.628-5.894a8.79,8.79,0,0,1,5.065,1.622l-1.032,1.746a7.433,7.433,0,0,0-4.127-1.372c-2.876,0-4.314,1.9-4.314,3.68,0,1.5,1.031,2.433,2.407,3.119l2,1c2.626,1.31,4.064,3.025,4.064,5.427A6.581,6.581,0,0,1,606.265,293.474Z" transform="translate(-378.757 -39.022)" fill="#8c8179"/>
    <path id="Pfad_623" data-name="Pfad 623" d="M654.795,293.474a9.28,9.28,0,0,1-6.191-2.37l1.126-1.716a8.228,8.228,0,0,0,5.159,2.09,4.468,4.468,0,0,0,4.69-4.678c0-1.622-1.094-2.745-2.97-3.68l-1.844-.936c-2.282-1.154-3.658-2.526-3.658-4.834,0-3.15,2.251-5.894,6.628-5.894a8.79,8.79,0,0,1,5.065,1.622l-1.032,1.746a7.433,7.433,0,0,0-4.127-1.372c-2.876,0-4.315,1.9-4.315,3.68,0,1.5,1.032,2.433,2.407,3.119l2,1c2.626,1.31,4.064,3.025,4.064,5.427A6.581,6.581,0,0,1,654.795,293.474Z" transform="translate(-412.75 -39.022)" fill="#8c8179"/>
    <path id="Pfad_624" data-name="Pfad 624" d="M702.142,294.1h-2.189l4.1-21.082h2.189Z" transform="translate(-448.717 -40.116)" fill="#8c8179"/>
    <path id="Pfad_625" data-name="Pfad 625" d="M738.52,292.382a11.578,11.578,0,0,1-5.253,1.092c-3.814,0-6.6-1.871-6.6-6.112,0-3.555,1.094-10.947,4.534-13.847a9.308,9.308,0,0,1,5.94-2.058,10.051,10.051,0,0,1,4.315.749l-.75,1.809a10.788,10.788,0,0,0-3.533-.593,6.741,6.741,0,0,0-4.69,1.778c-2.376,2.183-3.564,8.888-3.564,11.758,0,2.931,1.751,4.522,4.533,4.522a12.888,12.888,0,0,0,4.753-.811Z" transform="translate(-467.431 -39.022)" fill="#8c8179"/>
    <path id="Pfad_626" data-name="Pfad 626" d="M391.34,221.921l-19.792,33.3H375.4s17.294-33.334,17.713-34.272a6.5,6.5,0,0,0,.39-2.318,1.959,1.959,0,0,0-.581-1.54c-.157-.151-.186.1-.186.1a4.2,4.2,0,0,0-.007.448A7.745,7.745,0,0,1,391.34,221.921Z" transform="translate(-218.688 -0.909)" fill="#8c8179"/>
    <path id="Pfad_627" data-name="Pfad 627" d="M414.861,219.286c-.167.411-.286.717-.286.717-.345.818-.78,1.844-.909,2.122L398.71,254.313h3.713L415.718,220a7.25,7.25,0,0,0,.317-3.08,1.77,1.77,0,0,0-.691-1.176c-.131-.019-.131.28-.131.467,0,.034,0,.092,0,.169,0,0,.009.146.021.4A6.661,6.661,0,0,1,414.861,219.286Z" transform="translate(-237.713 0)" fill="#8c8179"/>
  </g>
</svg>
